%TF.GenerationSoftware,KiCad,Pcbnew,10.0.0*%
%TF.CreationDate,2026-04-25T12:13:24+05:30*%
%TF.ProjectId,HackpadKicad,4861636b-7061-4644-9b69-6361642e6b69,rev?*%
%TF.SameCoordinates,Original*%
%TF.FileFunction,Drillmap*%
%TF.FilePolarity,Positive*%
%FSLAX45Y45*%
G04 Gerber Fmt 4.5, Leading zero omitted, Abs format (unit mm)*
G04 Created by KiCad (PCBNEW 10.0.0) date 2026-04-25 12:13:24*
%MOMM*%
%LPD*%
G01*
G04 APERTURE LIST*
%ADD10C,0.050000*%
%ADD11C,0.200000*%
%ADD12C,0.100000*%
%ADD13C,0.150000*%
G04 APERTURE END LIST*
D10*
X10650000Y-12950000D02*
G75*
G02*
X10350000Y-12650000I0J300000D01*
G01*
X19100000Y-12650000D02*
G75*
G02*
X18800000Y-12950000I-300000J0D01*
G01*
X10350000Y-6200000D02*
G75*
G02*
X10650000Y-5900000I300000J0D01*
G01*
X18800000Y-5900000D02*
G75*
G02*
X19100000Y-6200000I0J-300000D01*
G01*
X18800000Y-12950000D02*
X10650000Y-12950000D01*
X10350000Y-12650000D02*
X10350000Y-6200000D01*
X19100000Y-6200000D02*
X19100000Y-12650000D01*
X10650000Y-5900000D02*
X18800000Y-5900000D01*
D11*
D12*
X12985000Y-9635000D02*
X13015000Y-9665000D01*
X13015000Y-9635000D02*
X12985000Y-9665000D01*
X12985000Y-9985000D02*
X13015000Y-10015000D01*
X13015000Y-9985000D02*
X12985000Y-10015000D01*
X14085000Y-9985000D02*
X14115000Y-10015000D01*
X14115000Y-9985000D02*
X14085000Y-10015000D01*
X14785000Y-9635000D02*
X14815000Y-9665000D01*
X14815000Y-9635000D02*
X14785000Y-9665000D01*
X14885000Y-9985000D02*
X14915000Y-10015000D01*
X14915000Y-9985000D02*
X14885000Y-10015000D01*
X16985000Y-9985000D02*
X17015000Y-10015000D01*
X17015000Y-9985000D02*
X16985000Y-10015000D01*
X13362000Y-10918000D02*
G75*
G02*
X13282000Y-10918000I-40000J0D01*
G01*
X13282000Y-10918000D02*
G75*
G02*
X13362000Y-10918000I40000J0D01*
G01*
X13362000Y-11680000D02*
G75*
G02*
X13282000Y-11680000I-40000J0D01*
G01*
X13282000Y-11680000D02*
G75*
G02*
X13362000Y-11680000I40000J0D01*
G01*
X13368000Y-7087000D02*
G75*
G02*
X13288000Y-7087000I-40000J0D01*
G01*
X13288000Y-7087000D02*
G75*
G02*
X13368000Y-7087000I40000J0D01*
G01*
X13368000Y-7849000D02*
G75*
G02*
X13288000Y-7849000I-40000J0D01*
G01*
X13288000Y-7849000D02*
G75*
G02*
X13368000Y-7849000I40000J0D01*
G01*
X13368000Y-9000000D02*
G75*
G02*
X13288000Y-9000000I-40000J0D01*
G01*
X13288000Y-9000000D02*
G75*
G02*
X13368000Y-9000000I40000J0D01*
G01*
X13368000Y-9762000D02*
G75*
G02*
X13288000Y-9762000I-40000J0D01*
G01*
X13288000Y-9762000D02*
G75*
G02*
X13368000Y-9762000I40000J0D01*
G01*
X15287000Y-10937000D02*
G75*
G02*
X15207000Y-10937000I-40000J0D01*
G01*
X15207000Y-10937000D02*
G75*
G02*
X15287000Y-10937000I40000J0D01*
G01*
X15287000Y-11699000D02*
G75*
G02*
X15207000Y-11699000I-40000J0D01*
G01*
X15207000Y-11699000D02*
G75*
G02*
X15287000Y-11699000I40000J0D01*
G01*
X15290000Y-7093000D02*
G75*
G02*
X15210000Y-7093000I-40000J0D01*
G01*
X15210000Y-7093000D02*
G75*
G02*
X15290000Y-7093000I40000J0D01*
G01*
X15290000Y-7855000D02*
G75*
G02*
X15210000Y-7855000I-40000J0D01*
G01*
X15210000Y-7855000D02*
G75*
G02*
X15290000Y-7855000I40000J0D01*
G01*
X15290000Y-9015000D02*
G75*
G02*
X15210000Y-9015000I-40000J0D01*
G01*
X15210000Y-9015000D02*
G75*
G02*
X15290000Y-9015000I40000J0D01*
G01*
X15290000Y-9777000D02*
G75*
G02*
X15210000Y-9777000I-40000J0D01*
G01*
X15210000Y-9777000D02*
G75*
G02*
X15290000Y-9777000I40000J0D01*
G01*
X17206000Y-10932000D02*
G75*
G02*
X17126000Y-10932000I-40000J0D01*
G01*
X17126000Y-10932000D02*
G75*
G02*
X17206000Y-10932000I40000J0D01*
G01*
X17206000Y-11694000D02*
G75*
G02*
X17126000Y-11694000I-40000J0D01*
G01*
X17126000Y-11694000D02*
G75*
G02*
X17206000Y-11694000I40000J0D01*
G01*
X17209000Y-7093000D02*
G75*
G02*
X17129000Y-7093000I-40000J0D01*
G01*
X17129000Y-7093000D02*
G75*
G02*
X17209000Y-7093000I40000J0D01*
G01*
X17209000Y-7855000D02*
G75*
G02*
X17129000Y-7855000I-40000J0D01*
G01*
X17129000Y-7855000D02*
G75*
G02*
X17209000Y-7855000I40000J0D01*
G01*
X17209000Y-9012000D02*
G75*
G02*
X17129000Y-9012000I-40000J0D01*
G01*
X17129000Y-9012000D02*
G75*
G02*
X17209000Y-9012000I40000J0D01*
G01*
X17209000Y-9774000D02*
G75*
G02*
X17129000Y-9774000I-40000J0D01*
G01*
X17129000Y-9774000D02*
G75*
G02*
X17209000Y-9774000I40000J0D01*
G01*
X10922000Y-6138000D02*
X10922000Y-6238000D01*
X10872000Y-6188000D02*
X10972000Y-6188000D01*
X10922000Y-6392000D02*
X10922000Y-6492000D01*
X10872000Y-6442000D02*
X10972000Y-6442000D01*
X10922000Y-6646000D02*
X10922000Y-6746000D01*
X10872000Y-6696000D02*
X10972000Y-6696000D01*
X10922000Y-6900000D02*
X10922000Y-7000000D01*
X10872000Y-6950000D02*
X10972000Y-6950000D01*
X10922000Y-7154000D02*
X10922000Y-7254000D01*
X10872000Y-7204000D02*
X10972000Y-7204000D01*
X10922000Y-7408000D02*
X10922000Y-7508000D01*
X10872000Y-7458000D02*
X10972000Y-7458000D01*
X10922000Y-7662000D02*
X10922000Y-7762000D01*
X10872000Y-7712000D02*
X10972000Y-7712000D01*
X10922000Y-7916000D02*
X10922000Y-8016000D01*
X10872000Y-7966000D02*
X10972000Y-7966000D01*
X10922000Y-8170000D02*
X10922000Y-8270000D01*
X10872000Y-8220000D02*
X10972000Y-8220000D01*
X10922000Y-8424000D02*
X10922000Y-8524000D01*
X10872000Y-8474000D02*
X10972000Y-8474000D01*
X10922000Y-8678000D02*
X10922000Y-8778000D01*
X10872000Y-8728000D02*
X10972000Y-8728000D01*
X10922000Y-8932000D02*
X10922000Y-9032000D01*
X10872000Y-8982000D02*
X10972000Y-8982000D01*
X10922000Y-9186000D02*
X10922000Y-9286000D01*
X10872000Y-9236000D02*
X10972000Y-9236000D01*
X10922000Y-9440000D02*
X10922000Y-9540000D01*
X10872000Y-9490000D02*
X10972000Y-9490000D01*
X10922000Y-9694000D02*
X10922000Y-9794000D01*
X10872000Y-9744000D02*
X10972000Y-9744000D01*
X10922000Y-9948000D02*
X10922000Y-10048000D01*
X10872000Y-9998000D02*
X10972000Y-9998000D01*
X10922000Y-10202000D02*
X10922000Y-10302000D01*
X10872000Y-10252000D02*
X10972000Y-10252000D01*
X10922000Y-10456000D02*
X10922000Y-10556000D01*
X10872000Y-10506000D02*
X10972000Y-10506000D01*
X10922000Y-10710000D02*
X10922000Y-10810000D01*
X10872000Y-10760000D02*
X10972000Y-10760000D01*
X10922000Y-10964000D02*
X10922000Y-11064000D01*
X10872000Y-11014000D02*
X10972000Y-11014000D01*
X11425000Y-11850000D02*
X11425000Y-11950000D01*
X11375000Y-11900000D02*
X11475000Y-11900000D01*
X11425000Y-12100000D02*
X11425000Y-12200000D01*
X11375000Y-12150000D02*
X11475000Y-12150000D01*
X11425000Y-12350000D02*
X11425000Y-12450000D01*
X11375000Y-12400000D02*
X11475000Y-12400000D01*
X12700000Y-6138000D02*
X12700000Y-6238000D01*
X12650000Y-6188000D02*
X12750000Y-6188000D01*
X12700000Y-6392000D02*
X12700000Y-6492000D01*
X12650000Y-6442000D02*
X12750000Y-6442000D01*
X12700000Y-6646000D02*
X12700000Y-6746000D01*
X12650000Y-6696000D02*
X12750000Y-6696000D01*
X12700000Y-6900000D02*
X12700000Y-7000000D01*
X12650000Y-6950000D02*
X12750000Y-6950000D01*
X12700000Y-7154000D02*
X12700000Y-7254000D01*
X12650000Y-7204000D02*
X12750000Y-7204000D01*
X12700000Y-7408000D02*
X12700000Y-7508000D01*
X12650000Y-7458000D02*
X12750000Y-7458000D01*
X12700000Y-7662000D02*
X12700000Y-7762000D01*
X12650000Y-7712000D02*
X12750000Y-7712000D01*
X12700000Y-7916000D02*
X12700000Y-8016000D01*
X12650000Y-7966000D02*
X12750000Y-7966000D01*
X12700000Y-8170000D02*
X12700000Y-8270000D01*
X12650000Y-8220000D02*
X12750000Y-8220000D01*
X12700000Y-8424000D02*
X12700000Y-8524000D01*
X12650000Y-8474000D02*
X12750000Y-8474000D01*
X12700000Y-8678000D02*
X12700000Y-8778000D01*
X12650000Y-8728000D02*
X12750000Y-8728000D01*
X12700000Y-8932000D02*
X12700000Y-9032000D01*
X12650000Y-8982000D02*
X12750000Y-8982000D01*
X12700000Y-9186000D02*
X12700000Y-9286000D01*
X12650000Y-9236000D02*
X12750000Y-9236000D01*
X12700000Y-9440000D02*
X12700000Y-9540000D01*
X12650000Y-9490000D02*
X12750000Y-9490000D01*
X12700000Y-9694000D02*
X12700000Y-9794000D01*
X12650000Y-9744000D02*
X12750000Y-9744000D01*
X12700000Y-9948000D02*
X12700000Y-10048000D01*
X12650000Y-9998000D02*
X12750000Y-9998000D01*
X12700000Y-10202000D02*
X12700000Y-10302000D01*
X12650000Y-10252000D02*
X12750000Y-10252000D01*
X12700000Y-10456000D02*
X12700000Y-10556000D01*
X12650000Y-10506000D02*
X12750000Y-10506000D01*
X12700000Y-10710000D02*
X12700000Y-10810000D01*
X12650000Y-10760000D02*
X12750000Y-10760000D01*
X12700000Y-10964000D02*
X12700000Y-11064000D01*
X12650000Y-11014000D02*
X12750000Y-11014000D01*
X12875000Y-11850000D02*
X12875000Y-11950000D01*
X12825000Y-11900000D02*
X12925000Y-11900000D01*
X12875000Y-12350000D02*
X12875000Y-12450000D01*
X12825000Y-12400000D02*
X12925000Y-12400000D01*
D13*
X12228033Y-11643033D02*
X12228033Y-11536966D01*
X12121966Y-11536966D01*
X12121966Y-11643033D01*
X12228033Y-11643033D01*
D12*
X12110000Y-11665000D02*
X12240000Y-11665000D01*
X12240000Y-11515000D02*
G75*
G02*
X12240000Y-11665000I0J-75000D01*
G01*
X12240000Y-11515000D02*
X12110000Y-11515000D01*
X12110000Y-11515000D02*
G75*
G03*
X12110000Y-11665000I0J-75000D01*
G01*
D13*
X12228033Y-12763033D02*
X12228033Y-12656966D01*
X12121966Y-12656966D01*
X12121966Y-12763033D01*
X12228033Y-12763033D01*
D12*
X12110000Y-12785000D02*
X12240000Y-12785000D01*
X12240000Y-12635000D02*
G75*
G02*
X12240000Y-12785000I0J-75000D01*
G01*
X12240000Y-12635000D02*
X12110000Y-12635000D01*
X12110000Y-12635000D02*
G75*
G03*
X12110000Y-12785000I0J-75000D01*
G01*
D13*
X14454033Y-7450533D02*
X14454033Y-7344466D01*
X14347966Y-7344466D01*
X14347966Y-7450533D01*
X14454033Y-7450533D01*
X14456033Y-9369534D02*
X14456033Y-9263467D01*
X14349966Y-9263467D01*
X14349966Y-9369534D01*
X14456033Y-9369534D01*
X14456033Y-11289533D02*
X14456033Y-11183467D01*
X14349966Y-11183467D01*
X14349966Y-11289533D01*
X14456033Y-11289533D01*
X14708033Y-6815533D02*
X14708033Y-6709466D01*
X14601966Y-6709466D01*
X14601966Y-6815533D01*
X14708033Y-6815533D01*
X14710033Y-8734534D02*
X14710033Y-8628467D01*
X14603966Y-8628467D01*
X14603966Y-8734534D01*
X14710033Y-8734534D01*
X14710033Y-10654534D02*
X14710033Y-10548467D01*
X14603966Y-10548467D01*
X14603966Y-10654534D01*
X14710033Y-10654534D01*
X16374033Y-7449533D02*
X16374033Y-7343466D01*
X16267966Y-7343466D01*
X16267966Y-7449533D01*
X16374033Y-7449533D01*
X16375033Y-9369534D02*
X16375033Y-9263467D01*
X16268966Y-9263467D01*
X16268966Y-9369534D01*
X16375033Y-9369534D01*
X16376033Y-11290533D02*
X16376033Y-11184467D01*
X16269966Y-11184467D01*
X16269966Y-11290533D01*
X16376033Y-11290533D01*
X16628033Y-6814533D02*
X16628033Y-6708466D01*
X16521966Y-6708466D01*
X16521966Y-6814533D01*
X16628033Y-6814533D01*
X16629033Y-8734534D02*
X16629033Y-8628467D01*
X16522966Y-8628467D01*
X16522966Y-8734534D01*
X16629033Y-8734534D01*
X16630033Y-10655534D02*
X16630033Y-10549467D01*
X16523966Y-10549467D01*
X16523966Y-10655534D01*
X16630033Y-10655534D01*
X18294034Y-7450033D02*
X18294034Y-7343966D01*
X18187967Y-7343966D01*
X18187967Y-7450033D01*
X18294034Y-7450033D01*
X18295034Y-9370534D02*
X18295034Y-9264467D01*
X18188967Y-9264467D01*
X18188967Y-9370534D01*
X18295034Y-9370534D01*
X18296034Y-11291533D02*
X18296034Y-11185466D01*
X18189967Y-11185466D01*
X18189967Y-11291533D01*
X18296034Y-11291533D01*
X18548034Y-6815033D02*
X18548034Y-6708966D01*
X18441967Y-6708966D01*
X18441967Y-6815033D01*
X18548034Y-6815033D01*
X18549034Y-8735534D02*
X18549034Y-8629467D01*
X18442967Y-8629467D01*
X18442967Y-8735534D01*
X18549034Y-8735534D01*
X18550034Y-10656534D02*
X18550034Y-10550467D01*
X18443967Y-10550467D01*
X18443967Y-10656534D01*
X18550034Y-10656534D01*
D11*
X10608277Y-13263984D02*
X10608277Y-13063984D01*
X10608277Y-13063984D02*
X10655896Y-13063984D01*
X10655896Y-13063984D02*
X10684467Y-13073508D01*
X10684467Y-13073508D02*
X10703515Y-13092555D01*
X10703515Y-13092555D02*
X10713039Y-13111603D01*
X10713039Y-13111603D02*
X10722563Y-13149698D01*
X10722563Y-13149698D02*
X10722563Y-13178269D01*
X10722563Y-13178269D02*
X10713039Y-13216365D01*
X10713039Y-13216365D02*
X10703515Y-13235412D01*
X10703515Y-13235412D02*
X10684467Y-13254460D01*
X10684467Y-13254460D02*
X10655896Y-13263984D01*
X10655896Y-13263984D02*
X10608277Y-13263984D01*
X10808277Y-13263984D02*
X10808277Y-13130650D01*
X10808277Y-13168746D02*
X10817801Y-13149698D01*
X10817801Y-13149698D02*
X10827324Y-13140174D01*
X10827324Y-13140174D02*
X10846372Y-13130650D01*
X10846372Y-13130650D02*
X10865420Y-13130650D01*
X10932086Y-13263984D02*
X10932086Y-13130650D01*
X10932086Y-13063984D02*
X10922563Y-13073508D01*
X10922563Y-13073508D02*
X10932086Y-13083031D01*
X10932086Y-13083031D02*
X10941610Y-13073508D01*
X10941610Y-13073508D02*
X10932086Y-13063984D01*
X10932086Y-13063984D02*
X10932086Y-13083031D01*
X11055896Y-13263984D02*
X11036848Y-13254460D01*
X11036848Y-13254460D02*
X11027324Y-13235412D01*
X11027324Y-13235412D02*
X11027324Y-13063984D01*
X11160658Y-13263984D02*
X11141610Y-13254460D01*
X11141610Y-13254460D02*
X11132086Y-13235412D01*
X11132086Y-13235412D02*
X11132086Y-13063984D01*
X11389229Y-13263984D02*
X11389229Y-13063984D01*
X11389229Y-13063984D02*
X11455896Y-13206841D01*
X11455896Y-13206841D02*
X11522562Y-13063984D01*
X11522562Y-13063984D02*
X11522562Y-13263984D01*
X11703515Y-13263984D02*
X11703515Y-13159222D01*
X11703515Y-13159222D02*
X11693991Y-13140174D01*
X11693991Y-13140174D02*
X11674943Y-13130650D01*
X11674943Y-13130650D02*
X11636848Y-13130650D01*
X11636848Y-13130650D02*
X11617801Y-13140174D01*
X11703515Y-13254460D02*
X11684467Y-13263984D01*
X11684467Y-13263984D02*
X11636848Y-13263984D01*
X11636848Y-13263984D02*
X11617801Y-13254460D01*
X11617801Y-13254460D02*
X11608277Y-13235412D01*
X11608277Y-13235412D02*
X11608277Y-13216365D01*
X11608277Y-13216365D02*
X11617801Y-13197317D01*
X11617801Y-13197317D02*
X11636848Y-13187793D01*
X11636848Y-13187793D02*
X11684467Y-13187793D01*
X11684467Y-13187793D02*
X11703515Y-13178269D01*
X11798753Y-13130650D02*
X11798753Y-13330650D01*
X11798753Y-13140174D02*
X11817801Y-13130650D01*
X11817801Y-13130650D02*
X11855896Y-13130650D01*
X11855896Y-13130650D02*
X11874943Y-13140174D01*
X11874943Y-13140174D02*
X11884467Y-13149698D01*
X11884467Y-13149698D02*
X11893991Y-13168746D01*
X11893991Y-13168746D02*
X11893991Y-13225888D01*
X11893991Y-13225888D02*
X11884467Y-13244936D01*
X11884467Y-13244936D02*
X11874943Y-13254460D01*
X11874943Y-13254460D02*
X11855896Y-13263984D01*
X11855896Y-13263984D02*
X11817801Y-13263984D01*
X11817801Y-13263984D02*
X11798753Y-13254460D01*
X11979705Y-13244936D02*
X11989229Y-13254460D01*
X11989229Y-13254460D02*
X11979705Y-13263984D01*
X11979705Y-13263984D02*
X11970182Y-13254460D01*
X11970182Y-13254460D02*
X11979705Y-13244936D01*
X11979705Y-13244936D02*
X11979705Y-13263984D01*
X11979705Y-13140174D02*
X11989229Y-13149698D01*
X11989229Y-13149698D02*
X11979705Y-13159222D01*
X11979705Y-13159222D02*
X11970182Y-13149698D01*
X11970182Y-13149698D02*
X11979705Y-13140174D01*
X11979705Y-13140174D02*
X11979705Y-13159222D01*
D12*
X10317500Y-13577500D02*
X10347500Y-13607500D01*
X10347500Y-13577500D02*
X10317500Y-13607500D01*
D11*
X10646372Y-13483984D02*
X10665420Y-13483984D01*
X10665420Y-13483984D02*
X10684467Y-13493508D01*
X10684467Y-13493508D02*
X10693991Y-13503031D01*
X10693991Y-13503031D02*
X10703515Y-13522079D01*
X10703515Y-13522079D02*
X10713039Y-13560174D01*
X10713039Y-13560174D02*
X10713039Y-13607793D01*
X10713039Y-13607793D02*
X10703515Y-13645888D01*
X10703515Y-13645888D02*
X10693991Y-13664936D01*
X10693991Y-13664936D02*
X10684467Y-13674460D01*
X10684467Y-13674460D02*
X10665420Y-13683984D01*
X10665420Y-13683984D02*
X10646372Y-13683984D01*
X10646372Y-13683984D02*
X10627324Y-13674460D01*
X10627324Y-13674460D02*
X10617801Y-13664936D01*
X10617801Y-13664936D02*
X10608277Y-13645888D01*
X10608277Y-13645888D02*
X10598753Y-13607793D01*
X10598753Y-13607793D02*
X10598753Y-13560174D01*
X10598753Y-13560174D02*
X10608277Y-13522079D01*
X10608277Y-13522079D02*
X10617801Y-13503031D01*
X10617801Y-13503031D02*
X10627324Y-13493508D01*
X10627324Y-13493508D02*
X10646372Y-13483984D01*
X10798753Y-13664936D02*
X10808277Y-13674460D01*
X10808277Y-13674460D02*
X10798753Y-13683984D01*
X10798753Y-13683984D02*
X10789229Y-13674460D01*
X10789229Y-13674460D02*
X10798753Y-13664936D01*
X10798753Y-13664936D02*
X10798753Y-13683984D01*
X10874944Y-13483984D02*
X10998753Y-13483984D01*
X10998753Y-13483984D02*
X10932086Y-13560174D01*
X10932086Y-13560174D02*
X10960658Y-13560174D01*
X10960658Y-13560174D02*
X10979705Y-13569698D01*
X10979705Y-13569698D02*
X10989229Y-13579222D01*
X10989229Y-13579222D02*
X10998753Y-13598269D01*
X10998753Y-13598269D02*
X10998753Y-13645888D01*
X10998753Y-13645888D02*
X10989229Y-13664936D01*
X10989229Y-13664936D02*
X10979705Y-13674460D01*
X10979705Y-13674460D02*
X10960658Y-13683984D01*
X10960658Y-13683984D02*
X10903515Y-13683984D01*
X10903515Y-13683984D02*
X10884467Y-13674460D01*
X10884467Y-13674460D02*
X10874944Y-13664936D01*
X11122563Y-13483984D02*
X11141610Y-13483984D01*
X11141610Y-13483984D02*
X11160658Y-13493508D01*
X11160658Y-13493508D02*
X11170182Y-13503031D01*
X11170182Y-13503031D02*
X11179705Y-13522079D01*
X11179705Y-13522079D02*
X11189229Y-13560174D01*
X11189229Y-13560174D02*
X11189229Y-13607793D01*
X11189229Y-13607793D02*
X11179705Y-13645888D01*
X11179705Y-13645888D02*
X11170182Y-13664936D01*
X11170182Y-13664936D02*
X11160658Y-13674460D01*
X11160658Y-13674460D02*
X11141610Y-13683984D01*
X11141610Y-13683984D02*
X11122563Y-13683984D01*
X11122563Y-13683984D02*
X11103515Y-13674460D01*
X11103515Y-13674460D02*
X11093991Y-13664936D01*
X11093991Y-13664936D02*
X11084467Y-13645888D01*
X11084467Y-13645888D02*
X11074944Y-13607793D01*
X11074944Y-13607793D02*
X11074944Y-13560174D01*
X11074944Y-13560174D02*
X11084467Y-13522079D01*
X11084467Y-13522079D02*
X11093991Y-13503031D01*
X11093991Y-13503031D02*
X11103515Y-13493508D01*
X11103515Y-13493508D02*
X11122563Y-13483984D01*
X11313039Y-13483984D02*
X11332086Y-13483984D01*
X11332086Y-13483984D02*
X11351134Y-13493508D01*
X11351134Y-13493508D02*
X11360658Y-13503031D01*
X11360658Y-13503031D02*
X11370182Y-13522079D01*
X11370182Y-13522079D02*
X11379705Y-13560174D01*
X11379705Y-13560174D02*
X11379705Y-13607793D01*
X11379705Y-13607793D02*
X11370182Y-13645888D01*
X11370182Y-13645888D02*
X11360658Y-13664936D01*
X11360658Y-13664936D02*
X11351134Y-13674460D01*
X11351134Y-13674460D02*
X11332086Y-13683984D01*
X11332086Y-13683984D02*
X11313039Y-13683984D01*
X11313039Y-13683984D02*
X11293991Y-13674460D01*
X11293991Y-13674460D02*
X11284467Y-13664936D01*
X11284467Y-13664936D02*
X11274943Y-13645888D01*
X11274943Y-13645888D02*
X11265420Y-13607793D01*
X11265420Y-13607793D02*
X11265420Y-13560174D01*
X11265420Y-13560174D02*
X11274943Y-13522079D01*
X11274943Y-13522079D02*
X11284467Y-13503031D01*
X11284467Y-13503031D02*
X11293991Y-13493508D01*
X11293991Y-13493508D02*
X11313039Y-13483984D01*
X11465420Y-13683984D02*
X11465420Y-13550650D01*
X11465420Y-13569698D02*
X11474943Y-13560174D01*
X11474943Y-13560174D02*
X11493991Y-13550650D01*
X11493991Y-13550650D02*
X11522563Y-13550650D01*
X11522563Y-13550650D02*
X11541610Y-13560174D01*
X11541610Y-13560174D02*
X11551134Y-13579222D01*
X11551134Y-13579222D02*
X11551134Y-13683984D01*
X11551134Y-13579222D02*
X11560658Y-13560174D01*
X11560658Y-13560174D02*
X11579705Y-13550650D01*
X11579705Y-13550650D02*
X11608277Y-13550650D01*
X11608277Y-13550650D02*
X11627324Y-13560174D01*
X11627324Y-13560174D02*
X11636848Y-13579222D01*
X11636848Y-13579222D02*
X11636848Y-13683984D01*
X11732086Y-13683984D02*
X11732086Y-13550650D01*
X11732086Y-13569698D02*
X11741610Y-13560174D01*
X11741610Y-13560174D02*
X11760658Y-13550650D01*
X11760658Y-13550650D02*
X11789229Y-13550650D01*
X11789229Y-13550650D02*
X11808277Y-13560174D01*
X11808277Y-13560174D02*
X11817801Y-13579222D01*
X11817801Y-13579222D02*
X11817801Y-13683984D01*
X11817801Y-13579222D02*
X11827324Y-13560174D01*
X11827324Y-13560174D02*
X11846372Y-13550650D01*
X11846372Y-13550650D02*
X11874943Y-13550650D01*
X11874943Y-13550650D02*
X11893991Y-13560174D01*
X11893991Y-13560174D02*
X11903515Y-13579222D01*
X11903515Y-13579222D02*
X11903515Y-13683984D01*
X12293991Y-13474460D02*
X12122563Y-13731603D01*
X12551134Y-13483984D02*
X12570182Y-13483984D01*
X12570182Y-13483984D02*
X12589229Y-13493508D01*
X12589229Y-13493508D02*
X12598753Y-13503031D01*
X12598753Y-13503031D02*
X12608277Y-13522079D01*
X12608277Y-13522079D02*
X12617801Y-13560174D01*
X12617801Y-13560174D02*
X12617801Y-13607793D01*
X12617801Y-13607793D02*
X12608277Y-13645888D01*
X12608277Y-13645888D02*
X12598753Y-13664936D01*
X12598753Y-13664936D02*
X12589229Y-13674460D01*
X12589229Y-13674460D02*
X12570182Y-13683984D01*
X12570182Y-13683984D02*
X12551134Y-13683984D01*
X12551134Y-13683984D02*
X12532086Y-13674460D01*
X12532086Y-13674460D02*
X12522563Y-13664936D01*
X12522563Y-13664936D02*
X12513039Y-13645888D01*
X12513039Y-13645888D02*
X12503515Y-13607793D01*
X12503515Y-13607793D02*
X12503515Y-13560174D01*
X12503515Y-13560174D02*
X12513039Y-13522079D01*
X12513039Y-13522079D02*
X12522563Y-13503031D01*
X12522563Y-13503031D02*
X12532086Y-13493508D01*
X12532086Y-13493508D02*
X12551134Y-13483984D01*
X12703515Y-13664936D02*
X12713039Y-13674460D01*
X12713039Y-13674460D02*
X12703515Y-13683984D01*
X12703515Y-13683984D02*
X12693991Y-13674460D01*
X12693991Y-13674460D02*
X12703515Y-13664936D01*
X12703515Y-13664936D02*
X12703515Y-13683984D01*
X12836848Y-13483984D02*
X12855896Y-13483984D01*
X12855896Y-13483984D02*
X12874944Y-13493508D01*
X12874944Y-13493508D02*
X12884467Y-13503031D01*
X12884467Y-13503031D02*
X12893991Y-13522079D01*
X12893991Y-13522079D02*
X12903515Y-13560174D01*
X12903515Y-13560174D02*
X12903515Y-13607793D01*
X12903515Y-13607793D02*
X12893991Y-13645888D01*
X12893991Y-13645888D02*
X12884467Y-13664936D01*
X12884467Y-13664936D02*
X12874944Y-13674460D01*
X12874944Y-13674460D02*
X12855896Y-13683984D01*
X12855896Y-13683984D02*
X12836848Y-13683984D01*
X12836848Y-13683984D02*
X12817801Y-13674460D01*
X12817801Y-13674460D02*
X12808277Y-13664936D01*
X12808277Y-13664936D02*
X12798753Y-13645888D01*
X12798753Y-13645888D02*
X12789229Y-13607793D01*
X12789229Y-13607793D02*
X12789229Y-13560174D01*
X12789229Y-13560174D02*
X12798753Y-13522079D01*
X12798753Y-13522079D02*
X12808277Y-13503031D01*
X12808277Y-13503031D02*
X12817801Y-13493508D01*
X12817801Y-13493508D02*
X12836848Y-13483984D01*
X13093991Y-13683984D02*
X12979706Y-13683984D01*
X13036848Y-13683984D02*
X13036848Y-13483984D01*
X13036848Y-13483984D02*
X13017801Y-13512555D01*
X13017801Y-13512555D02*
X12998753Y-13531603D01*
X12998753Y-13531603D02*
X12979706Y-13541127D01*
X13284467Y-13683984D02*
X13170182Y-13683984D01*
X13227325Y-13683984D02*
X13227325Y-13483984D01*
X13227325Y-13483984D02*
X13208277Y-13512555D01*
X13208277Y-13512555D02*
X13189229Y-13531603D01*
X13189229Y-13531603D02*
X13170182Y-13541127D01*
X13398753Y-13569698D02*
X13379706Y-13560174D01*
X13379706Y-13560174D02*
X13370182Y-13550650D01*
X13370182Y-13550650D02*
X13360658Y-13531603D01*
X13360658Y-13531603D02*
X13360658Y-13522079D01*
X13360658Y-13522079D02*
X13370182Y-13503031D01*
X13370182Y-13503031D02*
X13379706Y-13493508D01*
X13379706Y-13493508D02*
X13398753Y-13483984D01*
X13398753Y-13483984D02*
X13436848Y-13483984D01*
X13436848Y-13483984D02*
X13455896Y-13493508D01*
X13455896Y-13493508D02*
X13465420Y-13503031D01*
X13465420Y-13503031D02*
X13474944Y-13522079D01*
X13474944Y-13522079D02*
X13474944Y-13531603D01*
X13474944Y-13531603D02*
X13465420Y-13550650D01*
X13465420Y-13550650D02*
X13455896Y-13560174D01*
X13455896Y-13560174D02*
X13436848Y-13569698D01*
X13436848Y-13569698D02*
X13398753Y-13569698D01*
X13398753Y-13569698D02*
X13379706Y-13579222D01*
X13379706Y-13579222D02*
X13370182Y-13588746D01*
X13370182Y-13588746D02*
X13360658Y-13607793D01*
X13360658Y-13607793D02*
X13360658Y-13645888D01*
X13360658Y-13645888D02*
X13370182Y-13664936D01*
X13370182Y-13664936D02*
X13379706Y-13674460D01*
X13379706Y-13674460D02*
X13398753Y-13683984D01*
X13398753Y-13683984D02*
X13436848Y-13683984D01*
X13436848Y-13683984D02*
X13455896Y-13674460D01*
X13455896Y-13674460D02*
X13465420Y-13664936D01*
X13465420Y-13664936D02*
X13474944Y-13645888D01*
X13474944Y-13645888D02*
X13474944Y-13607793D01*
X13474944Y-13607793D02*
X13465420Y-13588746D01*
X13465420Y-13588746D02*
X13455896Y-13579222D01*
X13455896Y-13579222D02*
X13436848Y-13569698D01*
X13551134Y-13483984D02*
X13551134Y-13522079D01*
X13627325Y-13483984D02*
X13627325Y-13522079D01*
X13922563Y-13760174D02*
X13913039Y-13750650D01*
X13913039Y-13750650D02*
X13893991Y-13722079D01*
X13893991Y-13722079D02*
X13884468Y-13703031D01*
X13884468Y-13703031D02*
X13874944Y-13674460D01*
X13874944Y-13674460D02*
X13865420Y-13626841D01*
X13865420Y-13626841D02*
X13865420Y-13588746D01*
X13865420Y-13588746D02*
X13874944Y-13541127D01*
X13874944Y-13541127D02*
X13884468Y-13512555D01*
X13884468Y-13512555D02*
X13893991Y-13493508D01*
X13893991Y-13493508D02*
X13913039Y-13464936D01*
X13913039Y-13464936D02*
X13922563Y-13455412D01*
X14084468Y-13483984D02*
X14046372Y-13483984D01*
X14046372Y-13483984D02*
X14027325Y-13493508D01*
X14027325Y-13493508D02*
X14017801Y-13503031D01*
X14017801Y-13503031D02*
X13998753Y-13531603D01*
X13998753Y-13531603D02*
X13989229Y-13569698D01*
X13989229Y-13569698D02*
X13989229Y-13645888D01*
X13989229Y-13645888D02*
X13998753Y-13664936D01*
X13998753Y-13664936D02*
X14008277Y-13674460D01*
X14008277Y-13674460D02*
X14027325Y-13683984D01*
X14027325Y-13683984D02*
X14065420Y-13683984D01*
X14065420Y-13683984D02*
X14084468Y-13674460D01*
X14084468Y-13674460D02*
X14093991Y-13664936D01*
X14093991Y-13664936D02*
X14103515Y-13645888D01*
X14103515Y-13645888D02*
X14103515Y-13598269D01*
X14103515Y-13598269D02*
X14093991Y-13579222D01*
X14093991Y-13579222D02*
X14084468Y-13569698D01*
X14084468Y-13569698D02*
X14065420Y-13560174D01*
X14065420Y-13560174D02*
X14027325Y-13560174D01*
X14027325Y-13560174D02*
X14008277Y-13569698D01*
X14008277Y-13569698D02*
X13998753Y-13579222D01*
X13998753Y-13579222D02*
X13989229Y-13598269D01*
X14341610Y-13683984D02*
X14341610Y-13483984D01*
X14427325Y-13683984D02*
X14427325Y-13579222D01*
X14427325Y-13579222D02*
X14417801Y-13560174D01*
X14417801Y-13560174D02*
X14398753Y-13550650D01*
X14398753Y-13550650D02*
X14370182Y-13550650D01*
X14370182Y-13550650D02*
X14351134Y-13560174D01*
X14351134Y-13560174D02*
X14341610Y-13569698D01*
X14551134Y-13683984D02*
X14532087Y-13674460D01*
X14532087Y-13674460D02*
X14522563Y-13664936D01*
X14522563Y-13664936D02*
X14513039Y-13645888D01*
X14513039Y-13645888D02*
X14513039Y-13588746D01*
X14513039Y-13588746D02*
X14522563Y-13569698D01*
X14522563Y-13569698D02*
X14532087Y-13560174D01*
X14532087Y-13560174D02*
X14551134Y-13550650D01*
X14551134Y-13550650D02*
X14579706Y-13550650D01*
X14579706Y-13550650D02*
X14598753Y-13560174D01*
X14598753Y-13560174D02*
X14608277Y-13569698D01*
X14608277Y-13569698D02*
X14617801Y-13588746D01*
X14617801Y-13588746D02*
X14617801Y-13645888D01*
X14617801Y-13645888D02*
X14608277Y-13664936D01*
X14608277Y-13664936D02*
X14598753Y-13674460D01*
X14598753Y-13674460D02*
X14579706Y-13683984D01*
X14579706Y-13683984D02*
X14551134Y-13683984D01*
X14732087Y-13683984D02*
X14713039Y-13674460D01*
X14713039Y-13674460D02*
X14703515Y-13655412D01*
X14703515Y-13655412D02*
X14703515Y-13483984D01*
X14884468Y-13674460D02*
X14865420Y-13683984D01*
X14865420Y-13683984D02*
X14827325Y-13683984D01*
X14827325Y-13683984D02*
X14808277Y-13674460D01*
X14808277Y-13674460D02*
X14798753Y-13655412D01*
X14798753Y-13655412D02*
X14798753Y-13579222D01*
X14798753Y-13579222D02*
X14808277Y-13560174D01*
X14808277Y-13560174D02*
X14827325Y-13550650D01*
X14827325Y-13550650D02*
X14865420Y-13550650D01*
X14865420Y-13550650D02*
X14884468Y-13560174D01*
X14884468Y-13560174D02*
X14893991Y-13579222D01*
X14893991Y-13579222D02*
X14893991Y-13598269D01*
X14893991Y-13598269D02*
X14798753Y-13617317D01*
X14970182Y-13674460D02*
X14989230Y-13683984D01*
X14989230Y-13683984D02*
X15027325Y-13683984D01*
X15027325Y-13683984D02*
X15046372Y-13674460D01*
X15046372Y-13674460D02*
X15055896Y-13655412D01*
X15055896Y-13655412D02*
X15055896Y-13645888D01*
X15055896Y-13645888D02*
X15046372Y-13626841D01*
X15046372Y-13626841D02*
X15027325Y-13617317D01*
X15027325Y-13617317D02*
X14998753Y-13617317D01*
X14998753Y-13617317D02*
X14979706Y-13607793D01*
X14979706Y-13607793D02*
X14970182Y-13588746D01*
X14970182Y-13588746D02*
X14970182Y-13579222D01*
X14970182Y-13579222D02*
X14979706Y-13560174D01*
X14979706Y-13560174D02*
X14998753Y-13550650D01*
X14998753Y-13550650D02*
X15027325Y-13550650D01*
X15027325Y-13550650D02*
X15046372Y-13560174D01*
X15122563Y-13760174D02*
X15132087Y-13750650D01*
X15132087Y-13750650D02*
X15151134Y-13722079D01*
X15151134Y-13722079D02*
X15160658Y-13703031D01*
X15160658Y-13703031D02*
X15170182Y-13674460D01*
X15170182Y-13674460D02*
X15179706Y-13626841D01*
X15179706Y-13626841D02*
X15179706Y-13588746D01*
X15179706Y-13588746D02*
X15170182Y-13541127D01*
X15170182Y-13541127D02*
X15160658Y-13512555D01*
X15160658Y-13512555D02*
X15151134Y-13493508D01*
X15151134Y-13493508D02*
X15132087Y-13464936D01*
X15132087Y-13464936D02*
X15122563Y-13455412D01*
D12*
X10347500Y-13856500D02*
G75*
G02*
X10267500Y-13856500I-40000J0D01*
G01*
X10267500Y-13856500D02*
G75*
G02*
X10347500Y-13856500I40000J0D01*
G01*
D11*
X10646372Y-13747984D02*
X10665420Y-13747984D01*
X10665420Y-13747984D02*
X10684467Y-13757508D01*
X10684467Y-13757508D02*
X10693991Y-13767031D01*
X10693991Y-13767031D02*
X10703515Y-13786079D01*
X10703515Y-13786079D02*
X10713039Y-13824174D01*
X10713039Y-13824174D02*
X10713039Y-13871793D01*
X10713039Y-13871793D02*
X10703515Y-13909888D01*
X10703515Y-13909888D02*
X10693991Y-13928936D01*
X10693991Y-13928936D02*
X10684467Y-13938460D01*
X10684467Y-13938460D02*
X10665420Y-13947984D01*
X10665420Y-13947984D02*
X10646372Y-13947984D01*
X10646372Y-13947984D02*
X10627324Y-13938460D01*
X10627324Y-13938460D02*
X10617801Y-13928936D01*
X10617801Y-13928936D02*
X10608277Y-13909888D01*
X10608277Y-13909888D02*
X10598753Y-13871793D01*
X10598753Y-13871793D02*
X10598753Y-13824174D01*
X10598753Y-13824174D02*
X10608277Y-13786079D01*
X10608277Y-13786079D02*
X10617801Y-13767031D01*
X10617801Y-13767031D02*
X10627324Y-13757508D01*
X10627324Y-13757508D02*
X10646372Y-13747984D01*
X10798753Y-13928936D02*
X10808277Y-13938460D01*
X10808277Y-13938460D02*
X10798753Y-13947984D01*
X10798753Y-13947984D02*
X10789229Y-13938460D01*
X10789229Y-13938460D02*
X10798753Y-13928936D01*
X10798753Y-13928936D02*
X10798753Y-13947984D01*
X10922563Y-13833698D02*
X10903515Y-13824174D01*
X10903515Y-13824174D02*
X10893991Y-13814650D01*
X10893991Y-13814650D02*
X10884467Y-13795603D01*
X10884467Y-13795603D02*
X10884467Y-13786079D01*
X10884467Y-13786079D02*
X10893991Y-13767031D01*
X10893991Y-13767031D02*
X10903515Y-13757508D01*
X10903515Y-13757508D02*
X10922563Y-13747984D01*
X10922563Y-13747984D02*
X10960658Y-13747984D01*
X10960658Y-13747984D02*
X10979705Y-13757508D01*
X10979705Y-13757508D02*
X10989229Y-13767031D01*
X10989229Y-13767031D02*
X10998753Y-13786079D01*
X10998753Y-13786079D02*
X10998753Y-13795603D01*
X10998753Y-13795603D02*
X10989229Y-13814650D01*
X10989229Y-13814650D02*
X10979705Y-13824174D01*
X10979705Y-13824174D02*
X10960658Y-13833698D01*
X10960658Y-13833698D02*
X10922563Y-13833698D01*
X10922563Y-13833698D02*
X10903515Y-13843222D01*
X10903515Y-13843222D02*
X10893991Y-13852746D01*
X10893991Y-13852746D02*
X10884467Y-13871793D01*
X10884467Y-13871793D02*
X10884467Y-13909888D01*
X10884467Y-13909888D02*
X10893991Y-13928936D01*
X10893991Y-13928936D02*
X10903515Y-13938460D01*
X10903515Y-13938460D02*
X10922563Y-13947984D01*
X10922563Y-13947984D02*
X10960658Y-13947984D01*
X10960658Y-13947984D02*
X10979705Y-13938460D01*
X10979705Y-13938460D02*
X10989229Y-13928936D01*
X10989229Y-13928936D02*
X10998753Y-13909888D01*
X10998753Y-13909888D02*
X10998753Y-13871793D01*
X10998753Y-13871793D02*
X10989229Y-13852746D01*
X10989229Y-13852746D02*
X10979705Y-13843222D01*
X10979705Y-13843222D02*
X10960658Y-13833698D01*
X11122563Y-13747984D02*
X11141610Y-13747984D01*
X11141610Y-13747984D02*
X11160658Y-13757508D01*
X11160658Y-13757508D02*
X11170182Y-13767031D01*
X11170182Y-13767031D02*
X11179705Y-13786079D01*
X11179705Y-13786079D02*
X11189229Y-13824174D01*
X11189229Y-13824174D02*
X11189229Y-13871793D01*
X11189229Y-13871793D02*
X11179705Y-13909888D01*
X11179705Y-13909888D02*
X11170182Y-13928936D01*
X11170182Y-13928936D02*
X11160658Y-13938460D01*
X11160658Y-13938460D02*
X11141610Y-13947984D01*
X11141610Y-13947984D02*
X11122563Y-13947984D01*
X11122563Y-13947984D02*
X11103515Y-13938460D01*
X11103515Y-13938460D02*
X11093991Y-13928936D01*
X11093991Y-13928936D02*
X11084467Y-13909888D01*
X11084467Y-13909888D02*
X11074944Y-13871793D01*
X11074944Y-13871793D02*
X11074944Y-13824174D01*
X11074944Y-13824174D02*
X11084467Y-13786079D01*
X11084467Y-13786079D02*
X11093991Y-13767031D01*
X11093991Y-13767031D02*
X11103515Y-13757508D01*
X11103515Y-13757508D02*
X11122563Y-13747984D01*
X11313039Y-13747984D02*
X11332086Y-13747984D01*
X11332086Y-13747984D02*
X11351134Y-13757508D01*
X11351134Y-13757508D02*
X11360658Y-13767031D01*
X11360658Y-13767031D02*
X11370182Y-13786079D01*
X11370182Y-13786079D02*
X11379705Y-13824174D01*
X11379705Y-13824174D02*
X11379705Y-13871793D01*
X11379705Y-13871793D02*
X11370182Y-13909888D01*
X11370182Y-13909888D02*
X11360658Y-13928936D01*
X11360658Y-13928936D02*
X11351134Y-13938460D01*
X11351134Y-13938460D02*
X11332086Y-13947984D01*
X11332086Y-13947984D02*
X11313039Y-13947984D01*
X11313039Y-13947984D02*
X11293991Y-13938460D01*
X11293991Y-13938460D02*
X11284467Y-13928936D01*
X11284467Y-13928936D02*
X11274943Y-13909888D01*
X11274943Y-13909888D02*
X11265420Y-13871793D01*
X11265420Y-13871793D02*
X11265420Y-13824174D01*
X11265420Y-13824174D02*
X11274943Y-13786079D01*
X11274943Y-13786079D02*
X11284467Y-13767031D01*
X11284467Y-13767031D02*
X11293991Y-13757508D01*
X11293991Y-13757508D02*
X11313039Y-13747984D01*
X11465420Y-13947984D02*
X11465420Y-13814650D01*
X11465420Y-13833698D02*
X11474943Y-13824174D01*
X11474943Y-13824174D02*
X11493991Y-13814650D01*
X11493991Y-13814650D02*
X11522563Y-13814650D01*
X11522563Y-13814650D02*
X11541610Y-13824174D01*
X11541610Y-13824174D02*
X11551134Y-13843222D01*
X11551134Y-13843222D02*
X11551134Y-13947984D01*
X11551134Y-13843222D02*
X11560658Y-13824174D01*
X11560658Y-13824174D02*
X11579705Y-13814650D01*
X11579705Y-13814650D02*
X11608277Y-13814650D01*
X11608277Y-13814650D02*
X11627324Y-13824174D01*
X11627324Y-13824174D02*
X11636848Y-13843222D01*
X11636848Y-13843222D02*
X11636848Y-13947984D01*
X11732086Y-13947984D02*
X11732086Y-13814650D01*
X11732086Y-13833698D02*
X11741610Y-13824174D01*
X11741610Y-13824174D02*
X11760658Y-13814650D01*
X11760658Y-13814650D02*
X11789229Y-13814650D01*
X11789229Y-13814650D02*
X11808277Y-13824174D01*
X11808277Y-13824174D02*
X11817801Y-13843222D01*
X11817801Y-13843222D02*
X11817801Y-13947984D01*
X11817801Y-13843222D02*
X11827324Y-13824174D01*
X11827324Y-13824174D02*
X11846372Y-13814650D01*
X11846372Y-13814650D02*
X11874943Y-13814650D01*
X11874943Y-13814650D02*
X11893991Y-13824174D01*
X11893991Y-13824174D02*
X11903515Y-13843222D01*
X11903515Y-13843222D02*
X11903515Y-13947984D01*
X12293991Y-13738460D02*
X12122563Y-13995603D01*
X12551134Y-13747984D02*
X12570182Y-13747984D01*
X12570182Y-13747984D02*
X12589229Y-13757508D01*
X12589229Y-13757508D02*
X12598753Y-13767031D01*
X12598753Y-13767031D02*
X12608277Y-13786079D01*
X12608277Y-13786079D02*
X12617801Y-13824174D01*
X12617801Y-13824174D02*
X12617801Y-13871793D01*
X12617801Y-13871793D02*
X12608277Y-13909888D01*
X12608277Y-13909888D02*
X12598753Y-13928936D01*
X12598753Y-13928936D02*
X12589229Y-13938460D01*
X12589229Y-13938460D02*
X12570182Y-13947984D01*
X12570182Y-13947984D02*
X12551134Y-13947984D01*
X12551134Y-13947984D02*
X12532086Y-13938460D01*
X12532086Y-13938460D02*
X12522563Y-13928936D01*
X12522563Y-13928936D02*
X12513039Y-13909888D01*
X12513039Y-13909888D02*
X12503515Y-13871793D01*
X12503515Y-13871793D02*
X12503515Y-13824174D01*
X12503515Y-13824174D02*
X12513039Y-13786079D01*
X12513039Y-13786079D02*
X12522563Y-13767031D01*
X12522563Y-13767031D02*
X12532086Y-13757508D01*
X12532086Y-13757508D02*
X12551134Y-13747984D01*
X12703515Y-13928936D02*
X12713039Y-13938460D01*
X12713039Y-13938460D02*
X12703515Y-13947984D01*
X12703515Y-13947984D02*
X12693991Y-13938460D01*
X12693991Y-13938460D02*
X12703515Y-13928936D01*
X12703515Y-13928936D02*
X12703515Y-13947984D01*
X12836848Y-13747984D02*
X12855896Y-13747984D01*
X12855896Y-13747984D02*
X12874944Y-13757508D01*
X12874944Y-13757508D02*
X12884467Y-13767031D01*
X12884467Y-13767031D02*
X12893991Y-13786079D01*
X12893991Y-13786079D02*
X12903515Y-13824174D01*
X12903515Y-13824174D02*
X12903515Y-13871793D01*
X12903515Y-13871793D02*
X12893991Y-13909888D01*
X12893991Y-13909888D02*
X12884467Y-13928936D01*
X12884467Y-13928936D02*
X12874944Y-13938460D01*
X12874944Y-13938460D02*
X12855896Y-13947984D01*
X12855896Y-13947984D02*
X12836848Y-13947984D01*
X12836848Y-13947984D02*
X12817801Y-13938460D01*
X12817801Y-13938460D02*
X12808277Y-13928936D01*
X12808277Y-13928936D02*
X12798753Y-13909888D01*
X12798753Y-13909888D02*
X12789229Y-13871793D01*
X12789229Y-13871793D02*
X12789229Y-13824174D01*
X12789229Y-13824174D02*
X12798753Y-13786079D01*
X12798753Y-13786079D02*
X12808277Y-13767031D01*
X12808277Y-13767031D02*
X12817801Y-13757508D01*
X12817801Y-13757508D02*
X12836848Y-13747984D01*
X12970182Y-13747984D02*
X13093991Y-13747984D01*
X13093991Y-13747984D02*
X13027325Y-13824174D01*
X13027325Y-13824174D02*
X13055896Y-13824174D01*
X13055896Y-13824174D02*
X13074944Y-13833698D01*
X13074944Y-13833698D02*
X13084467Y-13843222D01*
X13084467Y-13843222D02*
X13093991Y-13862269D01*
X13093991Y-13862269D02*
X13093991Y-13909888D01*
X13093991Y-13909888D02*
X13084467Y-13928936D01*
X13084467Y-13928936D02*
X13074944Y-13938460D01*
X13074944Y-13938460D02*
X13055896Y-13947984D01*
X13055896Y-13947984D02*
X12998753Y-13947984D01*
X12998753Y-13947984D02*
X12979706Y-13938460D01*
X12979706Y-13938460D02*
X12970182Y-13928936D01*
X13284467Y-13947984D02*
X13170182Y-13947984D01*
X13227325Y-13947984D02*
X13227325Y-13747984D01*
X13227325Y-13747984D02*
X13208277Y-13776555D01*
X13208277Y-13776555D02*
X13189229Y-13795603D01*
X13189229Y-13795603D02*
X13170182Y-13805127D01*
X13465420Y-13747984D02*
X13370182Y-13747984D01*
X13370182Y-13747984D02*
X13360658Y-13843222D01*
X13360658Y-13843222D02*
X13370182Y-13833698D01*
X13370182Y-13833698D02*
X13389229Y-13824174D01*
X13389229Y-13824174D02*
X13436848Y-13824174D01*
X13436848Y-13824174D02*
X13455896Y-13833698D01*
X13455896Y-13833698D02*
X13465420Y-13843222D01*
X13465420Y-13843222D02*
X13474944Y-13862269D01*
X13474944Y-13862269D02*
X13474944Y-13909888D01*
X13474944Y-13909888D02*
X13465420Y-13928936D01*
X13465420Y-13928936D02*
X13455896Y-13938460D01*
X13455896Y-13938460D02*
X13436848Y-13947984D01*
X13436848Y-13947984D02*
X13389229Y-13947984D01*
X13389229Y-13947984D02*
X13370182Y-13938460D01*
X13370182Y-13938460D02*
X13360658Y-13928936D01*
X13551134Y-13747984D02*
X13551134Y-13786079D01*
X13627325Y-13747984D02*
X13627325Y-13786079D01*
X13922563Y-14024174D02*
X13913039Y-14014650D01*
X13913039Y-14014650D02*
X13893991Y-13986079D01*
X13893991Y-13986079D02*
X13884468Y-13967031D01*
X13884468Y-13967031D02*
X13874944Y-13938460D01*
X13874944Y-13938460D02*
X13865420Y-13890841D01*
X13865420Y-13890841D02*
X13865420Y-13852746D01*
X13865420Y-13852746D02*
X13874944Y-13805127D01*
X13874944Y-13805127D02*
X13884468Y-13776555D01*
X13884468Y-13776555D02*
X13893991Y-13757508D01*
X13893991Y-13757508D02*
X13913039Y-13728936D01*
X13913039Y-13728936D02*
X13922563Y-13719412D01*
X14103515Y-13947984D02*
X13989229Y-13947984D01*
X14046372Y-13947984D02*
X14046372Y-13747984D01*
X14046372Y-13747984D02*
X14027325Y-13776555D01*
X14027325Y-13776555D02*
X14008277Y-13795603D01*
X14008277Y-13795603D02*
X13989229Y-13805127D01*
X14217801Y-13833698D02*
X14198753Y-13824174D01*
X14198753Y-13824174D02*
X14189229Y-13814650D01*
X14189229Y-13814650D02*
X14179706Y-13795603D01*
X14179706Y-13795603D02*
X14179706Y-13786079D01*
X14179706Y-13786079D02*
X14189229Y-13767031D01*
X14189229Y-13767031D02*
X14198753Y-13757508D01*
X14198753Y-13757508D02*
X14217801Y-13747984D01*
X14217801Y-13747984D02*
X14255896Y-13747984D01*
X14255896Y-13747984D02*
X14274944Y-13757508D01*
X14274944Y-13757508D02*
X14284468Y-13767031D01*
X14284468Y-13767031D02*
X14293991Y-13786079D01*
X14293991Y-13786079D02*
X14293991Y-13795603D01*
X14293991Y-13795603D02*
X14284468Y-13814650D01*
X14284468Y-13814650D02*
X14274944Y-13824174D01*
X14274944Y-13824174D02*
X14255896Y-13833698D01*
X14255896Y-13833698D02*
X14217801Y-13833698D01*
X14217801Y-13833698D02*
X14198753Y-13843222D01*
X14198753Y-13843222D02*
X14189229Y-13852746D01*
X14189229Y-13852746D02*
X14179706Y-13871793D01*
X14179706Y-13871793D02*
X14179706Y-13909888D01*
X14179706Y-13909888D02*
X14189229Y-13928936D01*
X14189229Y-13928936D02*
X14198753Y-13938460D01*
X14198753Y-13938460D02*
X14217801Y-13947984D01*
X14217801Y-13947984D02*
X14255896Y-13947984D01*
X14255896Y-13947984D02*
X14274944Y-13938460D01*
X14274944Y-13938460D02*
X14284468Y-13928936D01*
X14284468Y-13928936D02*
X14293991Y-13909888D01*
X14293991Y-13909888D02*
X14293991Y-13871793D01*
X14293991Y-13871793D02*
X14284468Y-13852746D01*
X14284468Y-13852746D02*
X14274944Y-13843222D01*
X14274944Y-13843222D02*
X14255896Y-13833698D01*
X14532087Y-13947984D02*
X14532087Y-13747984D01*
X14617801Y-13947984D02*
X14617801Y-13843222D01*
X14617801Y-13843222D02*
X14608277Y-13824174D01*
X14608277Y-13824174D02*
X14589230Y-13814650D01*
X14589230Y-13814650D02*
X14560658Y-13814650D01*
X14560658Y-13814650D02*
X14541610Y-13824174D01*
X14541610Y-13824174D02*
X14532087Y-13833698D01*
X14741610Y-13947984D02*
X14722563Y-13938460D01*
X14722563Y-13938460D02*
X14713039Y-13928936D01*
X14713039Y-13928936D02*
X14703515Y-13909888D01*
X14703515Y-13909888D02*
X14703515Y-13852746D01*
X14703515Y-13852746D02*
X14713039Y-13833698D01*
X14713039Y-13833698D02*
X14722563Y-13824174D01*
X14722563Y-13824174D02*
X14741610Y-13814650D01*
X14741610Y-13814650D02*
X14770182Y-13814650D01*
X14770182Y-13814650D02*
X14789230Y-13824174D01*
X14789230Y-13824174D02*
X14798753Y-13833698D01*
X14798753Y-13833698D02*
X14808277Y-13852746D01*
X14808277Y-13852746D02*
X14808277Y-13909888D01*
X14808277Y-13909888D02*
X14798753Y-13928936D01*
X14798753Y-13928936D02*
X14789230Y-13938460D01*
X14789230Y-13938460D02*
X14770182Y-13947984D01*
X14770182Y-13947984D02*
X14741610Y-13947984D01*
X14922563Y-13947984D02*
X14903515Y-13938460D01*
X14903515Y-13938460D02*
X14893991Y-13919412D01*
X14893991Y-13919412D02*
X14893991Y-13747984D01*
X15074944Y-13938460D02*
X15055896Y-13947984D01*
X15055896Y-13947984D02*
X15017801Y-13947984D01*
X15017801Y-13947984D02*
X14998753Y-13938460D01*
X14998753Y-13938460D02*
X14989230Y-13919412D01*
X14989230Y-13919412D02*
X14989230Y-13843222D01*
X14989230Y-13843222D02*
X14998753Y-13824174D01*
X14998753Y-13824174D02*
X15017801Y-13814650D01*
X15017801Y-13814650D02*
X15055896Y-13814650D01*
X15055896Y-13814650D02*
X15074944Y-13824174D01*
X15074944Y-13824174D02*
X15084468Y-13843222D01*
X15084468Y-13843222D02*
X15084468Y-13862269D01*
X15084468Y-13862269D02*
X14989230Y-13881317D01*
X15160658Y-13938460D02*
X15179706Y-13947984D01*
X15179706Y-13947984D02*
X15217801Y-13947984D01*
X15217801Y-13947984D02*
X15236849Y-13938460D01*
X15236849Y-13938460D02*
X15246372Y-13919412D01*
X15246372Y-13919412D02*
X15246372Y-13909888D01*
X15246372Y-13909888D02*
X15236849Y-13890841D01*
X15236849Y-13890841D02*
X15217801Y-13881317D01*
X15217801Y-13881317D02*
X15189230Y-13881317D01*
X15189230Y-13881317D02*
X15170182Y-13871793D01*
X15170182Y-13871793D02*
X15160658Y-13852746D01*
X15160658Y-13852746D02*
X15160658Y-13843222D01*
X15160658Y-13843222D02*
X15170182Y-13824174D01*
X15170182Y-13824174D02*
X15189230Y-13814650D01*
X15189230Y-13814650D02*
X15217801Y-13814650D01*
X15217801Y-13814650D02*
X15236849Y-13824174D01*
X15313039Y-14024174D02*
X15322563Y-14014650D01*
X15322563Y-14014650D02*
X15341611Y-13986079D01*
X15341611Y-13986079D02*
X15351134Y-13967031D01*
X15351134Y-13967031D02*
X15360658Y-13938460D01*
X15360658Y-13938460D02*
X15370182Y-13890841D01*
X15370182Y-13890841D02*
X15370182Y-13852746D01*
X15370182Y-13852746D02*
X15360658Y-13805127D01*
X15360658Y-13805127D02*
X15351134Y-13776555D01*
X15351134Y-13776555D02*
X15341611Y-13757508D01*
X15341611Y-13757508D02*
X15322563Y-13728936D01*
X15322563Y-13728936D02*
X15313039Y-13719412D01*
D12*
X10297500Y-14070500D02*
X10297500Y-14170500D01*
X10247500Y-14120500D02*
X10347500Y-14120500D01*
D11*
X10713039Y-14211984D02*
X10598753Y-14211984D01*
X10655896Y-14211984D02*
X10655896Y-14011984D01*
X10655896Y-14011984D02*
X10636848Y-14040555D01*
X10636848Y-14040555D02*
X10617801Y-14059603D01*
X10617801Y-14059603D02*
X10598753Y-14069127D01*
X10798753Y-14192936D02*
X10808277Y-14202460D01*
X10808277Y-14202460D02*
X10798753Y-14211984D01*
X10798753Y-14211984D02*
X10789229Y-14202460D01*
X10789229Y-14202460D02*
X10798753Y-14192936D01*
X10798753Y-14192936D02*
X10798753Y-14211984D01*
X10932086Y-14011984D02*
X10951134Y-14011984D01*
X10951134Y-14011984D02*
X10970182Y-14021508D01*
X10970182Y-14021508D02*
X10979705Y-14031031D01*
X10979705Y-14031031D02*
X10989229Y-14050079D01*
X10989229Y-14050079D02*
X10998753Y-14088174D01*
X10998753Y-14088174D02*
X10998753Y-14135793D01*
X10998753Y-14135793D02*
X10989229Y-14173888D01*
X10989229Y-14173888D02*
X10979705Y-14192936D01*
X10979705Y-14192936D02*
X10970182Y-14202460D01*
X10970182Y-14202460D02*
X10951134Y-14211984D01*
X10951134Y-14211984D02*
X10932086Y-14211984D01*
X10932086Y-14211984D02*
X10913039Y-14202460D01*
X10913039Y-14202460D02*
X10903515Y-14192936D01*
X10903515Y-14192936D02*
X10893991Y-14173888D01*
X10893991Y-14173888D02*
X10884467Y-14135793D01*
X10884467Y-14135793D02*
X10884467Y-14088174D01*
X10884467Y-14088174D02*
X10893991Y-14050079D01*
X10893991Y-14050079D02*
X10903515Y-14031031D01*
X10903515Y-14031031D02*
X10913039Y-14021508D01*
X10913039Y-14021508D02*
X10932086Y-14011984D01*
X11122563Y-14011984D02*
X11141610Y-14011984D01*
X11141610Y-14011984D02*
X11160658Y-14021508D01*
X11160658Y-14021508D02*
X11170182Y-14031031D01*
X11170182Y-14031031D02*
X11179705Y-14050079D01*
X11179705Y-14050079D02*
X11189229Y-14088174D01*
X11189229Y-14088174D02*
X11189229Y-14135793D01*
X11189229Y-14135793D02*
X11179705Y-14173888D01*
X11179705Y-14173888D02*
X11170182Y-14192936D01*
X11170182Y-14192936D02*
X11160658Y-14202460D01*
X11160658Y-14202460D02*
X11141610Y-14211984D01*
X11141610Y-14211984D02*
X11122563Y-14211984D01*
X11122563Y-14211984D02*
X11103515Y-14202460D01*
X11103515Y-14202460D02*
X11093991Y-14192936D01*
X11093991Y-14192936D02*
X11084467Y-14173888D01*
X11084467Y-14173888D02*
X11074944Y-14135793D01*
X11074944Y-14135793D02*
X11074944Y-14088174D01*
X11074944Y-14088174D02*
X11084467Y-14050079D01*
X11084467Y-14050079D02*
X11093991Y-14031031D01*
X11093991Y-14031031D02*
X11103515Y-14021508D01*
X11103515Y-14021508D02*
X11122563Y-14011984D01*
X11313039Y-14011984D02*
X11332086Y-14011984D01*
X11332086Y-14011984D02*
X11351134Y-14021508D01*
X11351134Y-14021508D02*
X11360658Y-14031031D01*
X11360658Y-14031031D02*
X11370182Y-14050079D01*
X11370182Y-14050079D02*
X11379705Y-14088174D01*
X11379705Y-14088174D02*
X11379705Y-14135793D01*
X11379705Y-14135793D02*
X11370182Y-14173888D01*
X11370182Y-14173888D02*
X11360658Y-14192936D01*
X11360658Y-14192936D02*
X11351134Y-14202460D01*
X11351134Y-14202460D02*
X11332086Y-14211984D01*
X11332086Y-14211984D02*
X11313039Y-14211984D01*
X11313039Y-14211984D02*
X11293991Y-14202460D01*
X11293991Y-14202460D02*
X11284467Y-14192936D01*
X11284467Y-14192936D02*
X11274943Y-14173888D01*
X11274943Y-14173888D02*
X11265420Y-14135793D01*
X11265420Y-14135793D02*
X11265420Y-14088174D01*
X11265420Y-14088174D02*
X11274943Y-14050079D01*
X11274943Y-14050079D02*
X11284467Y-14031031D01*
X11284467Y-14031031D02*
X11293991Y-14021508D01*
X11293991Y-14021508D02*
X11313039Y-14011984D01*
X11465420Y-14211984D02*
X11465420Y-14078650D01*
X11465420Y-14097698D02*
X11474943Y-14088174D01*
X11474943Y-14088174D02*
X11493991Y-14078650D01*
X11493991Y-14078650D02*
X11522563Y-14078650D01*
X11522563Y-14078650D02*
X11541610Y-14088174D01*
X11541610Y-14088174D02*
X11551134Y-14107222D01*
X11551134Y-14107222D02*
X11551134Y-14211984D01*
X11551134Y-14107222D02*
X11560658Y-14088174D01*
X11560658Y-14088174D02*
X11579705Y-14078650D01*
X11579705Y-14078650D02*
X11608277Y-14078650D01*
X11608277Y-14078650D02*
X11627324Y-14088174D01*
X11627324Y-14088174D02*
X11636848Y-14107222D01*
X11636848Y-14107222D02*
X11636848Y-14211984D01*
X11732086Y-14211984D02*
X11732086Y-14078650D01*
X11732086Y-14097698D02*
X11741610Y-14088174D01*
X11741610Y-14088174D02*
X11760658Y-14078650D01*
X11760658Y-14078650D02*
X11789229Y-14078650D01*
X11789229Y-14078650D02*
X11808277Y-14088174D01*
X11808277Y-14088174D02*
X11817801Y-14107222D01*
X11817801Y-14107222D02*
X11817801Y-14211984D01*
X11817801Y-14107222D02*
X11827324Y-14088174D01*
X11827324Y-14088174D02*
X11846372Y-14078650D01*
X11846372Y-14078650D02*
X11874943Y-14078650D01*
X11874943Y-14078650D02*
X11893991Y-14088174D01*
X11893991Y-14088174D02*
X11903515Y-14107222D01*
X11903515Y-14107222D02*
X11903515Y-14211984D01*
X12293991Y-14002460D02*
X12122563Y-14259603D01*
X12551134Y-14011984D02*
X12570182Y-14011984D01*
X12570182Y-14011984D02*
X12589229Y-14021508D01*
X12589229Y-14021508D02*
X12598753Y-14031031D01*
X12598753Y-14031031D02*
X12608277Y-14050079D01*
X12608277Y-14050079D02*
X12617801Y-14088174D01*
X12617801Y-14088174D02*
X12617801Y-14135793D01*
X12617801Y-14135793D02*
X12608277Y-14173888D01*
X12608277Y-14173888D02*
X12598753Y-14192936D01*
X12598753Y-14192936D02*
X12589229Y-14202460D01*
X12589229Y-14202460D02*
X12570182Y-14211984D01*
X12570182Y-14211984D02*
X12551134Y-14211984D01*
X12551134Y-14211984D02*
X12532086Y-14202460D01*
X12532086Y-14202460D02*
X12522563Y-14192936D01*
X12522563Y-14192936D02*
X12513039Y-14173888D01*
X12513039Y-14173888D02*
X12503515Y-14135793D01*
X12503515Y-14135793D02*
X12503515Y-14088174D01*
X12503515Y-14088174D02*
X12513039Y-14050079D01*
X12513039Y-14050079D02*
X12522563Y-14031031D01*
X12522563Y-14031031D02*
X12532086Y-14021508D01*
X12532086Y-14021508D02*
X12551134Y-14011984D01*
X12703515Y-14192936D02*
X12713039Y-14202460D01*
X12713039Y-14202460D02*
X12703515Y-14211984D01*
X12703515Y-14211984D02*
X12693991Y-14202460D01*
X12693991Y-14202460D02*
X12703515Y-14192936D01*
X12703515Y-14192936D02*
X12703515Y-14211984D01*
X12836848Y-14011984D02*
X12855896Y-14011984D01*
X12855896Y-14011984D02*
X12874944Y-14021508D01*
X12874944Y-14021508D02*
X12884467Y-14031031D01*
X12884467Y-14031031D02*
X12893991Y-14050079D01*
X12893991Y-14050079D02*
X12903515Y-14088174D01*
X12903515Y-14088174D02*
X12903515Y-14135793D01*
X12903515Y-14135793D02*
X12893991Y-14173888D01*
X12893991Y-14173888D02*
X12884467Y-14192936D01*
X12884467Y-14192936D02*
X12874944Y-14202460D01*
X12874944Y-14202460D02*
X12855896Y-14211984D01*
X12855896Y-14211984D02*
X12836848Y-14211984D01*
X12836848Y-14211984D02*
X12817801Y-14202460D01*
X12817801Y-14202460D02*
X12808277Y-14192936D01*
X12808277Y-14192936D02*
X12798753Y-14173888D01*
X12798753Y-14173888D02*
X12789229Y-14135793D01*
X12789229Y-14135793D02*
X12789229Y-14088174D01*
X12789229Y-14088174D02*
X12798753Y-14050079D01*
X12798753Y-14050079D02*
X12808277Y-14031031D01*
X12808277Y-14031031D02*
X12817801Y-14021508D01*
X12817801Y-14021508D02*
X12836848Y-14011984D01*
X12970182Y-14011984D02*
X13093991Y-14011984D01*
X13093991Y-14011984D02*
X13027325Y-14088174D01*
X13027325Y-14088174D02*
X13055896Y-14088174D01*
X13055896Y-14088174D02*
X13074944Y-14097698D01*
X13074944Y-14097698D02*
X13084467Y-14107222D01*
X13084467Y-14107222D02*
X13093991Y-14126269D01*
X13093991Y-14126269D02*
X13093991Y-14173888D01*
X13093991Y-14173888D02*
X13084467Y-14192936D01*
X13084467Y-14192936D02*
X13074944Y-14202460D01*
X13074944Y-14202460D02*
X13055896Y-14211984D01*
X13055896Y-14211984D02*
X12998753Y-14211984D01*
X12998753Y-14211984D02*
X12979706Y-14202460D01*
X12979706Y-14202460D02*
X12970182Y-14192936D01*
X13189229Y-14211984D02*
X13227325Y-14211984D01*
X13227325Y-14211984D02*
X13246372Y-14202460D01*
X13246372Y-14202460D02*
X13255896Y-14192936D01*
X13255896Y-14192936D02*
X13274944Y-14164365D01*
X13274944Y-14164365D02*
X13284467Y-14126269D01*
X13284467Y-14126269D02*
X13284467Y-14050079D01*
X13284467Y-14050079D02*
X13274944Y-14031031D01*
X13274944Y-14031031D02*
X13265420Y-14021508D01*
X13265420Y-14021508D02*
X13246372Y-14011984D01*
X13246372Y-14011984D02*
X13208277Y-14011984D01*
X13208277Y-14011984D02*
X13189229Y-14021508D01*
X13189229Y-14021508D02*
X13179706Y-14031031D01*
X13179706Y-14031031D02*
X13170182Y-14050079D01*
X13170182Y-14050079D02*
X13170182Y-14097698D01*
X13170182Y-14097698D02*
X13179706Y-14116746D01*
X13179706Y-14116746D02*
X13189229Y-14126269D01*
X13189229Y-14126269D02*
X13208277Y-14135793D01*
X13208277Y-14135793D02*
X13246372Y-14135793D01*
X13246372Y-14135793D02*
X13265420Y-14126269D01*
X13265420Y-14126269D02*
X13274944Y-14116746D01*
X13274944Y-14116746D02*
X13284467Y-14097698D01*
X13455896Y-14078650D02*
X13455896Y-14211984D01*
X13408277Y-14002460D02*
X13360658Y-14145317D01*
X13360658Y-14145317D02*
X13484467Y-14145317D01*
X13551134Y-14011984D02*
X13551134Y-14050079D01*
X13627325Y-14011984D02*
X13627325Y-14050079D01*
X13922563Y-14288174D02*
X13913039Y-14278650D01*
X13913039Y-14278650D02*
X13893991Y-14250079D01*
X13893991Y-14250079D02*
X13884468Y-14231031D01*
X13884468Y-14231031D02*
X13874944Y-14202460D01*
X13874944Y-14202460D02*
X13865420Y-14154841D01*
X13865420Y-14154841D02*
X13865420Y-14116746D01*
X13865420Y-14116746D02*
X13874944Y-14069127D01*
X13874944Y-14069127D02*
X13884468Y-14040555D01*
X13884468Y-14040555D02*
X13893991Y-14021508D01*
X13893991Y-14021508D02*
X13913039Y-13992936D01*
X13913039Y-13992936D02*
X13922563Y-13983412D01*
X14084468Y-14078650D02*
X14084468Y-14211984D01*
X14036848Y-14002460D02*
X13989229Y-14145317D01*
X13989229Y-14145317D02*
X14113039Y-14145317D01*
X14284468Y-14011984D02*
X14189229Y-14011984D01*
X14189229Y-14011984D02*
X14179706Y-14107222D01*
X14179706Y-14107222D02*
X14189229Y-14097698D01*
X14189229Y-14097698D02*
X14208277Y-14088174D01*
X14208277Y-14088174D02*
X14255896Y-14088174D01*
X14255896Y-14088174D02*
X14274944Y-14097698D01*
X14274944Y-14097698D02*
X14284468Y-14107222D01*
X14284468Y-14107222D02*
X14293991Y-14126269D01*
X14293991Y-14126269D02*
X14293991Y-14173888D01*
X14293991Y-14173888D02*
X14284468Y-14192936D01*
X14284468Y-14192936D02*
X14274944Y-14202460D01*
X14274944Y-14202460D02*
X14255896Y-14211984D01*
X14255896Y-14211984D02*
X14208277Y-14211984D01*
X14208277Y-14211984D02*
X14189229Y-14202460D01*
X14189229Y-14202460D02*
X14179706Y-14192936D01*
X14532087Y-14211984D02*
X14532087Y-14011984D01*
X14617801Y-14211984D02*
X14617801Y-14107222D01*
X14617801Y-14107222D02*
X14608277Y-14088174D01*
X14608277Y-14088174D02*
X14589230Y-14078650D01*
X14589230Y-14078650D02*
X14560658Y-14078650D01*
X14560658Y-14078650D02*
X14541610Y-14088174D01*
X14541610Y-14088174D02*
X14532087Y-14097698D01*
X14741610Y-14211984D02*
X14722563Y-14202460D01*
X14722563Y-14202460D02*
X14713039Y-14192936D01*
X14713039Y-14192936D02*
X14703515Y-14173888D01*
X14703515Y-14173888D02*
X14703515Y-14116746D01*
X14703515Y-14116746D02*
X14713039Y-14097698D01*
X14713039Y-14097698D02*
X14722563Y-14088174D01*
X14722563Y-14088174D02*
X14741610Y-14078650D01*
X14741610Y-14078650D02*
X14770182Y-14078650D01*
X14770182Y-14078650D02*
X14789230Y-14088174D01*
X14789230Y-14088174D02*
X14798753Y-14097698D01*
X14798753Y-14097698D02*
X14808277Y-14116746D01*
X14808277Y-14116746D02*
X14808277Y-14173888D01*
X14808277Y-14173888D02*
X14798753Y-14192936D01*
X14798753Y-14192936D02*
X14789230Y-14202460D01*
X14789230Y-14202460D02*
X14770182Y-14211984D01*
X14770182Y-14211984D02*
X14741610Y-14211984D01*
X14922563Y-14211984D02*
X14903515Y-14202460D01*
X14903515Y-14202460D02*
X14893991Y-14183412D01*
X14893991Y-14183412D02*
X14893991Y-14011984D01*
X15074944Y-14202460D02*
X15055896Y-14211984D01*
X15055896Y-14211984D02*
X15017801Y-14211984D01*
X15017801Y-14211984D02*
X14998753Y-14202460D01*
X14998753Y-14202460D02*
X14989230Y-14183412D01*
X14989230Y-14183412D02*
X14989230Y-14107222D01*
X14989230Y-14107222D02*
X14998753Y-14088174D01*
X14998753Y-14088174D02*
X15017801Y-14078650D01*
X15017801Y-14078650D02*
X15055896Y-14078650D01*
X15055896Y-14078650D02*
X15074944Y-14088174D01*
X15074944Y-14088174D02*
X15084468Y-14107222D01*
X15084468Y-14107222D02*
X15084468Y-14126269D01*
X15084468Y-14126269D02*
X14989230Y-14145317D01*
X15160658Y-14202460D02*
X15179706Y-14211984D01*
X15179706Y-14211984D02*
X15217801Y-14211984D01*
X15217801Y-14211984D02*
X15236849Y-14202460D01*
X15236849Y-14202460D02*
X15246372Y-14183412D01*
X15246372Y-14183412D02*
X15246372Y-14173888D01*
X15246372Y-14173888D02*
X15236849Y-14154841D01*
X15236849Y-14154841D02*
X15217801Y-14145317D01*
X15217801Y-14145317D02*
X15189230Y-14145317D01*
X15189230Y-14145317D02*
X15170182Y-14135793D01*
X15170182Y-14135793D02*
X15160658Y-14116746D01*
X15160658Y-14116746D02*
X15160658Y-14107222D01*
X15160658Y-14107222D02*
X15170182Y-14088174D01*
X15170182Y-14088174D02*
X15189230Y-14078650D01*
X15189230Y-14078650D02*
X15217801Y-14078650D01*
X15217801Y-14078650D02*
X15236849Y-14088174D01*
X15313039Y-14288174D02*
X15322563Y-14278650D01*
X15322563Y-14278650D02*
X15341611Y-14250079D01*
X15341611Y-14250079D02*
X15351134Y-14231031D01*
X15351134Y-14231031D02*
X15360658Y-14202460D01*
X15360658Y-14202460D02*
X15370182Y-14154841D01*
X15370182Y-14154841D02*
X15370182Y-14116746D01*
X15370182Y-14116746D02*
X15360658Y-14069127D01*
X15360658Y-14069127D02*
X15351134Y-14040555D01*
X15351134Y-14040555D02*
X15341611Y-14021508D01*
X15341611Y-14021508D02*
X15322563Y-13992936D01*
X15322563Y-13992936D02*
X15313039Y-13983412D01*
D13*
X10325534Y-14437533D02*
X10325534Y-14331466D01*
X10219467Y-14331466D01*
X10219467Y-14437533D01*
X10325534Y-14437533D01*
D11*
X10713039Y-14475984D02*
X10598753Y-14475984D01*
X10655896Y-14475984D02*
X10655896Y-14275984D01*
X10655896Y-14275984D02*
X10636848Y-14304555D01*
X10636848Y-14304555D02*
X10617801Y-14323603D01*
X10617801Y-14323603D02*
X10598753Y-14333127D01*
X10798753Y-14456936D02*
X10808277Y-14466460D01*
X10808277Y-14466460D02*
X10798753Y-14475984D01*
X10798753Y-14475984D02*
X10789229Y-14466460D01*
X10789229Y-14466460D02*
X10798753Y-14456936D01*
X10798753Y-14456936D02*
X10798753Y-14475984D01*
X10989229Y-14275984D02*
X10893991Y-14275984D01*
X10893991Y-14275984D02*
X10884467Y-14371222D01*
X10884467Y-14371222D02*
X10893991Y-14361698D01*
X10893991Y-14361698D02*
X10913039Y-14352174D01*
X10913039Y-14352174D02*
X10960658Y-14352174D01*
X10960658Y-14352174D02*
X10979705Y-14361698D01*
X10979705Y-14361698D02*
X10989229Y-14371222D01*
X10989229Y-14371222D02*
X10998753Y-14390269D01*
X10998753Y-14390269D02*
X10998753Y-14437888D01*
X10998753Y-14437888D02*
X10989229Y-14456936D01*
X10989229Y-14456936D02*
X10979705Y-14466460D01*
X10979705Y-14466460D02*
X10960658Y-14475984D01*
X10960658Y-14475984D02*
X10913039Y-14475984D01*
X10913039Y-14475984D02*
X10893991Y-14466460D01*
X10893991Y-14466460D02*
X10884467Y-14456936D01*
X11122563Y-14275984D02*
X11141610Y-14275984D01*
X11141610Y-14275984D02*
X11160658Y-14285508D01*
X11160658Y-14285508D02*
X11170182Y-14295031D01*
X11170182Y-14295031D02*
X11179705Y-14314079D01*
X11179705Y-14314079D02*
X11189229Y-14352174D01*
X11189229Y-14352174D02*
X11189229Y-14399793D01*
X11189229Y-14399793D02*
X11179705Y-14437888D01*
X11179705Y-14437888D02*
X11170182Y-14456936D01*
X11170182Y-14456936D02*
X11160658Y-14466460D01*
X11160658Y-14466460D02*
X11141610Y-14475984D01*
X11141610Y-14475984D02*
X11122563Y-14475984D01*
X11122563Y-14475984D02*
X11103515Y-14466460D01*
X11103515Y-14466460D02*
X11093991Y-14456936D01*
X11093991Y-14456936D02*
X11084467Y-14437888D01*
X11084467Y-14437888D02*
X11074944Y-14399793D01*
X11074944Y-14399793D02*
X11074944Y-14352174D01*
X11074944Y-14352174D02*
X11084467Y-14314079D01*
X11084467Y-14314079D02*
X11093991Y-14295031D01*
X11093991Y-14295031D02*
X11103515Y-14285508D01*
X11103515Y-14285508D02*
X11122563Y-14275984D01*
X11313039Y-14275984D02*
X11332086Y-14275984D01*
X11332086Y-14275984D02*
X11351134Y-14285508D01*
X11351134Y-14285508D02*
X11360658Y-14295031D01*
X11360658Y-14295031D02*
X11370182Y-14314079D01*
X11370182Y-14314079D02*
X11379705Y-14352174D01*
X11379705Y-14352174D02*
X11379705Y-14399793D01*
X11379705Y-14399793D02*
X11370182Y-14437888D01*
X11370182Y-14437888D02*
X11360658Y-14456936D01*
X11360658Y-14456936D02*
X11351134Y-14466460D01*
X11351134Y-14466460D02*
X11332086Y-14475984D01*
X11332086Y-14475984D02*
X11313039Y-14475984D01*
X11313039Y-14475984D02*
X11293991Y-14466460D01*
X11293991Y-14466460D02*
X11284467Y-14456936D01*
X11284467Y-14456936D02*
X11274943Y-14437888D01*
X11274943Y-14437888D02*
X11265420Y-14399793D01*
X11265420Y-14399793D02*
X11265420Y-14352174D01*
X11265420Y-14352174D02*
X11274943Y-14314079D01*
X11274943Y-14314079D02*
X11284467Y-14295031D01*
X11284467Y-14295031D02*
X11293991Y-14285508D01*
X11293991Y-14285508D02*
X11313039Y-14275984D01*
X11465420Y-14475984D02*
X11465420Y-14342650D01*
X11465420Y-14361698D02*
X11474943Y-14352174D01*
X11474943Y-14352174D02*
X11493991Y-14342650D01*
X11493991Y-14342650D02*
X11522563Y-14342650D01*
X11522563Y-14342650D02*
X11541610Y-14352174D01*
X11541610Y-14352174D02*
X11551134Y-14371222D01*
X11551134Y-14371222D02*
X11551134Y-14475984D01*
X11551134Y-14371222D02*
X11560658Y-14352174D01*
X11560658Y-14352174D02*
X11579705Y-14342650D01*
X11579705Y-14342650D02*
X11608277Y-14342650D01*
X11608277Y-14342650D02*
X11627324Y-14352174D01*
X11627324Y-14352174D02*
X11636848Y-14371222D01*
X11636848Y-14371222D02*
X11636848Y-14475984D01*
X11732086Y-14475984D02*
X11732086Y-14342650D01*
X11732086Y-14361698D02*
X11741610Y-14352174D01*
X11741610Y-14352174D02*
X11760658Y-14342650D01*
X11760658Y-14342650D02*
X11789229Y-14342650D01*
X11789229Y-14342650D02*
X11808277Y-14352174D01*
X11808277Y-14352174D02*
X11817801Y-14371222D01*
X11817801Y-14371222D02*
X11817801Y-14475984D01*
X11817801Y-14371222D02*
X11827324Y-14352174D01*
X11827324Y-14352174D02*
X11846372Y-14342650D01*
X11846372Y-14342650D02*
X11874943Y-14342650D01*
X11874943Y-14342650D02*
X11893991Y-14352174D01*
X11893991Y-14352174D02*
X11903515Y-14371222D01*
X11903515Y-14371222D02*
X11903515Y-14475984D01*
X12293991Y-14266460D02*
X12122563Y-14523603D01*
X12551134Y-14275984D02*
X12570182Y-14275984D01*
X12570182Y-14275984D02*
X12589229Y-14285508D01*
X12589229Y-14285508D02*
X12598753Y-14295031D01*
X12598753Y-14295031D02*
X12608277Y-14314079D01*
X12608277Y-14314079D02*
X12617801Y-14352174D01*
X12617801Y-14352174D02*
X12617801Y-14399793D01*
X12617801Y-14399793D02*
X12608277Y-14437888D01*
X12608277Y-14437888D02*
X12598753Y-14456936D01*
X12598753Y-14456936D02*
X12589229Y-14466460D01*
X12589229Y-14466460D02*
X12570182Y-14475984D01*
X12570182Y-14475984D02*
X12551134Y-14475984D01*
X12551134Y-14475984D02*
X12532086Y-14466460D01*
X12532086Y-14466460D02*
X12522563Y-14456936D01*
X12522563Y-14456936D02*
X12513039Y-14437888D01*
X12513039Y-14437888D02*
X12503515Y-14399793D01*
X12503515Y-14399793D02*
X12503515Y-14352174D01*
X12503515Y-14352174D02*
X12513039Y-14314079D01*
X12513039Y-14314079D02*
X12522563Y-14295031D01*
X12522563Y-14295031D02*
X12532086Y-14285508D01*
X12532086Y-14285508D02*
X12551134Y-14275984D01*
X12703515Y-14456936D02*
X12713039Y-14466460D01*
X12713039Y-14466460D02*
X12703515Y-14475984D01*
X12703515Y-14475984D02*
X12693991Y-14466460D01*
X12693991Y-14466460D02*
X12703515Y-14456936D01*
X12703515Y-14456936D02*
X12703515Y-14475984D01*
X12836848Y-14275984D02*
X12855896Y-14275984D01*
X12855896Y-14275984D02*
X12874944Y-14285508D01*
X12874944Y-14285508D02*
X12884467Y-14295031D01*
X12884467Y-14295031D02*
X12893991Y-14314079D01*
X12893991Y-14314079D02*
X12903515Y-14352174D01*
X12903515Y-14352174D02*
X12903515Y-14399793D01*
X12903515Y-14399793D02*
X12893991Y-14437888D01*
X12893991Y-14437888D02*
X12884467Y-14456936D01*
X12884467Y-14456936D02*
X12874944Y-14466460D01*
X12874944Y-14466460D02*
X12855896Y-14475984D01*
X12855896Y-14475984D02*
X12836848Y-14475984D01*
X12836848Y-14475984D02*
X12817801Y-14466460D01*
X12817801Y-14466460D02*
X12808277Y-14456936D01*
X12808277Y-14456936D02*
X12798753Y-14437888D01*
X12798753Y-14437888D02*
X12789229Y-14399793D01*
X12789229Y-14399793D02*
X12789229Y-14352174D01*
X12789229Y-14352174D02*
X12798753Y-14314079D01*
X12798753Y-14314079D02*
X12808277Y-14295031D01*
X12808277Y-14295031D02*
X12817801Y-14285508D01*
X12817801Y-14285508D02*
X12836848Y-14275984D01*
X13084467Y-14275984D02*
X12989229Y-14275984D01*
X12989229Y-14275984D02*
X12979706Y-14371222D01*
X12979706Y-14371222D02*
X12989229Y-14361698D01*
X12989229Y-14361698D02*
X13008277Y-14352174D01*
X13008277Y-14352174D02*
X13055896Y-14352174D01*
X13055896Y-14352174D02*
X13074944Y-14361698D01*
X13074944Y-14361698D02*
X13084467Y-14371222D01*
X13084467Y-14371222D02*
X13093991Y-14390269D01*
X13093991Y-14390269D02*
X13093991Y-14437888D01*
X13093991Y-14437888D02*
X13084467Y-14456936D01*
X13084467Y-14456936D02*
X13074944Y-14466460D01*
X13074944Y-14466460D02*
X13055896Y-14475984D01*
X13055896Y-14475984D02*
X13008277Y-14475984D01*
X13008277Y-14475984D02*
X12989229Y-14466460D01*
X12989229Y-14466460D02*
X12979706Y-14456936D01*
X13189229Y-14475984D02*
X13227325Y-14475984D01*
X13227325Y-14475984D02*
X13246372Y-14466460D01*
X13246372Y-14466460D02*
X13255896Y-14456936D01*
X13255896Y-14456936D02*
X13274944Y-14428365D01*
X13274944Y-14428365D02*
X13284467Y-14390269D01*
X13284467Y-14390269D02*
X13284467Y-14314079D01*
X13284467Y-14314079D02*
X13274944Y-14295031D01*
X13274944Y-14295031D02*
X13265420Y-14285508D01*
X13265420Y-14285508D02*
X13246372Y-14275984D01*
X13246372Y-14275984D02*
X13208277Y-14275984D01*
X13208277Y-14275984D02*
X13189229Y-14285508D01*
X13189229Y-14285508D02*
X13179706Y-14295031D01*
X13179706Y-14295031D02*
X13170182Y-14314079D01*
X13170182Y-14314079D02*
X13170182Y-14361698D01*
X13170182Y-14361698D02*
X13179706Y-14380746D01*
X13179706Y-14380746D02*
X13189229Y-14390269D01*
X13189229Y-14390269D02*
X13208277Y-14399793D01*
X13208277Y-14399793D02*
X13246372Y-14399793D01*
X13246372Y-14399793D02*
X13265420Y-14390269D01*
X13265420Y-14390269D02*
X13274944Y-14380746D01*
X13274944Y-14380746D02*
X13284467Y-14361698D01*
X13474944Y-14475984D02*
X13360658Y-14475984D01*
X13417801Y-14475984D02*
X13417801Y-14275984D01*
X13417801Y-14275984D02*
X13398753Y-14304555D01*
X13398753Y-14304555D02*
X13379706Y-14323603D01*
X13379706Y-14323603D02*
X13360658Y-14333127D01*
X13551134Y-14275984D02*
X13551134Y-14314079D01*
X13627325Y-14275984D02*
X13627325Y-14314079D01*
X13922563Y-14552174D02*
X13913039Y-14542650D01*
X13913039Y-14542650D02*
X13893991Y-14514079D01*
X13893991Y-14514079D02*
X13884468Y-14495031D01*
X13884468Y-14495031D02*
X13874944Y-14466460D01*
X13874944Y-14466460D02*
X13865420Y-14418841D01*
X13865420Y-14418841D02*
X13865420Y-14380746D01*
X13865420Y-14380746D02*
X13874944Y-14333127D01*
X13874944Y-14333127D02*
X13884468Y-14304555D01*
X13884468Y-14304555D02*
X13893991Y-14285508D01*
X13893991Y-14285508D02*
X13913039Y-14256936D01*
X13913039Y-14256936D02*
X13922563Y-14247412D01*
X14103515Y-14475984D02*
X13989229Y-14475984D01*
X14046372Y-14475984D02*
X14046372Y-14275984D01*
X14046372Y-14275984D02*
X14027325Y-14304555D01*
X14027325Y-14304555D02*
X14008277Y-14323603D01*
X14008277Y-14323603D02*
X13989229Y-14333127D01*
X14217801Y-14361698D02*
X14198753Y-14352174D01*
X14198753Y-14352174D02*
X14189229Y-14342650D01*
X14189229Y-14342650D02*
X14179706Y-14323603D01*
X14179706Y-14323603D02*
X14179706Y-14314079D01*
X14179706Y-14314079D02*
X14189229Y-14295031D01*
X14189229Y-14295031D02*
X14198753Y-14285508D01*
X14198753Y-14285508D02*
X14217801Y-14275984D01*
X14217801Y-14275984D02*
X14255896Y-14275984D01*
X14255896Y-14275984D02*
X14274944Y-14285508D01*
X14274944Y-14285508D02*
X14284468Y-14295031D01*
X14284468Y-14295031D02*
X14293991Y-14314079D01*
X14293991Y-14314079D02*
X14293991Y-14323603D01*
X14293991Y-14323603D02*
X14284468Y-14342650D01*
X14284468Y-14342650D02*
X14274944Y-14352174D01*
X14274944Y-14352174D02*
X14255896Y-14361698D01*
X14255896Y-14361698D02*
X14217801Y-14361698D01*
X14217801Y-14361698D02*
X14198753Y-14371222D01*
X14198753Y-14371222D02*
X14189229Y-14380746D01*
X14189229Y-14380746D02*
X14179706Y-14399793D01*
X14179706Y-14399793D02*
X14179706Y-14437888D01*
X14179706Y-14437888D02*
X14189229Y-14456936D01*
X14189229Y-14456936D02*
X14198753Y-14466460D01*
X14198753Y-14466460D02*
X14217801Y-14475984D01*
X14217801Y-14475984D02*
X14255896Y-14475984D01*
X14255896Y-14475984D02*
X14274944Y-14466460D01*
X14274944Y-14466460D02*
X14284468Y-14456936D01*
X14284468Y-14456936D02*
X14293991Y-14437888D01*
X14293991Y-14437888D02*
X14293991Y-14399793D01*
X14293991Y-14399793D02*
X14284468Y-14380746D01*
X14284468Y-14380746D02*
X14274944Y-14371222D01*
X14274944Y-14371222D02*
X14255896Y-14361698D01*
X14532087Y-14475984D02*
X14532087Y-14275984D01*
X14617801Y-14475984D02*
X14617801Y-14371222D01*
X14617801Y-14371222D02*
X14608277Y-14352174D01*
X14608277Y-14352174D02*
X14589230Y-14342650D01*
X14589230Y-14342650D02*
X14560658Y-14342650D01*
X14560658Y-14342650D02*
X14541610Y-14352174D01*
X14541610Y-14352174D02*
X14532087Y-14361698D01*
X14741610Y-14475984D02*
X14722563Y-14466460D01*
X14722563Y-14466460D02*
X14713039Y-14456936D01*
X14713039Y-14456936D02*
X14703515Y-14437888D01*
X14703515Y-14437888D02*
X14703515Y-14380746D01*
X14703515Y-14380746D02*
X14713039Y-14361698D01*
X14713039Y-14361698D02*
X14722563Y-14352174D01*
X14722563Y-14352174D02*
X14741610Y-14342650D01*
X14741610Y-14342650D02*
X14770182Y-14342650D01*
X14770182Y-14342650D02*
X14789230Y-14352174D01*
X14789230Y-14352174D02*
X14798753Y-14361698D01*
X14798753Y-14361698D02*
X14808277Y-14380746D01*
X14808277Y-14380746D02*
X14808277Y-14437888D01*
X14808277Y-14437888D02*
X14798753Y-14456936D01*
X14798753Y-14456936D02*
X14789230Y-14466460D01*
X14789230Y-14466460D02*
X14770182Y-14475984D01*
X14770182Y-14475984D02*
X14741610Y-14475984D01*
X14922563Y-14475984D02*
X14903515Y-14466460D01*
X14903515Y-14466460D02*
X14893991Y-14447412D01*
X14893991Y-14447412D02*
X14893991Y-14275984D01*
X15074944Y-14466460D02*
X15055896Y-14475984D01*
X15055896Y-14475984D02*
X15017801Y-14475984D01*
X15017801Y-14475984D02*
X14998753Y-14466460D01*
X14998753Y-14466460D02*
X14989230Y-14447412D01*
X14989230Y-14447412D02*
X14989230Y-14371222D01*
X14989230Y-14371222D02*
X14998753Y-14352174D01*
X14998753Y-14352174D02*
X15017801Y-14342650D01*
X15017801Y-14342650D02*
X15055896Y-14342650D01*
X15055896Y-14342650D02*
X15074944Y-14352174D01*
X15074944Y-14352174D02*
X15084468Y-14371222D01*
X15084468Y-14371222D02*
X15084468Y-14390269D01*
X15084468Y-14390269D02*
X14989230Y-14409317D01*
X15160658Y-14466460D02*
X15179706Y-14475984D01*
X15179706Y-14475984D02*
X15217801Y-14475984D01*
X15217801Y-14475984D02*
X15236849Y-14466460D01*
X15236849Y-14466460D02*
X15246372Y-14447412D01*
X15246372Y-14447412D02*
X15246372Y-14437888D01*
X15246372Y-14437888D02*
X15236849Y-14418841D01*
X15236849Y-14418841D02*
X15217801Y-14409317D01*
X15217801Y-14409317D02*
X15189230Y-14409317D01*
X15189230Y-14409317D02*
X15170182Y-14399793D01*
X15170182Y-14399793D02*
X15160658Y-14380746D01*
X15160658Y-14380746D02*
X15160658Y-14371222D01*
X15160658Y-14371222D02*
X15170182Y-14352174D01*
X15170182Y-14352174D02*
X15189230Y-14342650D01*
X15189230Y-14342650D02*
X15217801Y-14342650D01*
X15217801Y-14342650D02*
X15236849Y-14352174D01*
X15484468Y-14399793D02*
X15636849Y-14399793D01*
X15560658Y-14475984D02*
X15560658Y-14323603D01*
X15874944Y-14295031D02*
X15884468Y-14285508D01*
X15884468Y-14285508D02*
X15903515Y-14275984D01*
X15903515Y-14275984D02*
X15951134Y-14275984D01*
X15951134Y-14275984D02*
X15970182Y-14285508D01*
X15970182Y-14285508D02*
X15979706Y-14295031D01*
X15979706Y-14295031D02*
X15989230Y-14314079D01*
X15989230Y-14314079D02*
X15989230Y-14333127D01*
X15989230Y-14333127D02*
X15979706Y-14361698D01*
X15979706Y-14361698D02*
X15865420Y-14475984D01*
X15865420Y-14475984D02*
X15989230Y-14475984D01*
X16217801Y-14466460D02*
X16236849Y-14475984D01*
X16236849Y-14475984D02*
X16274944Y-14475984D01*
X16274944Y-14475984D02*
X16293992Y-14466460D01*
X16293992Y-14466460D02*
X16303515Y-14447412D01*
X16303515Y-14447412D02*
X16303515Y-14437888D01*
X16303515Y-14437888D02*
X16293992Y-14418841D01*
X16293992Y-14418841D02*
X16274944Y-14409317D01*
X16274944Y-14409317D02*
X16246373Y-14409317D01*
X16246373Y-14409317D02*
X16227325Y-14399793D01*
X16227325Y-14399793D02*
X16217801Y-14380746D01*
X16217801Y-14380746D02*
X16217801Y-14371222D01*
X16217801Y-14371222D02*
X16227325Y-14352174D01*
X16227325Y-14352174D02*
X16246373Y-14342650D01*
X16246373Y-14342650D02*
X16274944Y-14342650D01*
X16274944Y-14342650D02*
X16293992Y-14352174D01*
X16417801Y-14475984D02*
X16398754Y-14466460D01*
X16398754Y-14466460D02*
X16389230Y-14447412D01*
X16389230Y-14447412D02*
X16389230Y-14275984D01*
X16522563Y-14475984D02*
X16503515Y-14466460D01*
X16503515Y-14466460D02*
X16493992Y-14456936D01*
X16493992Y-14456936D02*
X16484468Y-14437888D01*
X16484468Y-14437888D02*
X16484468Y-14380746D01*
X16484468Y-14380746D02*
X16493992Y-14361698D01*
X16493992Y-14361698D02*
X16503515Y-14352174D01*
X16503515Y-14352174D02*
X16522563Y-14342650D01*
X16522563Y-14342650D02*
X16551135Y-14342650D01*
X16551135Y-14342650D02*
X16570182Y-14352174D01*
X16570182Y-14352174D02*
X16579706Y-14361698D01*
X16579706Y-14361698D02*
X16589230Y-14380746D01*
X16589230Y-14380746D02*
X16589230Y-14437888D01*
X16589230Y-14437888D02*
X16579706Y-14456936D01*
X16579706Y-14456936D02*
X16570182Y-14466460D01*
X16570182Y-14466460D02*
X16551135Y-14475984D01*
X16551135Y-14475984D02*
X16522563Y-14475984D01*
X16646373Y-14342650D02*
X16722563Y-14342650D01*
X16674944Y-14275984D02*
X16674944Y-14447412D01*
X16674944Y-14447412D02*
X16684468Y-14466460D01*
X16684468Y-14466460D02*
X16703515Y-14475984D01*
X16703515Y-14475984D02*
X16722563Y-14475984D01*
X16779706Y-14466460D02*
X16798754Y-14475984D01*
X16798754Y-14475984D02*
X16836849Y-14475984D01*
X16836849Y-14475984D02*
X16855897Y-14466460D01*
X16855897Y-14466460D02*
X16865420Y-14447412D01*
X16865420Y-14447412D02*
X16865420Y-14437888D01*
X16865420Y-14437888D02*
X16855897Y-14418841D01*
X16855897Y-14418841D02*
X16836849Y-14409317D01*
X16836849Y-14409317D02*
X16808277Y-14409317D01*
X16808277Y-14409317D02*
X16789230Y-14399793D01*
X16789230Y-14399793D02*
X16779706Y-14380746D01*
X16779706Y-14380746D02*
X16779706Y-14371222D01*
X16779706Y-14371222D02*
X16789230Y-14352174D01*
X16789230Y-14352174D02*
X16808277Y-14342650D01*
X16808277Y-14342650D02*
X16836849Y-14342650D01*
X16836849Y-14342650D02*
X16855897Y-14352174D01*
X16932087Y-14552174D02*
X16941611Y-14542650D01*
X16941611Y-14542650D02*
X16960658Y-14514079D01*
X16960658Y-14514079D02*
X16970182Y-14495031D01*
X16970182Y-14495031D02*
X16979706Y-14466460D01*
X16979706Y-14466460D02*
X16989230Y-14418841D01*
X16989230Y-14418841D02*
X16989230Y-14380746D01*
X16989230Y-14380746D02*
X16979706Y-14333127D01*
X16979706Y-14333127D02*
X16970182Y-14304555D01*
X16970182Y-14304555D02*
X16960658Y-14285508D01*
X16960658Y-14285508D02*
X16941611Y-14256936D01*
X16941611Y-14256936D02*
X16932087Y-14247412D01*
M02*
