M48
; DRILL file KiCad 10.0.0 date 2026-04-17T23:26:18
; FORMAT={-:-/ absolute / metric / decimal}
; #@! TF.CreationDate,2026-04-17T23:26:18+05:30
; #@! TF.GenerationSoftware,Kicad,Pcbnew,10.0.0
; #@! TF.FileFunction,NonPlated,1,2,NPTH
FMAT,2
METRIC
; #@! TA.AperFunction,NonPlated,NPTH,ComponentDrill
T1C1.700
; #@! TA.AperFunction,NonPlated,NPTH,ComponentDrill
T2C1.850
; #@! TA.AperFunction,NonPlated,NPTH,ComponentDrill
T3C2.200
; #@! TA.AperFunction,NonPlated,NPTH,ComponentDrill
T4C4.000
%
G90
G05
T1
X141.47Y-65.085
X141.47Y-75.245
X141.49Y-84.275
X141.49Y-94.435
X141.49Y-103.475
X141.49Y-113.635
X160.67Y-65.075
X160.67Y-75.235
X160.68Y-84.275
X160.68Y-94.435
X160.69Y-103.485
X160.69Y-113.645
X179.87Y-65.08
X179.87Y-75.24
X179.88Y-84.285
X179.88Y-94.445
X179.89Y-103.495
X179.89Y-113.655
T2
X115.685Y-65.04
X120.535Y-65.04
T3
X115.385Y-62.01
X120.835Y-62.01
T4
X141.47Y-70.165
X141.49Y-89.355
X141.49Y-108.555
X160.67Y-70.155
X160.68Y-89.355
X160.69Y-108.565
X179.87Y-70.16
X179.88Y-89.365
X179.89Y-108.575
M30
