%TF.GenerationSoftware,KiCad,Pcbnew,10.0.0*%
%TF.CreationDate,2026-04-25T12:12:33+05:30*%
%TF.ProjectId,HackpadKicad,4861636b-7061-4644-9b69-6361642e6b69,rev?*%
%TF.SameCoordinates,Original*%
%TF.FileFunction,Legend,Bot*%
%TF.FilePolarity,Positive*%
%FSLAX46Y46*%
G04 Gerber Fmt 4.6, Leading zero omitted, Abs format (unit mm)*
G04 Created by KiCad (PCBNEW 10.0.0) date 2026-04-25 12:12:33*
%MOMM*%
%LPD*%
G01*
G04 APERTURE LIST*
G04 Aperture macros list*
%AMRoundRect*
0 Rectangle with rounded corners*
0 $1 Rounding radius*
0 $2 $3 $4 $5 $6 $7 $8 $9 X,Y pos of 4 corners*
0 Add a 4 corners polygon primitive as box body*
4,1,4,$2,$3,$4,$5,$6,$7,$8,$9,$2,$3,0*
0 Add four circle primitives for the rounded corners*
1,1,$1+$1,$2,$3*
1,1,$1+$1,$4,$5*
1,1,$1+$1,$6,$7*
1,1,$1+$1,$8,$9*
0 Add four rect primitives between the rounded corners*
20,1,$1+$1,$2,$3,$4,$5,0*
20,1,$1+$1,$4,$5,$6,$7,0*
20,1,$1+$1,$6,$7,$8,$9,0*
20,1,$1+$1,$8,$9,$2,$3,0*%
%AMFreePoly0*
4,1,37,0.603843,0.796157,0.639018,0.796157,0.711114,0.766294,0.766294,0.711114,0.796157,0.639018,0.796157,0.603843,0.800000,0.600000,0.800000,-0.600000,0.796157,-0.603843,0.796157,-0.639018,0.766294,-0.711114,0.711114,-0.766294,0.639018,-0.796157,0.603843,-0.796157,0.600000,-0.800000,0.000000,-0.800000,0.000000,-0.796148,-0.078414,-0.796148,-0.232228,-0.765552,-0.377117,-0.705537,
-0.507515,-0.618408,-0.618408,-0.507515,-0.705537,-0.377117,-0.765552,-0.232228,-0.796148,-0.078414,-0.796148,0.078414,-0.765552,0.232228,-0.705537,0.377117,-0.618408,0.507515,-0.507515,0.618408,-0.377117,0.705537,-0.232228,0.765552,-0.078414,0.796148,0.000000,0.796148,0.000000,0.800000,0.600000,0.800000,0.603843,0.796157,0.603843,0.796157,$1*%
%AMFreePoly1*
4,1,37,0.000000,0.796148,0.078414,0.796148,0.232228,0.765552,0.377117,0.705537,0.507515,0.618408,0.618408,0.507515,0.705537,0.377117,0.765552,0.232228,0.796148,0.078414,0.796148,-0.078414,0.765552,-0.232228,0.705537,-0.377117,0.618408,-0.507515,0.507515,-0.618408,0.377117,-0.705537,0.232228,-0.765552,0.078414,-0.796148,0.000000,-0.796148,0.000000,-0.800000,-0.600000,-0.800000,
-0.603843,-0.796157,-0.639018,-0.796157,-0.711114,-0.766294,-0.766294,-0.711114,-0.796157,-0.639018,-0.796157,-0.603843,-0.800000,-0.600000,-0.800000,0.600000,-0.796157,0.603843,-0.796157,0.639018,-0.766294,0.711114,-0.711114,0.766294,-0.639018,0.796157,-0.603843,0.796157,-0.600000,0.800000,0.000000,0.800000,0.000000,0.796148,0.000000,0.796148,$1*%
G04 Aperture macros list end*
%ADD10C,0.250000*%
%ADD11C,0.150000*%
%ADD12C,0.120000*%
%ADD13C,0.000000*%
%ADD14RoundRect,0.250000X-0.550000X0.550000X-0.550000X-0.550000X0.550000X-0.550000X0.550000X0.550000X0*%
%ADD15C,1.600000*%
%ADD16C,2.200000*%
%ADD17C,1.850000*%
%ADD18RoundRect,0.200000X-0.600000X-0.600000X0.600000X-0.600000X0.600000X0.600000X-0.600000X0.600000X0*%
%ADD19FreePoly0,0.000000*%
%ADD20FreePoly1,0.000000*%
%ADD21C,1.700000*%
%ADD22C,4.000000*%
%ADD23R,2.000000X2.000000*%
%ADD24C,2.000000*%
%ADD25R,3.200000X2.000000*%
G04 APERTURE END LIST*
D10*
G36*
X187845221Y-120930000D02*
G01*
X187845221Y-120458977D01*
X187846625Y-120413731D01*
X187852060Y-120381430D01*
X187864028Y-120362013D01*
X187872894Y-120357287D01*
X187885521Y-120355540D01*
X187905085Y-120361722D01*
X187927226Y-120384117D01*
X187946937Y-120418269D01*
X187973693Y-120481448D01*
X187973693Y-120930000D01*
X188116453Y-120930000D01*
X188116453Y-120458977D01*
X188117857Y-120413731D01*
X188123292Y-120381430D01*
X188135565Y-120362013D01*
X188144740Y-120357274D01*
X188157424Y-120355540D01*
X188174295Y-120361360D01*
X188197053Y-120384117D01*
X188217883Y-120418346D01*
X188245535Y-120481448D01*
X188245535Y-120930000D01*
X188389699Y-120930000D01*
X188389699Y-120234396D01*
X188266051Y-120234396D01*
X188263304Y-120335696D01*
X188233262Y-120283916D01*
X188201144Y-120248562D01*
X188183295Y-120236608D01*
X188164630Y-120228717D01*
X188120544Y-120222672D01*
X188082973Y-120226413D01*
X188054152Y-120236644D01*
X188032067Y-120252653D01*
X188015203Y-120274344D01*
X188003594Y-120301560D01*
X187997568Y-120335696D01*
X187965144Y-120283916D01*
X187931683Y-120248562D01*
X187913419Y-120236633D01*
X187894070Y-120228717D01*
X187849373Y-120222672D01*
X187801589Y-120229024D01*
X187765180Y-120246697D01*
X187737327Y-120275612D01*
X187718550Y-120312762D01*
X187705887Y-120363654D01*
X187701118Y-120432294D01*
X187701118Y-120930000D01*
X187845221Y-120930000D01*
G37*
G36*
X187351518Y-120226044D02*
G01*
X187417613Y-120235983D01*
X187480599Y-120251505D01*
X187532712Y-120269567D01*
X187532712Y-120402435D01*
X187475747Y-120379375D01*
X187416941Y-120362135D01*
X187356735Y-120351327D01*
X187295675Y-120347725D01*
X187258363Y-120350004D01*
X187230095Y-120356090D01*
X187205325Y-120366449D01*
X187186681Y-120379659D01*
X187172289Y-120396477D01*
X187162440Y-120416723D01*
X187156882Y-120439400D01*
X187154930Y-120465633D01*
X187154930Y-120507948D01*
X187245788Y-120507948D01*
X187328925Y-120512492D01*
X187395753Y-120524923D01*
X187455961Y-120545773D01*
X187502365Y-120571634D01*
X187540043Y-120604835D01*
X187565868Y-120642770D01*
X187581417Y-120685680D01*
X187586690Y-120732896D01*
X187583083Y-120778997D01*
X187572707Y-120819663D01*
X187555178Y-120856335D01*
X187531369Y-120886707D01*
X187501204Y-120911163D01*
X187463714Y-120930061D01*
X187421416Y-120941529D01*
X187370169Y-120945631D01*
X187330738Y-120943601D01*
X187296041Y-120937815D01*
X187263188Y-120928288D01*
X187233515Y-120915772D01*
X187180942Y-120882128D01*
X187135146Y-120839691D01*
X187131055Y-120930000D01*
X186988234Y-120930000D01*
X186988234Y-120716592D01*
X187154930Y-120716592D01*
X187200093Y-120759310D01*
X187237606Y-120787911D01*
X187275673Y-120806951D01*
X187310024Y-120812763D01*
X187353648Y-120806868D01*
X187384518Y-120790903D01*
X187399399Y-120774570D01*
X187408541Y-120753861D01*
X187411812Y-120727400D01*
X187409661Y-120707063D01*
X187403264Y-120688077D01*
X187392460Y-120670939D01*
X187376275Y-120655471D01*
X187355931Y-120643220D01*
X187328464Y-120633244D01*
X187297405Y-120627379D01*
X187256718Y-120625184D01*
X187154930Y-120625184D01*
X187154930Y-120716592D01*
X186988234Y-120716592D01*
X186988234Y-120457084D01*
X186992749Y-120400722D01*
X187005331Y-120354563D01*
X187027140Y-120314186D01*
X187058271Y-120281290D01*
X187097772Y-120256240D01*
X187149495Y-120237327D01*
X187207673Y-120226631D01*
X187281997Y-120222672D01*
X187351518Y-120226044D01*
G37*
G36*
X186383306Y-120234945D02*
G01*
X186430139Y-120226092D01*
X186482346Y-120222672D01*
X186557631Y-120228379D01*
X186625167Y-120244898D01*
X186686588Y-120273280D01*
X186738557Y-120313286D01*
X186780591Y-120364563D01*
X186813356Y-120429607D01*
X186827864Y-120477089D01*
X186837084Y-120531985D01*
X186840345Y-120595448D01*
X186835895Y-120673304D01*
X186823309Y-120740467D01*
X186801803Y-120801847D01*
X186773789Y-120850926D01*
X186737289Y-120891325D01*
X186693494Y-120921024D01*
X186643121Y-120939274D01*
X186584134Y-120945631D01*
X186548223Y-120943409D01*
X186516906Y-120937083D01*
X186487354Y-120926832D01*
X186459876Y-120913208D01*
X186409989Y-120876022D01*
X186364865Y-120827540D01*
X186360774Y-120930000D01*
X186216671Y-120930000D01*
X186216671Y-120372515D01*
X186383306Y-120372515D01*
X186383306Y-120674033D01*
X186427078Y-120729031D01*
X186464638Y-120767090D01*
X186491563Y-120786505D01*
X186518193Y-120797469D01*
X186545239Y-120801039D01*
X186572775Y-120797989D01*
X186596468Y-120789193D01*
X186616819Y-120774196D01*
X186634387Y-120751458D01*
X186647416Y-120723348D01*
X186657651Y-120685268D01*
X186663341Y-120642782D01*
X186665467Y-120587815D01*
X186662256Y-120535675D01*
X186653194Y-120491034D01*
X186637844Y-120450432D01*
X186618023Y-120418066D01*
X186592669Y-120391424D01*
X186563007Y-120371844D01*
X186529346Y-120359730D01*
X186490589Y-120355540D01*
X186432154Y-120360303D01*
X186383306Y-120372515D01*
X186216671Y-120372515D01*
X186216671Y-119964752D01*
X186383306Y-119964752D01*
X186383306Y-120234945D01*
G37*
G36*
X185799115Y-120229602D02*
G01*
X185862091Y-120249600D01*
X185918127Y-120282223D01*
X185964918Y-120325926D01*
X186002004Y-120379430D01*
X186030497Y-120444506D01*
X186047683Y-120516061D01*
X186053700Y-120598135D01*
X186047578Y-120680243D01*
X186030497Y-120748039D01*
X186001690Y-120808266D01*
X185963513Y-120856727D01*
X185915501Y-120894983D01*
X185856962Y-120923161D01*
X185791558Y-120939768D01*
X185714874Y-120945631D01*
X185649966Y-120943128D01*
X185583715Y-120935739D01*
X185519480Y-120924565D01*
X185461411Y-120910460D01*
X185461411Y-120777592D01*
X185523286Y-120793849D01*
X185581334Y-120804520D01*
X185638257Y-120810778D01*
X185689595Y-120812763D01*
X185732051Y-120809569D01*
X185769157Y-120800429D01*
X185802768Y-120785099D01*
X185830645Y-120764525D01*
X185853155Y-120738349D01*
X185870273Y-120705968D01*
X185880584Y-120669317D01*
X185884256Y-120625184D01*
X185427950Y-120625184D01*
X185424897Y-120574199D01*
X185423859Y-120529991D01*
X185425883Y-120504040D01*
X185593241Y-120504040D01*
X185881570Y-120504040D01*
X185872295Y-120456007D01*
X185856169Y-120418214D01*
X185833759Y-120388635D01*
X185804693Y-120366085D01*
X185770778Y-120352468D01*
X185730566Y-120347725D01*
X185702567Y-120350103D01*
X185676955Y-120357067D01*
X185653564Y-120368835D01*
X185633236Y-120385643D01*
X185616692Y-120407037D01*
X185603499Y-120434553D01*
X185595628Y-120465649D01*
X185593241Y-120504040D01*
X185425883Y-120504040D01*
X185428965Y-120464521D01*
X185443703Y-120406282D01*
X185468352Y-120353323D01*
X185501772Y-120309012D01*
X185544101Y-120273076D01*
X185596721Y-120245448D01*
X185656112Y-120228640D01*
X185727147Y-120222672D01*
X185799115Y-120229602D01*
G37*
G36*
X184490668Y-120900080D02*
G01*
X184430253Y-120917113D01*
X184366043Y-120930427D01*
X184299355Y-120938800D01*
X184224931Y-120941723D01*
X184149694Y-120936048D01*
X184082172Y-120919619D01*
X184020681Y-120891350D01*
X183968476Y-120851536D01*
X183926117Y-120800492D01*
X183893311Y-120736132D01*
X183878810Y-120689050D01*
X183869587Y-120634506D01*
X183866682Y-120578290D01*
X184041200Y-120578290D01*
X184044425Y-120630012D01*
X184053534Y-120674338D01*
X184068844Y-120714641D01*
X184088705Y-120746817D01*
X184114059Y-120773207D01*
X184144026Y-120792674D01*
X184177854Y-120804720D01*
X184216078Y-120808855D01*
X184275184Y-120804153D01*
X184323972Y-120792002D01*
X184323972Y-120492683D01*
X184280187Y-120438680D01*
X184242334Y-120400969D01*
X184215194Y-120381686D01*
X184188460Y-120370803D01*
X184161428Y-120367264D01*
X184133941Y-120370309D01*
X184110565Y-120379049D01*
X184090458Y-120393893D01*
X184072951Y-120416479D01*
X184059839Y-120444350D01*
X184049382Y-120481875D01*
X184043430Y-120523736D01*
X184041200Y-120578290D01*
X183866682Y-120578290D01*
X183866322Y-120571329D01*
X183870805Y-120493231D01*
X183883419Y-120426615D01*
X183904874Y-120365809D01*
X183932939Y-120317011D01*
X183969389Y-120276753D01*
X184013173Y-120247219D01*
X184063490Y-120229016D01*
X184122472Y-120222672D01*
X184168591Y-120226164D01*
X184208437Y-120236109D01*
X184243066Y-120252042D01*
X184289811Y-120285951D01*
X184330811Y-120329956D01*
X184323972Y-120193119D01*
X184323972Y-119964752D01*
X184490668Y-119964752D01*
X184490668Y-120900080D01*
G37*
G36*
X183304380Y-120852269D02*
G01*
X183342428Y-120939084D01*
X183379912Y-121010416D01*
X183422146Y-121074165D01*
X183466313Y-121123989D01*
X183516445Y-121164051D01*
X183571215Y-121192377D01*
X183631259Y-121209344D01*
X183700603Y-121215275D01*
X183737850Y-121213565D01*
X183779188Y-121208436D01*
X183779188Y-121066775D01*
X183760443Y-121069706D01*
X183738217Y-121072332D01*
X183714647Y-121073920D01*
X183692421Y-121074591D01*
X183664538Y-121071859D01*
X183639176Y-121063845D01*
X183615660Y-121051087D01*
X183593747Y-121033925D01*
X183574077Y-121013207D01*
X183555828Y-120988190D01*
X183525725Y-120930000D01*
X183801048Y-120234396D01*
X183615240Y-120234396D01*
X183471076Y-120630680D01*
X183428028Y-120756099D01*
X183385713Y-120634221D01*
X183240205Y-120234396D01*
X183061236Y-120234396D01*
X183304380Y-120852269D01*
G37*
G36*
X181737257Y-120504040D02*
G01*
X181737620Y-120467760D01*
X181741043Y-120439987D01*
X181747955Y-120415111D01*
X181757407Y-120396390D01*
X181770191Y-120381352D01*
X181785129Y-120371294D01*
X181802335Y-120365415D01*
X181822620Y-120363356D01*
X181858704Y-120370310D01*
X181898824Y-120393398D01*
X181937076Y-120429773D01*
X181985225Y-120492316D01*
X181985225Y-120930000D01*
X182156011Y-120930000D01*
X182156011Y-120234396D01*
X182005069Y-120234396D01*
X181998902Y-120339909D01*
X181960312Y-120291671D01*
X181912501Y-120254729D01*
X181885026Y-120241155D01*
X181854066Y-120230976D01*
X181821048Y-120224823D01*
X181783724Y-120222672D01*
X181733103Y-120227338D01*
X181690484Y-120240563D01*
X181653095Y-120262739D01*
X181622158Y-120293564D01*
X181598609Y-120331981D01*
X181581186Y-120381613D01*
X181571888Y-120436767D01*
X181569890Y-120504040D01*
X181737257Y-120504040D01*
G37*
G36*
X181006666Y-120043276D02*
G01*
X181008750Y-120065319D01*
X181014909Y-120085774D01*
X181024768Y-120104464D01*
X181037807Y-120120457D01*
X181053673Y-120133588D01*
X181072306Y-120143782D01*
X181092751Y-120150154D01*
X181115293Y-120152330D01*
X181137886Y-120150163D01*
X181158646Y-120143782D01*
X181177546Y-120133573D01*
X181193511Y-120120457D01*
X181206515Y-120104470D01*
X181216409Y-120085774D01*
X181222522Y-120065322D01*
X181224591Y-120043276D01*
X181222520Y-120021177D01*
X181216409Y-120000717D01*
X181206529Y-119981965D01*
X181193511Y-119965729D01*
X181177518Y-119952335D01*
X181158646Y-119942098D01*
X181137883Y-119935671D01*
X181115293Y-119933489D01*
X181092754Y-119935679D01*
X181072306Y-119942098D01*
X181053702Y-119952319D01*
X181037807Y-119965729D01*
X181024754Y-119981972D01*
X181014909Y-120000717D01*
X181008752Y-120021180D01*
X181006666Y-120043276D01*
G37*
G36*
X181191069Y-120363356D02*
G01*
X181387135Y-120363356D01*
X181387135Y-120234396D01*
X181020343Y-120234396D01*
X181020343Y-120801039D01*
X180820186Y-120801039D01*
X180820186Y-120930000D01*
X181411071Y-120930000D01*
X181411071Y-120801039D01*
X181191069Y-120801039D01*
X181191069Y-120363356D01*
G37*
G36*
X180232294Y-120234945D02*
G01*
X180279127Y-120226092D01*
X180331334Y-120222672D01*
X180406619Y-120228379D01*
X180474155Y-120244898D01*
X180535576Y-120273280D01*
X180587545Y-120313286D01*
X180629579Y-120364563D01*
X180662344Y-120429607D01*
X180676852Y-120477089D01*
X180686072Y-120531985D01*
X180689333Y-120595448D01*
X180684883Y-120673304D01*
X180672297Y-120740467D01*
X180650791Y-120801847D01*
X180622777Y-120850926D01*
X180586277Y-120891325D01*
X180542482Y-120921024D01*
X180492109Y-120939274D01*
X180433122Y-120945631D01*
X180397211Y-120943409D01*
X180365894Y-120937083D01*
X180336343Y-120926832D01*
X180308864Y-120913208D01*
X180258977Y-120876022D01*
X180213853Y-120827540D01*
X180209762Y-120930000D01*
X180065659Y-120930000D01*
X180065659Y-120372515D01*
X180232294Y-120372515D01*
X180232294Y-120674033D01*
X180276066Y-120729031D01*
X180313627Y-120767090D01*
X180340552Y-120786505D01*
X180367181Y-120797469D01*
X180394227Y-120801039D01*
X180421764Y-120797989D01*
X180445457Y-120789193D01*
X180465808Y-120774196D01*
X180483375Y-120751458D01*
X180496405Y-120723348D01*
X180506639Y-120685268D01*
X180512330Y-120642782D01*
X180514455Y-120587815D01*
X180511244Y-120535675D01*
X180502182Y-120491034D01*
X180486832Y-120450432D01*
X180467011Y-120418066D01*
X180441657Y-120391424D01*
X180411995Y-120371844D01*
X180378334Y-120359730D01*
X180339577Y-120355540D01*
X180281142Y-120360303D01*
X180232294Y-120372515D01*
X180065659Y-120372515D01*
X180065659Y-119964752D01*
X180232294Y-119964752D01*
X180232294Y-120234945D01*
G37*
G36*
X179463417Y-120930000D02*
G01*
X179463417Y-120480654D01*
X179467749Y-120435164D01*
X179478985Y-120404267D01*
X179495648Y-120383905D01*
X179518030Y-120371663D01*
X179548108Y-120367264D01*
X179575166Y-120370827D01*
X179601918Y-120381785D01*
X179629075Y-120401214D01*
X179666923Y-120439180D01*
X179710713Y-120493538D01*
X179710713Y-120930000D01*
X179877409Y-120930000D01*
X179877409Y-119964752D01*
X179710713Y-119964752D01*
X179710713Y-120203438D01*
X179718895Y-120329651D01*
X179675908Y-120284344D01*
X179628770Y-120250638D01*
X179574120Y-120229816D01*
X179543877Y-120224533D01*
X179509213Y-120222672D01*
X179458112Y-120227257D01*
X179416339Y-120240075D01*
X179379784Y-120261135D01*
X179350088Y-120289106D01*
X179327038Y-120323482D01*
X179310094Y-120365432D01*
X179300255Y-120411638D01*
X179296782Y-120465266D01*
X179296782Y-120930000D01*
X179463417Y-120930000D01*
G37*
G36*
X178700036Y-120043276D02*
G01*
X178702121Y-120065319D01*
X178708279Y-120085774D01*
X178718139Y-120104464D01*
X178731177Y-120120457D01*
X178747044Y-120133588D01*
X178765676Y-120143782D01*
X178786121Y-120150154D01*
X178808663Y-120152330D01*
X178831257Y-120150163D01*
X178852016Y-120143782D01*
X178870917Y-120133573D01*
X178886882Y-120120457D01*
X178899886Y-120104470D01*
X178909780Y-120085774D01*
X178915892Y-120065322D01*
X178917962Y-120043276D01*
X178915891Y-120021177D01*
X178909780Y-120000717D01*
X178899900Y-119981965D01*
X178886882Y-119965729D01*
X178870888Y-119952335D01*
X178852016Y-119942098D01*
X178831254Y-119935671D01*
X178808663Y-119933489D01*
X178786124Y-119935679D01*
X178765676Y-119942098D01*
X178747072Y-119952319D01*
X178731177Y-119965729D01*
X178718124Y-119981972D01*
X178708279Y-120000717D01*
X178702122Y-120021180D01*
X178700036Y-120043276D01*
G37*
G36*
X178884439Y-120363356D02*
G01*
X179080505Y-120363356D01*
X179080505Y-120234396D01*
X178713714Y-120234396D01*
X178713714Y-120801039D01*
X178513557Y-120801039D01*
X178513557Y-120930000D01*
X179104441Y-120930000D01*
X179104441Y-120801039D01*
X178884439Y-120801039D01*
X178884439Y-120363356D01*
G37*
G36*
X177849827Y-120930000D02*
G01*
X177849827Y-120458977D01*
X177851231Y-120413731D01*
X177856666Y-120381430D01*
X177868633Y-120362013D01*
X177877499Y-120357287D01*
X177890127Y-120355540D01*
X177909691Y-120361722D01*
X177931831Y-120384117D01*
X177951543Y-120418269D01*
X177978299Y-120481448D01*
X177978299Y-120930000D01*
X178121058Y-120930000D01*
X178121058Y-120458977D01*
X178122463Y-120413731D01*
X178127897Y-120381430D01*
X178140170Y-120362013D01*
X178149345Y-120357274D01*
X178162030Y-120355540D01*
X178178900Y-120361360D01*
X178201659Y-120384117D01*
X178222489Y-120418346D01*
X178250141Y-120481448D01*
X178250141Y-120930000D01*
X178394305Y-120930000D01*
X178394305Y-120234396D01*
X178270657Y-120234396D01*
X178267909Y-120335696D01*
X178237868Y-120283916D01*
X178205750Y-120248562D01*
X178187900Y-120236608D01*
X178169235Y-120228717D01*
X178125150Y-120222672D01*
X178087579Y-120226413D01*
X178058758Y-120236644D01*
X178036673Y-120252653D01*
X178019809Y-120274344D01*
X178008200Y-120301560D01*
X178002173Y-120335696D01*
X177969750Y-120283916D01*
X177936289Y-120248562D01*
X177918025Y-120236633D01*
X177898675Y-120228717D01*
X177853979Y-120222672D01*
X177806194Y-120229024D01*
X177769786Y-120246697D01*
X177741933Y-120275612D01*
X177723156Y-120312762D01*
X177710493Y-120363654D01*
X177705724Y-120432294D01*
X177705724Y-120930000D01*
X177849827Y-120930000D01*
G37*
G36*
X176312074Y-120930000D02*
G01*
X176312074Y-120458977D01*
X176313478Y-120413731D01*
X176318913Y-120381430D01*
X176330881Y-120362013D01*
X176339746Y-120357287D01*
X176352374Y-120355540D01*
X176371938Y-120361722D01*
X176394078Y-120384117D01*
X176413790Y-120418269D01*
X176440546Y-120481448D01*
X176440546Y-120930000D01*
X176583306Y-120930000D01*
X176583306Y-120458977D01*
X176584710Y-120413731D01*
X176590144Y-120381430D01*
X176602418Y-120362013D01*
X176611592Y-120357274D01*
X176624277Y-120355540D01*
X176641147Y-120361360D01*
X176663906Y-120384117D01*
X176684736Y-120418346D01*
X176712388Y-120481448D01*
X176712388Y-120930000D01*
X176856552Y-120930000D01*
X176856552Y-120234396D01*
X176732904Y-120234396D01*
X176730157Y-120335696D01*
X176700115Y-120283916D01*
X176667997Y-120248562D01*
X176650147Y-120236608D01*
X176631482Y-120228717D01*
X176587397Y-120222672D01*
X176549826Y-120226413D01*
X176521005Y-120236644D01*
X176498920Y-120252653D01*
X176482056Y-120274344D01*
X176470447Y-120301560D01*
X176464420Y-120335696D01*
X176431997Y-120283916D01*
X176398536Y-120248562D01*
X176380272Y-120236633D01*
X176360922Y-120228717D01*
X176316226Y-120222672D01*
X176268441Y-120229024D01*
X176232033Y-120246697D01*
X176204180Y-120275612D01*
X176185403Y-120312762D01*
X176172740Y-120363654D01*
X176167971Y-120432294D01*
X176167971Y-120930000D01*
X176312074Y-120930000D01*
G37*
G36*
X175818371Y-120226044D02*
G01*
X175884466Y-120235983D01*
X175947451Y-120251505D01*
X175999565Y-120269567D01*
X175999565Y-120402435D01*
X175942599Y-120379375D01*
X175883794Y-120362135D01*
X175823588Y-120351327D01*
X175762527Y-120347725D01*
X175725216Y-120350004D01*
X175696948Y-120356090D01*
X175672178Y-120366449D01*
X175653534Y-120379659D01*
X175639141Y-120396477D01*
X175629293Y-120416723D01*
X175623735Y-120439400D01*
X175621782Y-120465633D01*
X175621782Y-120507948D01*
X175712641Y-120507948D01*
X175795778Y-120512492D01*
X175862606Y-120524923D01*
X175922814Y-120545773D01*
X175969218Y-120571634D01*
X176006896Y-120604835D01*
X176032721Y-120642770D01*
X176048270Y-120685680D01*
X176053543Y-120732896D01*
X176049935Y-120778997D01*
X176039560Y-120819663D01*
X176022031Y-120856335D01*
X175998222Y-120886707D01*
X175968057Y-120911163D01*
X175930566Y-120930061D01*
X175888269Y-120941529D01*
X175837021Y-120945631D01*
X175797591Y-120943601D01*
X175762894Y-120937815D01*
X175730041Y-120928288D01*
X175700368Y-120915772D01*
X175647794Y-120882128D01*
X175601999Y-120839691D01*
X175597908Y-120930000D01*
X175455087Y-120930000D01*
X175455087Y-120716592D01*
X175621782Y-120716592D01*
X175666946Y-120759310D01*
X175704459Y-120787911D01*
X175742525Y-120806951D01*
X175776877Y-120812763D01*
X175820501Y-120806868D01*
X175851371Y-120790903D01*
X175866251Y-120774570D01*
X175875394Y-120753861D01*
X175878665Y-120727400D01*
X175876514Y-120707063D01*
X175870116Y-120688077D01*
X175859313Y-120670939D01*
X175843128Y-120655471D01*
X175822783Y-120643220D01*
X175795317Y-120633244D01*
X175764257Y-120627379D01*
X175723571Y-120625184D01*
X175621782Y-120625184D01*
X175621782Y-120716592D01*
X175455087Y-120716592D01*
X175455087Y-120457084D01*
X175459602Y-120400722D01*
X175472184Y-120354563D01*
X175493992Y-120314186D01*
X175525123Y-120281290D01*
X175564625Y-120256240D01*
X175616348Y-120237327D01*
X175674525Y-120226631D01*
X175748850Y-120222672D01*
X175818371Y-120226044D01*
G37*
G36*
X174850158Y-120930000D02*
G01*
X174850158Y-120480654D01*
X174854490Y-120435164D01*
X174865726Y-120404267D01*
X174882389Y-120383905D01*
X174904771Y-120371663D01*
X174934849Y-120367264D01*
X174961907Y-120370827D01*
X174988659Y-120381785D01*
X175015816Y-120401214D01*
X175053664Y-120439180D01*
X175097454Y-120493538D01*
X175097454Y-120930000D01*
X175264150Y-120930000D01*
X175264150Y-120234396D01*
X175119986Y-120234396D01*
X175115894Y-120337100D01*
X175071870Y-120289900D01*
X175022349Y-120253630D01*
X174994780Y-120240429D01*
X174964952Y-120230671D01*
X174933129Y-120224767D01*
X174895954Y-120222672D01*
X174844853Y-120227257D01*
X174803080Y-120240075D01*
X174766525Y-120261135D01*
X174736830Y-120289106D01*
X174713779Y-120323482D01*
X174696835Y-120365432D01*
X174686996Y-120411638D01*
X174683524Y-120465266D01*
X174683524Y-120930000D01*
X174850158Y-120930000D01*
G37*
G36*
X174086777Y-120043276D02*
G01*
X174088862Y-120065319D01*
X174095020Y-120085774D01*
X174104880Y-120104464D01*
X174117918Y-120120457D01*
X174133785Y-120133588D01*
X174152418Y-120143782D01*
X174172862Y-120150154D01*
X174195404Y-120152330D01*
X174217998Y-120150163D01*
X174238757Y-120143782D01*
X174257658Y-120133573D01*
X174273623Y-120120457D01*
X174286627Y-120104470D01*
X174296521Y-120085774D01*
X174302633Y-120065322D01*
X174304703Y-120043276D01*
X174302632Y-120021177D01*
X174296521Y-120000717D01*
X174286641Y-119981965D01*
X174273623Y-119965729D01*
X174257629Y-119952335D01*
X174238757Y-119942098D01*
X174217995Y-119935671D01*
X174195404Y-119933489D01*
X174172865Y-119935679D01*
X174152418Y-119942098D01*
X174133814Y-119952319D01*
X174117918Y-119965729D01*
X174104865Y-119981972D01*
X174095020Y-120000717D01*
X174088863Y-120021180D01*
X174086777Y-120043276D01*
G37*
G36*
X174271181Y-120363356D02*
G01*
X174467247Y-120363356D01*
X174467247Y-120234396D01*
X174100455Y-120234396D01*
X174100455Y-120801039D01*
X173900298Y-120801039D01*
X173900298Y-120930000D01*
X174491182Y-120930000D01*
X174491182Y-120801039D01*
X174271181Y-120801039D01*
X174271181Y-120363356D01*
G37*
G36*
X173296713Y-120930000D02*
G01*
X173552862Y-120582991D01*
X173552862Y-120930000D01*
X173719558Y-120930000D01*
X173719558Y-119964752D01*
X173552862Y-119964752D01*
X173552862Y-120529685D01*
X173310390Y-120234396D01*
X173102051Y-120234396D01*
X173383480Y-120551362D01*
X173078787Y-120930000D01*
X173296713Y-120930000D01*
G37*
G36*
X171968565Y-120226805D02*
G01*
X172020971Y-120238731D01*
X172068891Y-120258834D01*
X172108777Y-120285870D01*
X172141517Y-120320372D01*
X172166479Y-120362379D01*
X172181897Y-120409950D01*
X172187301Y-120465816D01*
X172182774Y-120517063D01*
X172170570Y-120555636D01*
X172151394Y-120589219D01*
X172128499Y-120616758D01*
X172155854Y-120650219D01*
X172178752Y-120685757D01*
X172194811Y-120724286D01*
X172200917Y-120767700D01*
X172196585Y-120800743D01*
X172183515Y-120831875D01*
X172162426Y-120858866D01*
X172132651Y-120881029D01*
X172176371Y-120916383D01*
X172207145Y-120952714D01*
X172225586Y-120991732D01*
X172231692Y-121035940D01*
X172227033Y-121073897D01*
X172213251Y-121108236D01*
X172190423Y-121138254D01*
X172156221Y-121164961D01*
X172114174Y-121185374D01*
X172057180Y-121202025D01*
X171993700Y-121211690D01*
X171912650Y-121215275D01*
X171828784Y-121210370D01*
X171760303Y-121196835D01*
X171698521Y-121174396D01*
X171650699Y-121146765D01*
X171611685Y-121111762D01*
X171584754Y-121072210D01*
X171568364Y-121027947D01*
X171564485Y-120994602D01*
X171735024Y-120994602D01*
X171737235Y-121014339D01*
X171743939Y-121033558D01*
X171755376Y-121050816D01*
X171773309Y-121066470D01*
X171795728Y-121078778D01*
X171826249Y-121089307D01*
X171860571Y-121095655D01*
X171905811Y-121098039D01*
X171975107Y-121092692D01*
X172020300Y-121079232D01*
X172043495Y-121063766D01*
X172056482Y-121044687D01*
X172060905Y-121020797D01*
X172058524Y-120995212D01*
X172048998Y-120971338D01*
X172029153Y-120947524D01*
X171996669Y-120922001D01*
X171849818Y-120924748D01*
X171803717Y-120930427D01*
X171767508Y-120943189D01*
X171743572Y-120964010D01*
X171737261Y-120977533D01*
X171735024Y-120994602D01*
X171564485Y-120994602D01*
X171562894Y-120980924D01*
X171567394Y-120940402D01*
X171580357Y-120905636D01*
X171601261Y-120875277D01*
X171629877Y-120849460D01*
X171664337Y-120829275D01*
X171706692Y-120813679D01*
X171752980Y-120804005D01*
X171806770Y-120799635D01*
X171971390Y-120793468D01*
X172004546Y-120787362D01*
X172029825Y-120773501D01*
X172045884Y-120754145D01*
X172051318Y-120732468D01*
X172049226Y-120715588D01*
X172043136Y-120700961D01*
X172023353Y-120675498D01*
X172005538Y-120683889D01*
X171976946Y-120692290D01*
X171945389Y-120697586D01*
X171909963Y-120699434D01*
X171850096Y-120695462D01*
X171797550Y-120684108D01*
X171749594Y-120664726D01*
X171710111Y-120638679D01*
X171677742Y-120605134D01*
X171653386Y-120564185D01*
X171638496Y-120517495D01*
X171633294Y-120462336D01*
X171788330Y-120462336D01*
X171795840Y-120509291D01*
X171805283Y-120530452D01*
X171818372Y-120548736D01*
X171835128Y-120563849D01*
X171856290Y-120575908D01*
X171880456Y-120583424D01*
X171909902Y-120586106D01*
X171947319Y-120582171D01*
X171976920Y-120571237D01*
X172000455Y-120553804D01*
X172018088Y-120530434D01*
X172028997Y-120501810D01*
X172032878Y-120466427D01*
X172025368Y-120418128D01*
X172015899Y-120396291D01*
X172002836Y-120377644D01*
X171986052Y-120362239D01*
X171964918Y-120350106D01*
X171940752Y-120342591D01*
X171911306Y-120339909D01*
X171873890Y-120343845D01*
X171844312Y-120354780D01*
X171820814Y-120372210D01*
X171803271Y-120395642D01*
X171792282Y-120425102D01*
X171788330Y-120462336D01*
X171633294Y-120462336D01*
X171633236Y-120461725D01*
X171635204Y-120434038D01*
X171641113Y-120406892D01*
X171651633Y-120380906D01*
X171668101Y-120355540D01*
X171558803Y-120355540D01*
X171558803Y-120234396D01*
X171799260Y-120234396D01*
X171850856Y-120225298D01*
X171909963Y-120222672D01*
X171968565Y-120226805D01*
G37*
G36*
X170972986Y-120504040D02*
G01*
X170973349Y-120467760D01*
X170976772Y-120439987D01*
X170983684Y-120415111D01*
X170993136Y-120396390D01*
X171005920Y-120381352D01*
X171020858Y-120371294D01*
X171038064Y-120365415D01*
X171058349Y-120363356D01*
X171094434Y-120370310D01*
X171134553Y-120393398D01*
X171172805Y-120429773D01*
X171220954Y-120492316D01*
X171220954Y-120930000D01*
X171391741Y-120930000D01*
X171391741Y-120234396D01*
X171240799Y-120234396D01*
X171234631Y-120339909D01*
X171196041Y-120291671D01*
X171148230Y-120254729D01*
X171120755Y-120241155D01*
X171089795Y-120230976D01*
X171056777Y-120224823D01*
X171019453Y-120222672D01*
X170968832Y-120227338D01*
X170926214Y-120240563D01*
X170888824Y-120262739D01*
X170857887Y-120293564D01*
X170834338Y-120331981D01*
X170816915Y-120381613D01*
X170807617Y-120436767D01*
X170805619Y-120504040D01*
X170972986Y-120504040D01*
G37*
G36*
X170431558Y-120229484D02*
G01*
X170497873Y-120248928D01*
X170556886Y-120280762D01*
X170605462Y-120322873D01*
X170643972Y-120374827D01*
X170673056Y-120438033D01*
X170690521Y-120507863D01*
X170696625Y-120587876D01*
X170690653Y-120673942D01*
X170674094Y-120744314D01*
X170646037Y-120806770D01*
X170609187Y-120856055D01*
X170562545Y-120894904D01*
X170506055Y-120923161D01*
X170442656Y-120939765D01*
X170368058Y-120945631D01*
X170289728Y-120938712D01*
X170223283Y-120919070D01*
X170164319Y-120886806D01*
X170115999Y-120844148D01*
X170077793Y-120791554D01*
X170049077Y-120727950D01*
X170031819Y-120657844D01*
X170026121Y-120582442D01*
X170199347Y-120582442D01*
X170201812Y-120627689D01*
X170208934Y-120668660D01*
X170221151Y-120706767D01*
X170237632Y-120738269D01*
X170259672Y-120764567D01*
X170287519Y-120784431D01*
X170320166Y-120796702D01*
X170359876Y-120801039D01*
X170407808Y-120794700D01*
X170446953Y-120776593D01*
X170479433Y-120746390D01*
X170502301Y-120707471D01*
X170517477Y-120654654D01*
X170523152Y-120583785D01*
X170520789Y-120539845D01*
X170513932Y-120499644D01*
X170501837Y-120462179D01*
X170484928Y-120430767D01*
X170462322Y-120404318D01*
X170434370Y-120384239D01*
X170401386Y-120371746D01*
X170359876Y-120367264D01*
X170309718Y-120373709D01*
X170270660Y-120391741D01*
X170240013Y-120421242D01*
X170218845Y-120459483D01*
X170204672Y-120511814D01*
X170199347Y-120582442D01*
X170026121Y-120582442D01*
X170025812Y-120578351D01*
X170031685Y-120494196D01*
X170048039Y-120424722D01*
X170075759Y-120362798D01*
X170112580Y-120313347D01*
X170159203Y-120274096D01*
X170215711Y-120245509D01*
X170279210Y-120228644D01*
X170354380Y-120222672D01*
X170431558Y-120229484D01*
G37*
G36*
X169493974Y-120930000D02*
G01*
X169685949Y-120930000D01*
X169961271Y-120234396D01*
X169775464Y-120234396D01*
X169631299Y-120630985D01*
X169588251Y-120759030D01*
X169545936Y-120636481D01*
X169400429Y-120234396D01*
X169221460Y-120234396D01*
X169493974Y-120930000D01*
G37*
G36*
X168883832Y-120229602D02*
G01*
X168946809Y-120249600D01*
X169002845Y-120282223D01*
X169049635Y-120325926D01*
X169086721Y-120379430D01*
X169115214Y-120444506D01*
X169132401Y-120516061D01*
X169138417Y-120598135D01*
X169132295Y-120680243D01*
X169115214Y-120748039D01*
X169086408Y-120808266D01*
X169048230Y-120856727D01*
X169000219Y-120894983D01*
X168941680Y-120923161D01*
X168876276Y-120939768D01*
X168799591Y-120945631D01*
X168734684Y-120943128D01*
X168668433Y-120935739D01*
X168604197Y-120924565D01*
X168546128Y-120910460D01*
X168546128Y-120777592D01*
X168608003Y-120793849D01*
X168666051Y-120804520D01*
X168722974Y-120810778D01*
X168774312Y-120812763D01*
X168816768Y-120809569D01*
X168853874Y-120800429D01*
X168887486Y-120785099D01*
X168915362Y-120764525D01*
X168937873Y-120738349D01*
X168954991Y-120705968D01*
X168965301Y-120669317D01*
X168968974Y-120625184D01*
X168512667Y-120625184D01*
X168509614Y-120574199D01*
X168508576Y-120529991D01*
X168510600Y-120504040D01*
X168677958Y-120504040D01*
X168966287Y-120504040D01*
X168957013Y-120456007D01*
X168940886Y-120418214D01*
X168918476Y-120388635D01*
X168889411Y-120366085D01*
X168855495Y-120352468D01*
X168815284Y-120347725D01*
X168787285Y-120350103D01*
X168761673Y-120357067D01*
X168738282Y-120368835D01*
X168717953Y-120385643D01*
X168701410Y-120407037D01*
X168688217Y-120434553D01*
X168680345Y-120465649D01*
X168677958Y-120504040D01*
X168510600Y-120504040D01*
X168513682Y-120464521D01*
X168528421Y-120406282D01*
X168553069Y-120353323D01*
X168586489Y-120309012D01*
X168628818Y-120273076D01*
X168681439Y-120245448D01*
X168740829Y-120228640D01*
X168811864Y-120222672D01*
X168883832Y-120229602D01*
G37*
G36*
X167897480Y-120504040D02*
G01*
X167897843Y-120467760D01*
X167901266Y-120439987D01*
X167908178Y-120415111D01*
X167917630Y-120396390D01*
X167930414Y-120381352D01*
X167945352Y-120371294D01*
X167962558Y-120365415D01*
X167982843Y-120363356D01*
X168018928Y-120370310D01*
X168059047Y-120393398D01*
X168097299Y-120429773D01*
X168145448Y-120492316D01*
X168145448Y-120930000D01*
X168316235Y-120930000D01*
X168316235Y-120234396D01*
X168165293Y-120234396D01*
X168159125Y-120339909D01*
X168120535Y-120291671D01*
X168072725Y-120254729D01*
X168045249Y-120241155D01*
X168014289Y-120230976D01*
X167981271Y-120224823D01*
X167943948Y-120222672D01*
X167893326Y-120227338D01*
X167850708Y-120240563D01*
X167813318Y-120262739D01*
X167782381Y-120293564D01*
X167758832Y-120331981D01*
X167741409Y-120381613D01*
X167732111Y-120436767D01*
X167730113Y-120504040D01*
X167897480Y-120504040D01*
G37*
G36*
X187921058Y-122610000D02*
G01*
X187921058Y-122160654D01*
X187925391Y-122115164D01*
X187936626Y-122084267D01*
X187953290Y-122063905D01*
X187975672Y-122051663D01*
X188005750Y-122047264D01*
X188032807Y-122050827D01*
X188059559Y-122061785D01*
X188086716Y-122081214D01*
X188124565Y-122119180D01*
X188168354Y-122173538D01*
X188168354Y-122610000D01*
X188335050Y-122610000D01*
X188335050Y-121644752D01*
X188168354Y-121644752D01*
X188168354Y-121883438D01*
X188176536Y-122009651D01*
X188133550Y-121964344D01*
X188086411Y-121930638D01*
X188031762Y-121909816D01*
X188001519Y-121904533D01*
X187966854Y-121902672D01*
X187915754Y-121907257D01*
X187873981Y-121920075D01*
X187837425Y-121941135D01*
X187807730Y-121969106D01*
X187784679Y-122003482D01*
X187767735Y-122045432D01*
X187757896Y-122091638D01*
X187754424Y-122145266D01*
X187754424Y-122610000D01*
X187921058Y-122610000D01*
G37*
G36*
X186993729Y-122602184D02*
G01*
X187084588Y-122619220D01*
X187171355Y-122625631D01*
X187237150Y-122621757D01*
X187289202Y-122611221D01*
X187335289Y-122592595D01*
X187371207Y-122567318D01*
X187399093Y-122534231D01*
X187419017Y-122492213D01*
X187430237Y-122444143D01*
X187434344Y-122383525D01*
X187434344Y-122043356D01*
X187620823Y-122043356D01*
X187620823Y-121914396D01*
X187434344Y-121914396D01*
X187434344Y-121736221D01*
X187263557Y-121691646D01*
X187263557Y-121914396D01*
X186993729Y-121914396D01*
X186993729Y-122043356D01*
X187263557Y-122043356D01*
X187263557Y-122371802D01*
X187260076Y-122410776D01*
X187250674Y-122440162D01*
X187236263Y-122462172D01*
X187215843Y-122478152D01*
X187186386Y-122488745D01*
X187144672Y-122492763D01*
X187064804Y-122485680D01*
X186993729Y-122469316D01*
X186993729Y-122602184D01*
G37*
G36*
X186224853Y-122602184D02*
G01*
X186315711Y-122619220D01*
X186402479Y-122625631D01*
X186468273Y-122621757D01*
X186520326Y-122611221D01*
X186566413Y-122592595D01*
X186602330Y-122567318D01*
X186630217Y-122534231D01*
X186650141Y-122492213D01*
X186661361Y-122444143D01*
X186665467Y-122383525D01*
X186665467Y-122043356D01*
X186851946Y-122043356D01*
X186851946Y-121914396D01*
X186665467Y-121914396D01*
X186665467Y-121736221D01*
X186494680Y-121691646D01*
X186494680Y-121914396D01*
X186224853Y-121914396D01*
X186224853Y-122043356D01*
X186494680Y-122043356D01*
X186494680Y-122371802D01*
X186491199Y-122410776D01*
X186481798Y-122440162D01*
X186467386Y-122462172D01*
X186446967Y-122478152D01*
X186417509Y-122488745D01*
X186375795Y-122492763D01*
X186295928Y-122485680D01*
X186224853Y-122469316D01*
X186224853Y-122602184D01*
G37*
G36*
X185697400Y-121904767D02*
G01*
X185729223Y-121910671D01*
X185759051Y-121920429D01*
X185786620Y-121933630D01*
X185836140Y-121969900D01*
X185880165Y-122017100D01*
X185884256Y-121914396D01*
X186028421Y-121914396D01*
X186028421Y-122879644D01*
X185861725Y-122879644D01*
X185861725Y-122609450D01*
X185814586Y-122618304D01*
X185762684Y-122621723D01*
X185687447Y-122616048D01*
X185619924Y-122599619D01*
X185558434Y-122571350D01*
X185506229Y-122531536D01*
X185463869Y-122480492D01*
X185431064Y-122416132D01*
X185416563Y-122369050D01*
X185407340Y-122314506D01*
X185404435Y-122258290D01*
X185578953Y-122258290D01*
X185582178Y-122310012D01*
X185591287Y-122354338D01*
X185606597Y-122394641D01*
X185626458Y-122426817D01*
X185651812Y-122453207D01*
X185681779Y-122472674D01*
X185715607Y-122484720D01*
X185753831Y-122488855D01*
X185812937Y-122484153D01*
X185861725Y-122472002D01*
X185861725Y-122172683D01*
X185817940Y-122118680D01*
X185780087Y-122080969D01*
X185752947Y-122061686D01*
X185726213Y-122050803D01*
X185699181Y-122047264D01*
X185671694Y-122050309D01*
X185648318Y-122059049D01*
X185628211Y-122073893D01*
X185610704Y-122096479D01*
X185597592Y-122124350D01*
X185587135Y-122161875D01*
X185581183Y-122203736D01*
X185578953Y-122258290D01*
X185404435Y-122258290D01*
X185404075Y-122251329D01*
X185408558Y-122173231D01*
X185421172Y-122106615D01*
X185442627Y-122045809D01*
X185470692Y-121997011D01*
X185507142Y-121956753D01*
X185550926Y-121927219D01*
X185601243Y-121909016D01*
X185660225Y-121902672D01*
X185697400Y-121904767D01*
G37*
G36*
X184687100Y-122406240D02*
G01*
X184693983Y-122462332D01*
X184713417Y-122507418D01*
X184743852Y-122545289D01*
X184783087Y-122575561D01*
X184828720Y-122597937D01*
X184881456Y-122613663D01*
X184936885Y-122622625D01*
X184993808Y-122625631D01*
X185068476Y-122623519D01*
X185131805Y-122617632D01*
X185192233Y-122607686D01*
X185247943Y-122594368D01*
X185247943Y-122445868D01*
X185183266Y-122469095D01*
X185119837Y-122484642D01*
X185056712Y-122493768D01*
X184999303Y-122496671D01*
X184938539Y-122490832D01*
X184901301Y-122476338D01*
X184882697Y-122460739D01*
X184872289Y-122443325D01*
X184868817Y-122423276D01*
X184875655Y-122394638D01*
X184884788Y-122382640D01*
X184901301Y-122369787D01*
X184954241Y-122345301D01*
X185043695Y-122316969D01*
X185093079Y-122301259D01*
X185133515Y-122284607D01*
X185169550Y-122264413D01*
X185197384Y-122242048D01*
X185219536Y-122215499D01*
X185235303Y-122185139D01*
X185244596Y-122151059D01*
X185247943Y-122109118D01*
X185243158Y-122068044D01*
X185228831Y-122029434D01*
X185205391Y-121994716D01*
X185171800Y-121963672D01*
X185130514Y-121939011D01*
X185077156Y-121919036D01*
X185017818Y-121907034D01*
X184944654Y-121902672D01*
X184828517Y-121908778D01*
X184739002Y-121922212D01*
X184739002Y-122058988D01*
X184797847Y-122042236D01*
X184850682Y-122031755D01*
X184902886Y-122025786D01*
X184954180Y-122023817D01*
X185002203Y-122028948D01*
X185036489Y-122042623D01*
X185054106Y-122057186D01*
X185064150Y-122074280D01*
X185067569Y-122094830D01*
X185061463Y-122122796D01*
X185053032Y-122134145D01*
X185037222Y-122146610D01*
X184986664Y-122170851D01*
X184900874Y-122198389D01*
X184843452Y-122216788D01*
X184799818Y-122234842D01*
X184761758Y-122256282D01*
X184733934Y-122278806D01*
X184712352Y-122305232D01*
X184698030Y-122334677D01*
X184689968Y-122367356D01*
X184687100Y-122406240D01*
G37*
G36*
X184200996Y-121910488D02*
G01*
X184175728Y-121912919D01*
X184152513Y-121920075D01*
X184131417Y-121931519D01*
X184113618Y-121946392D01*
X184098988Y-121964481D01*
X184087667Y-121985715D01*
X184080494Y-122008893D01*
X184078080Y-122033586D01*
X184080511Y-122058915D01*
X184087667Y-122082191D01*
X184098999Y-122103318D01*
X184113618Y-122121147D01*
X184131391Y-122135728D01*
X184152513Y-122147098D01*
X184175728Y-122154254D01*
X184200996Y-122156685D01*
X184226273Y-122154246D01*
X184249234Y-122147098D01*
X184270114Y-122135768D01*
X184288129Y-122121147D01*
X184303005Y-122103298D01*
X184314446Y-122082191D01*
X184321556Y-122058918D01*
X184323972Y-122033586D01*
X184321573Y-122008890D01*
X184314446Y-121985715D01*
X184303016Y-121964501D01*
X184288129Y-121946392D01*
X184270088Y-121931480D01*
X184249234Y-121920075D01*
X184226273Y-121912927D01*
X184200996Y-121910488D01*
G37*
G36*
X184200996Y-122379434D02*
G01*
X184175728Y-122381865D01*
X184152513Y-122389021D01*
X184131395Y-122400403D01*
X184113618Y-122415033D01*
X184099006Y-122432822D01*
X184087667Y-122453989D01*
X184080497Y-122477123D01*
X184078080Y-122501861D01*
X184080510Y-122527137D01*
X184087667Y-122550404D01*
X184098988Y-122571638D01*
X184113618Y-122589727D01*
X184131417Y-122604600D01*
X184152513Y-122616045D01*
X184175728Y-122623200D01*
X184200996Y-122625631D01*
X184226273Y-122623192D01*
X184249234Y-122616045D01*
X184270088Y-122604639D01*
X184288129Y-122589727D01*
X184303016Y-122571618D01*
X184314446Y-122550404D01*
X184321558Y-122527140D01*
X184323972Y-122501861D01*
X184321570Y-122477121D01*
X184314446Y-122453989D01*
X184302998Y-122432842D01*
X184288129Y-122415033D01*
X184270110Y-122400364D01*
X184249234Y-122389021D01*
X184226273Y-122381873D01*
X184200996Y-122379434D01*
G37*
G36*
X183605654Y-122758499D02*
G01*
X183767526Y-122758499D01*
X183290764Y-121644752D01*
X183128159Y-121644752D01*
X183605654Y-122758499D01*
G37*
G36*
X182836777Y-122758499D02*
G01*
X182998649Y-122758499D01*
X182521887Y-121644752D01*
X182359282Y-121644752D01*
X182836777Y-122758499D01*
G37*
G36*
X181737257Y-122184040D02*
G01*
X181737620Y-122147760D01*
X181741043Y-122119987D01*
X181747955Y-122095111D01*
X181757407Y-122076390D01*
X181770191Y-122061352D01*
X181785129Y-122051294D01*
X181802335Y-122045415D01*
X181822620Y-122043356D01*
X181858704Y-122050310D01*
X181898824Y-122073398D01*
X181937076Y-122109773D01*
X181985225Y-122172316D01*
X181985225Y-122610000D01*
X182156011Y-122610000D01*
X182156011Y-121914396D01*
X182005069Y-121914396D01*
X181998902Y-122019909D01*
X181960312Y-121971671D01*
X181912501Y-121934729D01*
X181885026Y-121921155D01*
X181854066Y-121910976D01*
X181821048Y-121904823D01*
X181783724Y-121902672D01*
X181733103Y-121907338D01*
X181690484Y-121920563D01*
X181653095Y-121942739D01*
X181622158Y-121973564D01*
X181598609Y-122011981D01*
X181581186Y-122061613D01*
X181571888Y-122116767D01*
X181569890Y-122184040D01*
X181737257Y-122184040D01*
G37*
G36*
X181006666Y-121723276D02*
G01*
X181008750Y-121745319D01*
X181014909Y-121765774D01*
X181024768Y-121784464D01*
X181037807Y-121800457D01*
X181053673Y-121813588D01*
X181072306Y-121823782D01*
X181092751Y-121830154D01*
X181115293Y-121832330D01*
X181137886Y-121830163D01*
X181158646Y-121823782D01*
X181177546Y-121813573D01*
X181193511Y-121800457D01*
X181206515Y-121784470D01*
X181216409Y-121765774D01*
X181222522Y-121745322D01*
X181224591Y-121723276D01*
X181222520Y-121701177D01*
X181216409Y-121680717D01*
X181206529Y-121661965D01*
X181193511Y-121645729D01*
X181177518Y-121632335D01*
X181158646Y-121622098D01*
X181137883Y-121615671D01*
X181115293Y-121613489D01*
X181092754Y-121615679D01*
X181072306Y-121622098D01*
X181053702Y-121632319D01*
X181037807Y-121645729D01*
X181024754Y-121661972D01*
X181014909Y-121680717D01*
X181008752Y-121701180D01*
X181006666Y-121723276D01*
G37*
G36*
X181191069Y-122043356D02*
G01*
X181387135Y-122043356D01*
X181387135Y-121914396D01*
X181020343Y-121914396D01*
X181020343Y-122481039D01*
X180820186Y-122481039D01*
X180820186Y-122610000D01*
X181411071Y-122610000D01*
X181411071Y-122481039D01*
X181191069Y-122481039D01*
X181191069Y-122043356D01*
G37*
G36*
X180232294Y-121914945D02*
G01*
X180279127Y-121906092D01*
X180331334Y-121902672D01*
X180406619Y-121908379D01*
X180474155Y-121924898D01*
X180535576Y-121953280D01*
X180587545Y-121993286D01*
X180629579Y-122044563D01*
X180662344Y-122109607D01*
X180676852Y-122157089D01*
X180686072Y-122211985D01*
X180689333Y-122275448D01*
X180684883Y-122353304D01*
X180672297Y-122420467D01*
X180650791Y-122481847D01*
X180622777Y-122530926D01*
X180586277Y-122571325D01*
X180542482Y-122601024D01*
X180492109Y-122619274D01*
X180433122Y-122625631D01*
X180397211Y-122623409D01*
X180365894Y-122617083D01*
X180336343Y-122606832D01*
X180308864Y-122593208D01*
X180258977Y-122556022D01*
X180213853Y-122507540D01*
X180209762Y-122610000D01*
X180065659Y-122610000D01*
X180065659Y-122052515D01*
X180232294Y-122052515D01*
X180232294Y-122354033D01*
X180276066Y-122409031D01*
X180313627Y-122447090D01*
X180340552Y-122466505D01*
X180367181Y-122477469D01*
X180394227Y-122481039D01*
X180421764Y-122477989D01*
X180445457Y-122469193D01*
X180465808Y-122454196D01*
X180483375Y-122431458D01*
X180496405Y-122403348D01*
X180506639Y-122365268D01*
X180512330Y-122322782D01*
X180514455Y-122267815D01*
X180511244Y-122215675D01*
X180502182Y-122171034D01*
X180486832Y-122130432D01*
X180467011Y-122098066D01*
X180441657Y-122071424D01*
X180411995Y-122051844D01*
X180378334Y-122039730D01*
X180339577Y-122035540D01*
X180281142Y-122040303D01*
X180232294Y-122052515D01*
X180065659Y-122052515D01*
X180065659Y-121644752D01*
X180232294Y-121644752D01*
X180232294Y-121914945D01*
G37*
G36*
X179463417Y-122610000D02*
G01*
X179463417Y-122160654D01*
X179467749Y-122115164D01*
X179478985Y-122084267D01*
X179495648Y-122063905D01*
X179518030Y-122051663D01*
X179548108Y-122047264D01*
X179575166Y-122050827D01*
X179601918Y-122061785D01*
X179629075Y-122081214D01*
X179666923Y-122119180D01*
X179710713Y-122173538D01*
X179710713Y-122610000D01*
X179877409Y-122610000D01*
X179877409Y-121644752D01*
X179710713Y-121644752D01*
X179710713Y-121883438D01*
X179718895Y-122009651D01*
X179675908Y-121964344D01*
X179628770Y-121930638D01*
X179574120Y-121909816D01*
X179543877Y-121904533D01*
X179509213Y-121902672D01*
X179458112Y-121907257D01*
X179416339Y-121920075D01*
X179379784Y-121941135D01*
X179350088Y-121969106D01*
X179327038Y-122003482D01*
X179310094Y-122045432D01*
X179300255Y-122091638D01*
X179296782Y-122145266D01*
X179296782Y-122610000D01*
X179463417Y-122610000D01*
G37*
G36*
X178700036Y-121723276D02*
G01*
X178702121Y-121745319D01*
X178708279Y-121765774D01*
X178718139Y-121784464D01*
X178731177Y-121800457D01*
X178747044Y-121813588D01*
X178765676Y-121823782D01*
X178786121Y-121830154D01*
X178808663Y-121832330D01*
X178831257Y-121830163D01*
X178852016Y-121823782D01*
X178870917Y-121813573D01*
X178886882Y-121800457D01*
X178899886Y-121784470D01*
X178909780Y-121765774D01*
X178915892Y-121745322D01*
X178917962Y-121723276D01*
X178915891Y-121701177D01*
X178909780Y-121680717D01*
X178899900Y-121661965D01*
X178886882Y-121645729D01*
X178870888Y-121632335D01*
X178852016Y-121622098D01*
X178831254Y-121615671D01*
X178808663Y-121613489D01*
X178786124Y-121615679D01*
X178765676Y-121622098D01*
X178747072Y-121632319D01*
X178731177Y-121645729D01*
X178718124Y-121661972D01*
X178708279Y-121680717D01*
X178702122Y-121701180D01*
X178700036Y-121723276D01*
G37*
G36*
X178884439Y-122043356D02*
G01*
X179080505Y-122043356D01*
X179080505Y-121914396D01*
X178713714Y-121914396D01*
X178713714Y-122481039D01*
X178513557Y-122481039D01*
X178513557Y-122610000D01*
X179104441Y-122610000D01*
X179104441Y-122481039D01*
X178884439Y-122481039D01*
X178884439Y-122043356D01*
G37*
G36*
X177849827Y-122610000D02*
G01*
X177849827Y-122138977D01*
X177851231Y-122093731D01*
X177856666Y-122061430D01*
X177868633Y-122042013D01*
X177877499Y-122037287D01*
X177890127Y-122035540D01*
X177909691Y-122041722D01*
X177931831Y-122064117D01*
X177951543Y-122098269D01*
X177978299Y-122161448D01*
X177978299Y-122610000D01*
X178121058Y-122610000D01*
X178121058Y-122138977D01*
X178122463Y-122093731D01*
X178127897Y-122061430D01*
X178140170Y-122042013D01*
X178149345Y-122037274D01*
X178162030Y-122035540D01*
X178178900Y-122041360D01*
X178201659Y-122064117D01*
X178222489Y-122098346D01*
X178250141Y-122161448D01*
X178250141Y-122610000D01*
X178394305Y-122610000D01*
X178394305Y-121914396D01*
X178270657Y-121914396D01*
X178267909Y-122015696D01*
X178237868Y-121963916D01*
X178205750Y-121928562D01*
X178187900Y-121916608D01*
X178169235Y-121908717D01*
X178125150Y-121902672D01*
X178087579Y-121906413D01*
X178058758Y-121916644D01*
X178036673Y-121932653D01*
X178019809Y-121954344D01*
X178008200Y-121981560D01*
X178002173Y-122015696D01*
X177969750Y-121963916D01*
X177936289Y-121928562D01*
X177918025Y-121916633D01*
X177898675Y-121908717D01*
X177853979Y-121902672D01*
X177806194Y-121909024D01*
X177769786Y-121926697D01*
X177741933Y-121955612D01*
X177723156Y-121992762D01*
X177710493Y-122043654D01*
X177705724Y-122112294D01*
X177705724Y-122610000D01*
X177849827Y-122610000D01*
G37*
G36*
X177285259Y-122355987D02*
G01*
X177257373Y-122358704D01*
X177232015Y-122366673D01*
X177208931Y-122379280D01*
X177189333Y-122395554D01*
X177173242Y-122415286D01*
X177160940Y-122438541D01*
X177153279Y-122463973D01*
X177150682Y-122491481D01*
X177153270Y-122518363D01*
X177160940Y-122543443D01*
X177173217Y-122566401D01*
X177189333Y-122586125D01*
X177208926Y-122602351D01*
X177232015Y-122614945D01*
X177257373Y-122622914D01*
X177285259Y-122625631D01*
X177311840Y-122622933D01*
X177336489Y-122614945D01*
X177358957Y-122602377D01*
X177378194Y-122586125D01*
X177393970Y-122566431D01*
X177406160Y-122543443D01*
X177413829Y-122518363D01*
X177416418Y-122491481D01*
X177413821Y-122463973D01*
X177406160Y-122438541D01*
X177393945Y-122415255D01*
X177378194Y-122395554D01*
X177358953Y-122379253D01*
X177336489Y-122366673D01*
X177311840Y-122358685D01*
X177285259Y-122355987D01*
G37*
G36*
X176393407Y-121723276D02*
G01*
X176395491Y-121745319D01*
X176401650Y-121765774D01*
X176411509Y-121784464D01*
X176424548Y-121800457D01*
X176440415Y-121813588D01*
X176459047Y-121823782D01*
X176479492Y-121830154D01*
X176502034Y-121832330D01*
X176524627Y-121830163D01*
X176545387Y-121823782D01*
X176564287Y-121813573D01*
X176580252Y-121800457D01*
X176593256Y-121784470D01*
X176603150Y-121765774D01*
X176609263Y-121745322D01*
X176611332Y-121723276D01*
X176609261Y-121701177D01*
X176603150Y-121680717D01*
X176593271Y-121661965D01*
X176580252Y-121645729D01*
X176564259Y-121632335D01*
X176545387Y-121622098D01*
X176524625Y-121615671D01*
X176502034Y-121613489D01*
X176479495Y-121615679D01*
X176459047Y-121622098D01*
X176440443Y-121632319D01*
X176424548Y-121645729D01*
X176411495Y-121661972D01*
X176401650Y-121680717D01*
X176395493Y-121701180D01*
X176393407Y-121723276D01*
G37*
G36*
X176577810Y-122043356D02*
G01*
X176773876Y-122043356D01*
X176773876Y-121914396D01*
X176407084Y-121914396D01*
X176407084Y-122481039D01*
X176206927Y-122481039D01*
X176206927Y-122610000D01*
X176797812Y-122610000D01*
X176797812Y-122481039D01*
X176577810Y-122481039D01*
X176577810Y-122043356D01*
G37*
G36*
X175619035Y-122610000D02*
G01*
X175619035Y-122160654D01*
X175623367Y-122115164D01*
X175634603Y-122084267D01*
X175651266Y-122063905D01*
X175673648Y-122051663D01*
X175703726Y-122047264D01*
X175730784Y-122050827D01*
X175757535Y-122061785D01*
X175784692Y-122081214D01*
X175822541Y-122119180D01*
X175866331Y-122173538D01*
X175866331Y-122610000D01*
X176033026Y-122610000D01*
X176033026Y-121914396D01*
X175888862Y-121914396D01*
X175884771Y-122017100D01*
X175840746Y-121969900D01*
X175791226Y-121933630D01*
X175763657Y-121920429D01*
X175733829Y-121910671D01*
X175702005Y-121904767D01*
X175664830Y-121902672D01*
X175613730Y-121907257D01*
X175571957Y-121920075D01*
X175535401Y-121941135D01*
X175505706Y-121969106D01*
X175482655Y-122003482D01*
X175465711Y-122045432D01*
X175455872Y-122091638D01*
X175452400Y-122145266D01*
X175452400Y-122610000D01*
X175619035Y-122610000D01*
G37*
D11*
X168961200Y-88021667D02*
X169008819Y-88164524D01*
X169008819Y-88164524D02*
X169008819Y-88402619D01*
X169008819Y-88402619D02*
X168961200Y-88497857D01*
X168961200Y-88497857D02*
X168913580Y-88545476D01*
X168913580Y-88545476D02*
X168818342Y-88593095D01*
X168818342Y-88593095D02*
X168723104Y-88593095D01*
X168723104Y-88593095D02*
X168627866Y-88545476D01*
X168627866Y-88545476D02*
X168580247Y-88497857D01*
X168580247Y-88497857D02*
X168532628Y-88402619D01*
X168532628Y-88402619D02*
X168485009Y-88212143D01*
X168485009Y-88212143D02*
X168437390Y-88116905D01*
X168437390Y-88116905D02*
X168389771Y-88069286D01*
X168389771Y-88069286D02*
X168294533Y-88021667D01*
X168294533Y-88021667D02*
X168199295Y-88021667D01*
X168199295Y-88021667D02*
X168104057Y-88069286D01*
X168104057Y-88069286D02*
X168056438Y-88116905D01*
X168056438Y-88116905D02*
X168008819Y-88212143D01*
X168008819Y-88212143D02*
X168008819Y-88450238D01*
X168008819Y-88450238D02*
X168056438Y-88593095D01*
X168008819Y-88926429D02*
X169008819Y-89164524D01*
X169008819Y-89164524D02*
X168294533Y-89355000D01*
X168294533Y-89355000D02*
X169008819Y-89545476D01*
X169008819Y-89545476D02*
X168008819Y-89783572D01*
X168008819Y-90640714D02*
X168008819Y-90164524D01*
X168008819Y-90164524D02*
X168485009Y-90116905D01*
X168485009Y-90116905D02*
X168437390Y-90164524D01*
X168437390Y-90164524D02*
X168389771Y-90259762D01*
X168389771Y-90259762D02*
X168389771Y-90497857D01*
X168389771Y-90497857D02*
X168437390Y-90593095D01*
X168437390Y-90593095D02*
X168485009Y-90640714D01*
X168485009Y-90640714D02*
X168580247Y-90688333D01*
X168580247Y-90688333D02*
X168818342Y-90688333D01*
X168818342Y-90688333D02*
X168913580Y-90640714D01*
X168913580Y-90640714D02*
X168961200Y-90593095D01*
X168961200Y-90593095D02*
X169008819Y-90497857D01*
X169008819Y-90497857D02*
X169008819Y-90259762D01*
X169008819Y-90259762D02*
X168961200Y-90164524D01*
X168961200Y-90164524D02*
X168913580Y-90116905D01*
X188161200Y-88031667D02*
X188208819Y-88174524D01*
X188208819Y-88174524D02*
X188208819Y-88412619D01*
X188208819Y-88412619D02*
X188161200Y-88507857D01*
X188161200Y-88507857D02*
X188113580Y-88555476D01*
X188113580Y-88555476D02*
X188018342Y-88603095D01*
X188018342Y-88603095D02*
X187923104Y-88603095D01*
X187923104Y-88603095D02*
X187827866Y-88555476D01*
X187827866Y-88555476D02*
X187780247Y-88507857D01*
X187780247Y-88507857D02*
X187732628Y-88412619D01*
X187732628Y-88412619D02*
X187685009Y-88222143D01*
X187685009Y-88222143D02*
X187637390Y-88126905D01*
X187637390Y-88126905D02*
X187589771Y-88079286D01*
X187589771Y-88079286D02*
X187494533Y-88031667D01*
X187494533Y-88031667D02*
X187399295Y-88031667D01*
X187399295Y-88031667D02*
X187304057Y-88079286D01*
X187304057Y-88079286D02*
X187256438Y-88126905D01*
X187256438Y-88126905D02*
X187208819Y-88222143D01*
X187208819Y-88222143D02*
X187208819Y-88460238D01*
X187208819Y-88460238D02*
X187256438Y-88603095D01*
X187208819Y-88936429D02*
X188208819Y-89174524D01*
X188208819Y-89174524D02*
X187494533Y-89365000D01*
X187494533Y-89365000D02*
X188208819Y-89555476D01*
X188208819Y-89555476D02*
X187208819Y-89793572D01*
X187542152Y-90603095D02*
X188208819Y-90603095D01*
X187161200Y-90365000D02*
X187875485Y-90126905D01*
X187875485Y-90126905D02*
X187875485Y-90745952D01*
X168971200Y-107231667D02*
X169018819Y-107374524D01*
X169018819Y-107374524D02*
X169018819Y-107612619D01*
X169018819Y-107612619D02*
X168971200Y-107707857D01*
X168971200Y-107707857D02*
X168923580Y-107755476D01*
X168923580Y-107755476D02*
X168828342Y-107803095D01*
X168828342Y-107803095D02*
X168733104Y-107803095D01*
X168733104Y-107803095D02*
X168637866Y-107755476D01*
X168637866Y-107755476D02*
X168590247Y-107707857D01*
X168590247Y-107707857D02*
X168542628Y-107612619D01*
X168542628Y-107612619D02*
X168495009Y-107422143D01*
X168495009Y-107422143D02*
X168447390Y-107326905D01*
X168447390Y-107326905D02*
X168399771Y-107279286D01*
X168399771Y-107279286D02*
X168304533Y-107231667D01*
X168304533Y-107231667D02*
X168209295Y-107231667D01*
X168209295Y-107231667D02*
X168114057Y-107279286D01*
X168114057Y-107279286D02*
X168066438Y-107326905D01*
X168066438Y-107326905D02*
X168018819Y-107422143D01*
X168018819Y-107422143D02*
X168018819Y-107660238D01*
X168018819Y-107660238D02*
X168066438Y-107803095D01*
X168018819Y-108136429D02*
X169018819Y-108374524D01*
X169018819Y-108374524D02*
X168304533Y-108565000D01*
X168304533Y-108565000D02*
X169018819Y-108755476D01*
X169018819Y-108755476D02*
X168018819Y-108993572D01*
X168114057Y-109326905D02*
X168066438Y-109374524D01*
X168066438Y-109374524D02*
X168018819Y-109469762D01*
X168018819Y-109469762D02*
X168018819Y-109707857D01*
X168018819Y-109707857D02*
X168066438Y-109803095D01*
X168066438Y-109803095D02*
X168114057Y-109850714D01*
X168114057Y-109850714D02*
X168209295Y-109898333D01*
X168209295Y-109898333D02*
X168304533Y-109898333D01*
X168304533Y-109898333D02*
X168447390Y-109850714D01*
X168447390Y-109850714D02*
X169018819Y-109279286D01*
X169018819Y-109279286D02*
X169018819Y-109898333D01*
X188151200Y-68826667D02*
X188198819Y-68969524D01*
X188198819Y-68969524D02*
X188198819Y-69207619D01*
X188198819Y-69207619D02*
X188151200Y-69302857D01*
X188151200Y-69302857D02*
X188103580Y-69350476D01*
X188103580Y-69350476D02*
X188008342Y-69398095D01*
X188008342Y-69398095D02*
X187913104Y-69398095D01*
X187913104Y-69398095D02*
X187817866Y-69350476D01*
X187817866Y-69350476D02*
X187770247Y-69302857D01*
X187770247Y-69302857D02*
X187722628Y-69207619D01*
X187722628Y-69207619D02*
X187675009Y-69017143D01*
X187675009Y-69017143D02*
X187627390Y-68921905D01*
X187627390Y-68921905D02*
X187579771Y-68874286D01*
X187579771Y-68874286D02*
X187484533Y-68826667D01*
X187484533Y-68826667D02*
X187389295Y-68826667D01*
X187389295Y-68826667D02*
X187294057Y-68874286D01*
X187294057Y-68874286D02*
X187246438Y-68921905D01*
X187246438Y-68921905D02*
X187198819Y-69017143D01*
X187198819Y-69017143D02*
X187198819Y-69255238D01*
X187198819Y-69255238D02*
X187246438Y-69398095D01*
X187198819Y-69731429D02*
X188198819Y-69969524D01*
X188198819Y-69969524D02*
X187484533Y-70160000D01*
X187484533Y-70160000D02*
X188198819Y-70350476D01*
X188198819Y-70350476D02*
X187198819Y-70588572D01*
X187198819Y-70874286D02*
X187198819Y-71540952D01*
X187198819Y-71540952D02*
X188198819Y-71112381D01*
X149771200Y-107221667D02*
X149818819Y-107364524D01*
X149818819Y-107364524D02*
X149818819Y-107602619D01*
X149818819Y-107602619D02*
X149771200Y-107697857D01*
X149771200Y-107697857D02*
X149723580Y-107745476D01*
X149723580Y-107745476D02*
X149628342Y-107793095D01*
X149628342Y-107793095D02*
X149533104Y-107793095D01*
X149533104Y-107793095D02*
X149437866Y-107745476D01*
X149437866Y-107745476D02*
X149390247Y-107697857D01*
X149390247Y-107697857D02*
X149342628Y-107602619D01*
X149342628Y-107602619D02*
X149295009Y-107412143D01*
X149295009Y-107412143D02*
X149247390Y-107316905D01*
X149247390Y-107316905D02*
X149199771Y-107269286D01*
X149199771Y-107269286D02*
X149104533Y-107221667D01*
X149104533Y-107221667D02*
X149009295Y-107221667D01*
X149009295Y-107221667D02*
X148914057Y-107269286D01*
X148914057Y-107269286D02*
X148866438Y-107316905D01*
X148866438Y-107316905D02*
X148818819Y-107412143D01*
X148818819Y-107412143D02*
X148818819Y-107650238D01*
X148818819Y-107650238D02*
X148866438Y-107793095D01*
X148818819Y-108126429D02*
X149818819Y-108364524D01*
X149818819Y-108364524D02*
X149104533Y-108555000D01*
X149104533Y-108555000D02*
X149818819Y-108745476D01*
X149818819Y-108745476D02*
X148818819Y-108983572D01*
X148818819Y-109269286D02*
X148818819Y-109888333D01*
X148818819Y-109888333D02*
X149199771Y-109555000D01*
X149199771Y-109555000D02*
X149199771Y-109697857D01*
X149199771Y-109697857D02*
X149247390Y-109793095D01*
X149247390Y-109793095D02*
X149295009Y-109840714D01*
X149295009Y-109840714D02*
X149390247Y-109888333D01*
X149390247Y-109888333D02*
X149628342Y-109888333D01*
X149628342Y-109888333D02*
X149723580Y-109840714D01*
X149723580Y-109840714D02*
X149771200Y-109793095D01*
X149771200Y-109793095D02*
X149818819Y-109697857D01*
X149818819Y-109697857D02*
X149818819Y-109412143D01*
X149818819Y-109412143D02*
X149771200Y-109316905D01*
X149771200Y-109316905D02*
X149723580Y-109269286D01*
X149771200Y-88021667D02*
X149818819Y-88164524D01*
X149818819Y-88164524D02*
X149818819Y-88402619D01*
X149818819Y-88402619D02*
X149771200Y-88497857D01*
X149771200Y-88497857D02*
X149723580Y-88545476D01*
X149723580Y-88545476D02*
X149628342Y-88593095D01*
X149628342Y-88593095D02*
X149533104Y-88593095D01*
X149533104Y-88593095D02*
X149437866Y-88545476D01*
X149437866Y-88545476D02*
X149390247Y-88497857D01*
X149390247Y-88497857D02*
X149342628Y-88402619D01*
X149342628Y-88402619D02*
X149295009Y-88212143D01*
X149295009Y-88212143D02*
X149247390Y-88116905D01*
X149247390Y-88116905D02*
X149199771Y-88069286D01*
X149199771Y-88069286D02*
X149104533Y-88021667D01*
X149104533Y-88021667D02*
X149009295Y-88021667D01*
X149009295Y-88021667D02*
X148914057Y-88069286D01*
X148914057Y-88069286D02*
X148866438Y-88116905D01*
X148866438Y-88116905D02*
X148818819Y-88212143D01*
X148818819Y-88212143D02*
X148818819Y-88450238D01*
X148818819Y-88450238D02*
X148866438Y-88593095D01*
X148818819Y-88926429D02*
X149818819Y-89164524D01*
X149818819Y-89164524D02*
X149104533Y-89355000D01*
X149104533Y-89355000D02*
X149818819Y-89545476D01*
X149818819Y-89545476D02*
X148818819Y-89783572D01*
X148818819Y-90593095D02*
X148818819Y-90402619D01*
X148818819Y-90402619D02*
X148866438Y-90307381D01*
X148866438Y-90307381D02*
X148914057Y-90259762D01*
X148914057Y-90259762D02*
X149056914Y-90164524D01*
X149056914Y-90164524D02*
X149247390Y-90116905D01*
X149247390Y-90116905D02*
X149628342Y-90116905D01*
X149628342Y-90116905D02*
X149723580Y-90164524D01*
X149723580Y-90164524D02*
X149771200Y-90212143D01*
X149771200Y-90212143D02*
X149818819Y-90307381D01*
X149818819Y-90307381D02*
X149818819Y-90497857D01*
X149818819Y-90497857D02*
X149771200Y-90593095D01*
X149771200Y-90593095D02*
X149723580Y-90640714D01*
X149723580Y-90640714D02*
X149628342Y-90688333D01*
X149628342Y-90688333D02*
X149390247Y-90688333D01*
X149390247Y-90688333D02*
X149295009Y-90640714D01*
X149295009Y-90640714D02*
X149247390Y-90593095D01*
X149247390Y-90593095D02*
X149199771Y-90497857D01*
X149199771Y-90497857D02*
X149199771Y-90307381D01*
X149199771Y-90307381D02*
X149247390Y-90212143D01*
X149247390Y-90212143D02*
X149295009Y-90164524D01*
X149295009Y-90164524D02*
X149390247Y-90116905D01*
X168951200Y-68821667D02*
X168998819Y-68964524D01*
X168998819Y-68964524D02*
X168998819Y-69202619D01*
X168998819Y-69202619D02*
X168951200Y-69297857D01*
X168951200Y-69297857D02*
X168903580Y-69345476D01*
X168903580Y-69345476D02*
X168808342Y-69393095D01*
X168808342Y-69393095D02*
X168713104Y-69393095D01*
X168713104Y-69393095D02*
X168617866Y-69345476D01*
X168617866Y-69345476D02*
X168570247Y-69297857D01*
X168570247Y-69297857D02*
X168522628Y-69202619D01*
X168522628Y-69202619D02*
X168475009Y-69012143D01*
X168475009Y-69012143D02*
X168427390Y-68916905D01*
X168427390Y-68916905D02*
X168379771Y-68869286D01*
X168379771Y-68869286D02*
X168284533Y-68821667D01*
X168284533Y-68821667D02*
X168189295Y-68821667D01*
X168189295Y-68821667D02*
X168094057Y-68869286D01*
X168094057Y-68869286D02*
X168046438Y-68916905D01*
X168046438Y-68916905D02*
X167998819Y-69012143D01*
X167998819Y-69012143D02*
X167998819Y-69250238D01*
X167998819Y-69250238D02*
X168046438Y-69393095D01*
X167998819Y-69726429D02*
X168998819Y-69964524D01*
X168998819Y-69964524D02*
X168284533Y-70155000D01*
X168284533Y-70155000D02*
X168998819Y-70345476D01*
X168998819Y-70345476D02*
X167998819Y-70583572D01*
X168427390Y-71107381D02*
X168379771Y-71012143D01*
X168379771Y-71012143D02*
X168332152Y-70964524D01*
X168332152Y-70964524D02*
X168236914Y-70916905D01*
X168236914Y-70916905D02*
X168189295Y-70916905D01*
X168189295Y-70916905D02*
X168094057Y-70964524D01*
X168094057Y-70964524D02*
X168046438Y-71012143D01*
X168046438Y-71012143D02*
X167998819Y-71107381D01*
X167998819Y-71107381D02*
X167998819Y-71297857D01*
X167998819Y-71297857D02*
X168046438Y-71393095D01*
X168046438Y-71393095D02*
X168094057Y-71440714D01*
X168094057Y-71440714D02*
X168189295Y-71488333D01*
X168189295Y-71488333D02*
X168236914Y-71488333D01*
X168236914Y-71488333D02*
X168332152Y-71440714D01*
X168332152Y-71440714D02*
X168379771Y-71393095D01*
X168379771Y-71393095D02*
X168427390Y-71297857D01*
X168427390Y-71297857D02*
X168427390Y-71107381D01*
X168427390Y-71107381D02*
X168475009Y-71012143D01*
X168475009Y-71012143D02*
X168522628Y-70964524D01*
X168522628Y-70964524D02*
X168617866Y-70916905D01*
X168617866Y-70916905D02*
X168808342Y-70916905D01*
X168808342Y-70916905D02*
X168903580Y-70964524D01*
X168903580Y-70964524D02*
X168951200Y-71012143D01*
X168951200Y-71012143D02*
X168998819Y-71107381D01*
X168998819Y-71107381D02*
X168998819Y-71297857D01*
X168998819Y-71297857D02*
X168951200Y-71393095D01*
X168951200Y-71393095D02*
X168903580Y-71440714D01*
X168903580Y-71440714D02*
X168808342Y-71488333D01*
X168808342Y-71488333D02*
X168617866Y-71488333D01*
X168617866Y-71488333D02*
X168522628Y-71440714D01*
X168522628Y-71440714D02*
X168475009Y-71393095D01*
X168475009Y-71393095D02*
X168427390Y-71297857D01*
X129083334Y-114054819D02*
X129416667Y-113578628D01*
X129654762Y-114054819D02*
X129654762Y-113054819D01*
X129654762Y-113054819D02*
X129273810Y-113054819D01*
X129273810Y-113054819D02*
X129178572Y-113102438D01*
X129178572Y-113102438D02*
X129130953Y-113150057D01*
X129130953Y-113150057D02*
X129083334Y-113245295D01*
X129083334Y-113245295D02*
X129083334Y-113388152D01*
X129083334Y-113388152D02*
X129130953Y-113483390D01*
X129130953Y-113483390D02*
X129178572Y-113531009D01*
X129178572Y-113531009D02*
X129273810Y-113578628D01*
X129273810Y-113578628D02*
X129654762Y-113578628D01*
X128511905Y-114054819D02*
X128607143Y-114007200D01*
X128607143Y-114007200D02*
X128654762Y-113959580D01*
X128654762Y-113959580D02*
X128702381Y-113864342D01*
X128702381Y-113864342D02*
X128702381Y-113578628D01*
X128702381Y-113578628D02*
X128654762Y-113483390D01*
X128654762Y-113483390D02*
X128607143Y-113435771D01*
X128607143Y-113435771D02*
X128511905Y-113388152D01*
X128511905Y-113388152D02*
X128369048Y-113388152D01*
X128369048Y-113388152D02*
X128273810Y-113435771D01*
X128273810Y-113435771D02*
X128226191Y-113483390D01*
X128226191Y-113483390D02*
X128178572Y-113578628D01*
X128178572Y-113578628D02*
X128178572Y-113864342D01*
X128178572Y-113864342D02*
X128226191Y-113959580D01*
X128226191Y-113959580D02*
X128273810Y-114007200D01*
X128273810Y-114007200D02*
X128369048Y-114054819D01*
X128369048Y-114054819D02*
X128511905Y-114054819D01*
X127892857Y-113388152D02*
X127511905Y-113388152D01*
X127750000Y-113054819D02*
X127750000Y-113911961D01*
X127750000Y-113911961D02*
X127702381Y-114007200D01*
X127702381Y-114007200D02*
X127607143Y-114054819D01*
X127607143Y-114054819D02*
X127511905Y-114054819D01*
X126750000Y-114054819D02*
X126750000Y-113531009D01*
X126750000Y-113531009D02*
X126797619Y-113435771D01*
X126797619Y-113435771D02*
X126892857Y-113388152D01*
X126892857Y-113388152D02*
X127083333Y-113388152D01*
X127083333Y-113388152D02*
X127178571Y-113435771D01*
X126750000Y-114007200D02*
X126845238Y-114054819D01*
X126845238Y-114054819D02*
X127083333Y-114054819D01*
X127083333Y-114054819D02*
X127178571Y-114007200D01*
X127178571Y-114007200D02*
X127226190Y-113911961D01*
X127226190Y-113911961D02*
X127226190Y-113816723D01*
X127226190Y-113816723D02*
X127178571Y-113721485D01*
X127178571Y-113721485D02*
X127083333Y-113673866D01*
X127083333Y-113673866D02*
X126845238Y-113673866D01*
X126845238Y-113673866D02*
X126750000Y-113626247D01*
X126273809Y-114054819D02*
X126273809Y-113388152D01*
X126273809Y-113578628D02*
X126226190Y-113483390D01*
X126226190Y-113483390D02*
X126178571Y-113435771D01*
X126178571Y-113435771D02*
X126083333Y-113388152D01*
X126083333Y-113388152D02*
X125988095Y-113388152D01*
X125749999Y-113388152D02*
X125511904Y-114054819D01*
X125273809Y-113388152D02*
X125511904Y-114054819D01*
X125511904Y-114054819D02*
X125607142Y-114292914D01*
X125607142Y-114292914D02*
X125654761Y-114340533D01*
X125654761Y-114340533D02*
X125749999Y-114388152D01*
X124892856Y-113531009D02*
X124559523Y-113531009D01*
X124416666Y-114054819D02*
X124892856Y-114054819D01*
X124892856Y-114054819D02*
X124892856Y-113054819D01*
X124892856Y-113054819D02*
X124416666Y-113054819D01*
X123988094Y-113388152D02*
X123988094Y-114054819D01*
X123988094Y-113483390D02*
X123940475Y-113435771D01*
X123940475Y-113435771D02*
X123845237Y-113388152D01*
X123845237Y-113388152D02*
X123702380Y-113388152D01*
X123702380Y-113388152D02*
X123607142Y-113435771D01*
X123607142Y-113435771D02*
X123559523Y-113531009D01*
X123559523Y-113531009D02*
X123559523Y-114054819D01*
X122654761Y-114007200D02*
X122749999Y-114054819D01*
X122749999Y-114054819D02*
X122940475Y-114054819D01*
X122940475Y-114054819D02*
X123035713Y-114007200D01*
X123035713Y-114007200D02*
X123083332Y-113959580D01*
X123083332Y-113959580D02*
X123130951Y-113864342D01*
X123130951Y-113864342D02*
X123130951Y-113578628D01*
X123130951Y-113578628D02*
X123083332Y-113483390D01*
X123083332Y-113483390D02*
X123035713Y-113435771D01*
X123035713Y-113435771D02*
X122940475Y-113388152D01*
X122940475Y-113388152D02*
X122749999Y-113388152D01*
X122749999Y-113388152D02*
X122654761Y-113435771D01*
X122083332Y-114054819D02*
X122178570Y-114007200D01*
X122178570Y-114007200D02*
X122226189Y-113959580D01*
X122226189Y-113959580D02*
X122273808Y-113864342D01*
X122273808Y-113864342D02*
X122273808Y-113578628D01*
X122273808Y-113578628D02*
X122226189Y-113483390D01*
X122226189Y-113483390D02*
X122178570Y-113435771D01*
X122178570Y-113435771D02*
X122083332Y-113388152D01*
X122083332Y-113388152D02*
X121940475Y-113388152D01*
X121940475Y-113388152D02*
X121845237Y-113435771D01*
X121845237Y-113435771D02*
X121797618Y-113483390D01*
X121797618Y-113483390D02*
X121749999Y-113578628D01*
X121749999Y-113578628D02*
X121749999Y-113864342D01*
X121749999Y-113864342D02*
X121797618Y-113959580D01*
X121797618Y-113959580D02*
X121845237Y-114007200D01*
X121845237Y-114007200D02*
X121940475Y-114054819D01*
X121940475Y-114054819D02*
X122083332Y-114054819D01*
X120892856Y-114054819D02*
X120892856Y-113054819D01*
X120892856Y-114007200D02*
X120988094Y-114054819D01*
X120988094Y-114054819D02*
X121178570Y-114054819D01*
X121178570Y-114054819D02*
X121273808Y-114007200D01*
X121273808Y-114007200D02*
X121321427Y-113959580D01*
X121321427Y-113959580D02*
X121369046Y-113864342D01*
X121369046Y-113864342D02*
X121369046Y-113578628D01*
X121369046Y-113578628D02*
X121321427Y-113483390D01*
X121321427Y-113483390D02*
X121273808Y-113435771D01*
X121273808Y-113435771D02*
X121178570Y-113388152D01*
X121178570Y-113388152D02*
X120988094Y-113388152D01*
X120988094Y-113388152D02*
X120892856Y-113435771D01*
X120035713Y-114007200D02*
X120130951Y-114054819D01*
X120130951Y-114054819D02*
X120321427Y-114054819D01*
X120321427Y-114054819D02*
X120416665Y-114007200D01*
X120416665Y-114007200D02*
X120464284Y-113911961D01*
X120464284Y-113911961D02*
X120464284Y-113531009D01*
X120464284Y-113531009D02*
X120416665Y-113435771D01*
X120416665Y-113435771D02*
X120321427Y-113388152D01*
X120321427Y-113388152D02*
X120130951Y-113388152D01*
X120130951Y-113388152D02*
X120035713Y-113435771D01*
X120035713Y-113435771D02*
X119988094Y-113531009D01*
X119988094Y-113531009D02*
X119988094Y-113626247D01*
X119988094Y-113626247D02*
X120464284Y-113721485D01*
X119559522Y-114054819D02*
X119559522Y-113388152D01*
X119559522Y-113578628D02*
X119511903Y-113483390D01*
X119511903Y-113483390D02*
X119464284Y-113435771D01*
X119464284Y-113435771D02*
X119369046Y-113388152D01*
X119369046Y-113388152D02*
X119273808Y-113388152D01*
X119178570Y-114150057D02*
X118416665Y-114150057D01*
X118226188Y-114007200D02*
X118083331Y-114054819D01*
X118083331Y-114054819D02*
X117845236Y-114054819D01*
X117845236Y-114054819D02*
X117749998Y-114007200D01*
X117749998Y-114007200D02*
X117702379Y-113959580D01*
X117702379Y-113959580D02*
X117654760Y-113864342D01*
X117654760Y-113864342D02*
X117654760Y-113769104D01*
X117654760Y-113769104D02*
X117702379Y-113673866D01*
X117702379Y-113673866D02*
X117749998Y-113626247D01*
X117749998Y-113626247D02*
X117845236Y-113578628D01*
X117845236Y-113578628D02*
X118035712Y-113531009D01*
X118035712Y-113531009D02*
X118130950Y-113483390D01*
X118130950Y-113483390D02*
X118178569Y-113435771D01*
X118178569Y-113435771D02*
X118226188Y-113340533D01*
X118226188Y-113340533D02*
X118226188Y-113245295D01*
X118226188Y-113245295D02*
X118178569Y-113150057D01*
X118178569Y-113150057D02*
X118130950Y-113102438D01*
X118130950Y-113102438D02*
X118035712Y-113054819D01*
X118035712Y-113054819D02*
X117797617Y-113054819D01*
X117797617Y-113054819D02*
X117654760Y-113102438D01*
X117321426Y-113388152D02*
X117130950Y-114054819D01*
X117130950Y-114054819D02*
X116940474Y-113578628D01*
X116940474Y-113578628D02*
X116749998Y-114054819D01*
X116749998Y-114054819D02*
X116559522Y-113388152D01*
X116178569Y-114054819D02*
X116178569Y-113388152D01*
X116178569Y-113054819D02*
X116226188Y-113102438D01*
X116226188Y-113102438D02*
X116178569Y-113150057D01*
X116178569Y-113150057D02*
X116130950Y-113102438D01*
X116130950Y-113102438D02*
X116178569Y-113054819D01*
X116178569Y-113054819D02*
X116178569Y-113150057D01*
X115845236Y-113388152D02*
X115464284Y-113388152D01*
X115702379Y-113054819D02*
X115702379Y-113911961D01*
X115702379Y-113911961D02*
X115654760Y-114007200D01*
X115654760Y-114007200D02*
X115559522Y-114054819D01*
X115559522Y-114054819D02*
X115464284Y-114054819D01*
X114702379Y-114007200D02*
X114797617Y-114054819D01*
X114797617Y-114054819D02*
X114988093Y-114054819D01*
X114988093Y-114054819D02*
X115083331Y-114007200D01*
X115083331Y-114007200D02*
X115130950Y-113959580D01*
X115130950Y-113959580D02*
X115178569Y-113864342D01*
X115178569Y-113864342D02*
X115178569Y-113578628D01*
X115178569Y-113578628D02*
X115130950Y-113483390D01*
X115130950Y-113483390D02*
X115083331Y-113435771D01*
X115083331Y-113435771D02*
X114988093Y-113388152D01*
X114988093Y-113388152D02*
X114797617Y-113388152D01*
X114797617Y-113388152D02*
X114702379Y-113435771D01*
X114273807Y-114054819D02*
X114273807Y-113054819D01*
X113845236Y-114054819D02*
X113845236Y-113531009D01*
X113845236Y-113531009D02*
X113892855Y-113435771D01*
X113892855Y-113435771D02*
X113988093Y-113388152D01*
X113988093Y-113388152D02*
X114130950Y-113388152D01*
X114130950Y-113388152D02*
X114226188Y-113435771D01*
X114226188Y-113435771D02*
X114273807Y-113483390D01*
X149751200Y-68831667D02*
X149798819Y-68974524D01*
X149798819Y-68974524D02*
X149798819Y-69212619D01*
X149798819Y-69212619D02*
X149751200Y-69307857D01*
X149751200Y-69307857D02*
X149703580Y-69355476D01*
X149703580Y-69355476D02*
X149608342Y-69403095D01*
X149608342Y-69403095D02*
X149513104Y-69403095D01*
X149513104Y-69403095D02*
X149417866Y-69355476D01*
X149417866Y-69355476D02*
X149370247Y-69307857D01*
X149370247Y-69307857D02*
X149322628Y-69212619D01*
X149322628Y-69212619D02*
X149275009Y-69022143D01*
X149275009Y-69022143D02*
X149227390Y-68926905D01*
X149227390Y-68926905D02*
X149179771Y-68879286D01*
X149179771Y-68879286D02*
X149084533Y-68831667D01*
X149084533Y-68831667D02*
X148989295Y-68831667D01*
X148989295Y-68831667D02*
X148894057Y-68879286D01*
X148894057Y-68879286D02*
X148846438Y-68926905D01*
X148846438Y-68926905D02*
X148798819Y-69022143D01*
X148798819Y-69022143D02*
X148798819Y-69260238D01*
X148798819Y-69260238D02*
X148846438Y-69403095D01*
X148798819Y-69736429D02*
X149798819Y-69974524D01*
X149798819Y-69974524D02*
X149084533Y-70165000D01*
X149084533Y-70165000D02*
X149798819Y-70355476D01*
X149798819Y-70355476D02*
X148798819Y-70593572D01*
X149798819Y-71022143D02*
X149798819Y-71212619D01*
X149798819Y-71212619D02*
X149751200Y-71307857D01*
X149751200Y-71307857D02*
X149703580Y-71355476D01*
X149703580Y-71355476D02*
X149560723Y-71450714D01*
X149560723Y-71450714D02*
X149370247Y-71498333D01*
X149370247Y-71498333D02*
X148989295Y-71498333D01*
X148989295Y-71498333D02*
X148894057Y-71450714D01*
X148894057Y-71450714D02*
X148846438Y-71403095D01*
X148846438Y-71403095D02*
X148798819Y-71307857D01*
X148798819Y-71307857D02*
X148798819Y-71117381D01*
X148798819Y-71117381D02*
X148846438Y-71022143D01*
X148846438Y-71022143D02*
X148894057Y-70974524D01*
X148894057Y-70974524D02*
X148989295Y-70926905D01*
X148989295Y-70926905D02*
X149227390Y-70926905D01*
X149227390Y-70926905D02*
X149322628Y-70974524D01*
X149322628Y-70974524D02*
X149370247Y-71022143D01*
X149370247Y-71022143D02*
X149417866Y-71117381D01*
X149417866Y-71117381D02*
X149417866Y-71307857D01*
X149417866Y-71307857D02*
X149370247Y-71403095D01*
X149370247Y-71403095D02*
X149322628Y-71450714D01*
X149322628Y-71450714D02*
X149227390Y-71498333D01*
X188171200Y-107241667D02*
X188218819Y-107384524D01*
X188218819Y-107384524D02*
X188218819Y-107622619D01*
X188218819Y-107622619D02*
X188171200Y-107717857D01*
X188171200Y-107717857D02*
X188123580Y-107765476D01*
X188123580Y-107765476D02*
X188028342Y-107813095D01*
X188028342Y-107813095D02*
X187933104Y-107813095D01*
X187933104Y-107813095D02*
X187837866Y-107765476D01*
X187837866Y-107765476D02*
X187790247Y-107717857D01*
X187790247Y-107717857D02*
X187742628Y-107622619D01*
X187742628Y-107622619D02*
X187695009Y-107432143D01*
X187695009Y-107432143D02*
X187647390Y-107336905D01*
X187647390Y-107336905D02*
X187599771Y-107289286D01*
X187599771Y-107289286D02*
X187504533Y-107241667D01*
X187504533Y-107241667D02*
X187409295Y-107241667D01*
X187409295Y-107241667D02*
X187314057Y-107289286D01*
X187314057Y-107289286D02*
X187266438Y-107336905D01*
X187266438Y-107336905D02*
X187218819Y-107432143D01*
X187218819Y-107432143D02*
X187218819Y-107670238D01*
X187218819Y-107670238D02*
X187266438Y-107813095D01*
X187218819Y-108146429D02*
X188218819Y-108384524D01*
X188218819Y-108384524D02*
X187504533Y-108575000D01*
X187504533Y-108575000D02*
X188218819Y-108765476D01*
X188218819Y-108765476D02*
X187218819Y-109003572D01*
X188218819Y-109908333D02*
X188218819Y-109336905D01*
X188218819Y-109622619D02*
X187218819Y-109622619D01*
X187218819Y-109622619D02*
X187361676Y-109527381D01*
X187361676Y-109527381D02*
X187456914Y-109432143D01*
X187456914Y-109432143D02*
X187504533Y-109336905D01*
%TO.C,SW5*%
D12*
X153695000Y-82370000D02*
X153695000Y-96340000D01*
X153695000Y-96340000D02*
X167665000Y-96340000D01*
X167665000Y-82370000D02*
X153695000Y-82370000D01*
X167665000Y-96340000D02*
X167665000Y-82370000D01*
%TO.C,SW4*%
X172895000Y-82380000D02*
X172895000Y-96350000D01*
X172895000Y-96350000D02*
X186865000Y-96350000D01*
X186865000Y-82380000D02*
X172895000Y-82380000D01*
X186865000Y-96350000D02*
X186865000Y-82380000D01*
%TO.C,SW2*%
X153705000Y-101580000D02*
X153705000Y-115550000D01*
X153705000Y-115550000D02*
X167675000Y-115550000D01*
X167675000Y-101580000D02*
X153705000Y-101580000D01*
X167675000Y-115550000D02*
X167675000Y-101580000D01*
%TO.C,SW7*%
X172885000Y-63175000D02*
X172885000Y-77145000D01*
X172885000Y-77145000D02*
X186855000Y-77145000D01*
X186855000Y-63175000D02*
X172885000Y-63175000D01*
X186855000Y-77145000D02*
X186855000Y-63175000D01*
%TO.C,SW3*%
X134505000Y-101570000D02*
X134505000Y-115540000D01*
X134505000Y-115540000D02*
X148475000Y-115540000D01*
X148475000Y-101570000D02*
X134505000Y-101570000D01*
X148475000Y-115540000D02*
X148475000Y-101570000D01*
%TO.C,SW6*%
X134505000Y-82370000D02*
X134505000Y-96340000D01*
X134505000Y-96340000D02*
X148475000Y-96340000D01*
X148475000Y-82370000D02*
X134505000Y-82370000D01*
X148475000Y-96340000D02*
X148475000Y-82370000D01*
%TO.C,SW8*%
X153685000Y-63170000D02*
X153685000Y-77140000D01*
X153685000Y-77140000D02*
X167655000Y-77140000D01*
X167655000Y-63170000D02*
X153685000Y-63170000D01*
X167655000Y-77140000D02*
X167655000Y-63170000D01*
D13*
%TO.C,G\u002A\u002A\u002A*%
G36*
X122516000Y-73723667D02*
G01*
X122473667Y-73766000D01*
X122431333Y-73723667D01*
X122473667Y-73681333D01*
X122516000Y-73723667D01*
G37*
G36*
X122770000Y-75332333D02*
G01*
X122727667Y-75374667D01*
X122685333Y-75332333D01*
X122727667Y-75290000D01*
X122770000Y-75332333D01*
G37*
G36*
X124040000Y-73300333D02*
G01*
X123997667Y-73342667D01*
X123955333Y-73300333D01*
X123997667Y-73258000D01*
X124040000Y-73300333D01*
G37*
G36*
X124308679Y-74105553D02*
G01*
X124409472Y-74137710D01*
X124453586Y-74249543D01*
X124463333Y-74485667D01*
X124462465Y-74592583D01*
X124443765Y-74775152D01*
X124380920Y-74851363D01*
X124248275Y-74866667D01*
X124178107Y-74864765D01*
X124082753Y-74831166D01*
X124050213Y-74719961D01*
X124057775Y-74485735D01*
X124061078Y-74437681D01*
X124090457Y-74223317D01*
X124152736Y-74127050D01*
X124272833Y-74104735D01*
X124308679Y-74105553D01*
G37*
G36*
X114602970Y-75885408D02*
G01*
X114667135Y-75952687D01*
X114818297Y-76204470D01*
X114957484Y-76550945D01*
X115062448Y-76941000D01*
X115080214Y-77031915D01*
X115132536Y-77446414D01*
X115106088Y-77717410D01*
X114999125Y-77851219D01*
X114809899Y-77854157D01*
X114749877Y-77832034D01*
X114539956Y-77658506D01*
X114355063Y-77369597D01*
X114217625Y-77007452D01*
X114150073Y-76614219D01*
X114141012Y-76438904D01*
X114147345Y-76200784D01*
X114194373Y-76050137D01*
X114293209Y-75934162D01*
X114356315Y-75880310D01*
X114482530Y-75823625D01*
X114602970Y-75885408D01*
G37*
G36*
X118282667Y-72486777D02*
G01*
X118375703Y-72520331D01*
X118444449Y-72585663D01*
X118487610Y-72714562D01*
X118516351Y-72942222D01*
X118541834Y-73303838D01*
X118551272Y-73452437D01*
X118573894Y-73792540D01*
X118593038Y-74059268D01*
X118605334Y-74204794D01*
X118592149Y-74299635D01*
X118505162Y-74369260D01*
X118312622Y-74425971D01*
X117982989Y-74483913D01*
X117876515Y-74497191D01*
X117430758Y-74483668D01*
X117032714Y-74367403D01*
X116711928Y-74165596D01*
X116497946Y-73895450D01*
X116420316Y-73574164D01*
X116480887Y-73239005D01*
X116679248Y-72910123D01*
X116987588Y-72653538D01*
X117376924Y-72486172D01*
X117818277Y-72424944D01*
X118282667Y-72486777D01*
G37*
G36*
X114836127Y-71463611D02*
G01*
X114913609Y-71570877D01*
X115007873Y-71776333D01*
X115024789Y-71861626D01*
X115039611Y-72132828D01*
X115020935Y-72452313D01*
X114975845Y-72776561D01*
X114911424Y-73062050D01*
X114834756Y-73265259D01*
X114752925Y-73342667D01*
X114701496Y-73353929D01*
X114687630Y-73432668D01*
X114687000Y-73533719D01*
X114594838Y-73686668D01*
X114420381Y-73825773D01*
X114244344Y-73846675D01*
X114097755Y-73744488D01*
X113986426Y-73543280D01*
X113916168Y-73267123D01*
X113892793Y-72940086D01*
X113922114Y-72586238D01*
X114009941Y-72229648D01*
X114162086Y-71894387D01*
X114293273Y-71688658D01*
X114500871Y-71452769D01*
X114680466Y-71378620D01*
X114836127Y-71463611D01*
G37*
G36*
X119387878Y-72282741D02*
G01*
X119530136Y-72443595D01*
X119693141Y-72688897D01*
X119850556Y-72977950D01*
X119976048Y-73270059D01*
X120030323Y-73449009D01*
X120109724Y-73847774D01*
X120142279Y-74226112D01*
X120128478Y-74491362D01*
X120085352Y-74818300D01*
X120022211Y-75146330D01*
X119948578Y-75433089D01*
X119873978Y-75636211D01*
X119807935Y-75713333D01*
X119780892Y-75642439D01*
X119748566Y-75434167D01*
X119716424Y-75121613D01*
X119688547Y-74738121D01*
X119666774Y-74458329D01*
X119606375Y-73935500D01*
X119526497Y-73423856D01*
X119438528Y-73002454D01*
X119393504Y-72816106D01*
X119331707Y-72521070D01*
X119302119Y-72317745D01*
X119310764Y-72242000D01*
X119387878Y-72282741D01*
G37*
G36*
X124463333Y-78682773D02*
G01*
X124450590Y-78717541D01*
X124340704Y-78761333D01*
X124319192Y-78763100D01*
X124150499Y-78799267D01*
X123880803Y-78872527D01*
X123557537Y-78970228D01*
X123365209Y-79032342D01*
X123094608Y-79134408D01*
X122912778Y-79241590D01*
X122770770Y-79386938D01*
X122619635Y-79603502D01*
X122532422Y-79732550D01*
X122359248Y-79937153D01*
X122163466Y-80063637D01*
X121877392Y-80163025D01*
X121638764Y-80222219D01*
X121257794Y-80247150D01*
X120913576Y-80149552D01*
X120544231Y-79918055D01*
X120471018Y-79863643D01*
X120290826Y-79746206D01*
X120125489Y-79688827D01*
X119913912Y-79677306D01*
X119595000Y-79697444D01*
X119575906Y-79698947D01*
X119281022Y-79718164D01*
X119062730Y-79725236D01*
X118967055Y-79718611D01*
X118958591Y-79711756D01*
X118958915Y-79672996D01*
X119069637Y-79642090D01*
X119310397Y-79615600D01*
X119700833Y-79590085D01*
X119792353Y-79585368D01*
X120139365Y-79578551D01*
X120336791Y-79599265D01*
X120399333Y-79648744D01*
X120449556Y-79742006D01*
X120621745Y-79870168D01*
X120868846Y-79990981D01*
X121140852Y-80080805D01*
X121387754Y-80116000D01*
X121424100Y-80114946D01*
X121672117Y-80072439D01*
X121949767Y-79983130D01*
X122208366Y-79868116D01*
X122399227Y-79748499D01*
X122473667Y-79645377D01*
X122479392Y-79618616D01*
X122558596Y-79474740D01*
X122701221Y-79285321D01*
X122701573Y-79284903D01*
X122847243Y-79141123D01*
X123033552Y-79027359D01*
X123302492Y-78923529D01*
X123696054Y-78809551D01*
X123891020Y-78759961D01*
X124185348Y-78696771D01*
X124387931Y-78669090D01*
X124463333Y-78682773D01*
G37*
G36*
X116547000Y-68727318D02*
G01*
X116658508Y-68728116D01*
X116716333Y-68728530D01*
X117330167Y-68732922D01*
X117570816Y-68753982D01*
X117821644Y-68785230D01*
X117959109Y-68825910D01*
X118016890Y-68888126D01*
X118028667Y-68983984D01*
X118084415Y-69151289D01*
X118303833Y-69339869D01*
X118350532Y-69369377D01*
X118594698Y-69564388D01*
X118815011Y-69792732D01*
X118932472Y-69936781D01*
X119158445Y-70212780D01*
X119386511Y-70490316D01*
X119541212Y-70686791D01*
X119671809Y-70872982D01*
X119722000Y-70973949D01*
X119726734Y-70990175D01*
X119807891Y-71114462D01*
X119968847Y-71318147D01*
X120182460Y-71566313D01*
X120206132Y-71593069D01*
X120455476Y-71899231D01*
X120678158Y-72211304D01*
X120828467Y-72465649D01*
X120851813Y-72512774D01*
X120971781Y-72705592D01*
X121073714Y-72759714D01*
X121166386Y-72667696D01*
X121258568Y-72422094D01*
X121359035Y-72015464D01*
X121373261Y-71951004D01*
X121473137Y-71534914D01*
X121579057Y-71211121D01*
X121714629Y-70950437D01*
X121903461Y-70723674D01*
X122169161Y-70501645D01*
X122535337Y-70255163D01*
X122958873Y-69995886D01*
X123025598Y-69955039D01*
X123096029Y-69912899D01*
X123465751Y-69702968D01*
X123729022Y-69583772D01*
X123913372Y-69549370D01*
X124046332Y-69593820D01*
X124155433Y-69711178D01*
X124261969Y-69815553D01*
X124371900Y-69833182D01*
X124410357Y-69817389D01*
X124463333Y-69862129D01*
X124438605Y-69923369D01*
X124317081Y-70029433D01*
X124253035Y-70070943D01*
X124213884Y-70143963D01*
X124235358Y-70277556D01*
X124317500Y-70520473D01*
X124328179Y-70551150D01*
X124392796Y-70798258D01*
X124434650Y-71106814D01*
X124457162Y-71512625D01*
X124463752Y-72051500D01*
X124463333Y-73173333D01*
X124167000Y-73173333D01*
X124148424Y-73173359D01*
X123959531Y-73189149D01*
X123884237Y-73268722D01*
X123870667Y-73462742D01*
X123844732Y-73782667D01*
X123759965Y-73963758D01*
X123607608Y-74020000D01*
X123559329Y-74023933D01*
X123488059Y-74074625D01*
X123455252Y-74215389D01*
X123447333Y-74485667D01*
X123448888Y-74636541D01*
X123466889Y-74837941D01*
X123516436Y-74929614D01*
X123611556Y-74951333D01*
X123681825Y-74961519D01*
X123763912Y-75051576D01*
X123802056Y-75268833D01*
X123807368Y-75329656D01*
X123842343Y-75505787D01*
X123937027Y-75574580D01*
X124145889Y-75586333D01*
X124463444Y-75586333D01*
X124463389Y-76058408D01*
X124462730Y-76147424D01*
X124447186Y-76359403D01*
X124394378Y-76531170D01*
X124282571Y-76687945D01*
X124090034Y-76854951D01*
X123795032Y-77057410D01*
X123375834Y-77320542D01*
X123333596Y-77346622D01*
X123021041Y-77535890D01*
X122815146Y-77646305D01*
X122683437Y-77688958D01*
X122593443Y-77674939D01*
X122512691Y-77615339D01*
X122387537Y-77520252D01*
X122118979Y-77359085D01*
X121793932Y-77192866D01*
X121462556Y-77045073D01*
X121175010Y-76939181D01*
X120981453Y-76898667D01*
X120975291Y-76898736D01*
X120753379Y-76978413D01*
X120543022Y-77178891D01*
X120390239Y-77456730D01*
X120386595Y-77464779D01*
X120279918Y-77490517D01*
X120045320Y-77410010D01*
X119733641Y-77270892D01*
X119748787Y-77252201D01*
X119992443Y-77252201D01*
X120019044Y-77308438D01*
X120124167Y-77338392D01*
X120278550Y-77290763D01*
X120446813Y-77111766D01*
X120448542Y-77109238D01*
X120585455Y-76946592D01*
X120744601Y-76874684D01*
X120998635Y-76860421D01*
X121103713Y-76867188D01*
X121442184Y-76934853D01*
X121761053Y-77050921D01*
X121897357Y-77114025D01*
X122116459Y-77202572D01*
X122246398Y-77237333D01*
X122360834Y-77283595D01*
X122519062Y-77409728D01*
X122691457Y-77582124D01*
X123069395Y-77310709D01*
X123223206Y-77198004D01*
X123384685Y-77072665D01*
X123447333Y-77013488D01*
X123434436Y-76995732D01*
X123379390Y-76958811D01*
X123260514Y-76891518D01*
X123056150Y-76782025D01*
X122744642Y-76618500D01*
X122304333Y-76389113D01*
X122071718Y-76265929D01*
X121856921Y-76132387D01*
X121720671Y-75996589D01*
X121621125Y-75813294D01*
X121516440Y-75537262D01*
X121404075Y-75237447D01*
X121403165Y-75235455D01*
X122436073Y-75235455D01*
X122524282Y-75531366D01*
X122563113Y-75633396D01*
X122641795Y-75744042D01*
X122779895Y-75789310D01*
X123032282Y-75798000D01*
X123211416Y-75797735D01*
X123357889Y-75777513D01*
X123420442Y-75700415D01*
X123422149Y-75529168D01*
X123386086Y-75226500D01*
X123358722Y-75068710D01*
X123297221Y-74986775D01*
X123156553Y-74956012D01*
X122891635Y-74951333D01*
X122807035Y-74952028D01*
X122557649Y-74977049D01*
X122440595Y-75061103D01*
X122436073Y-75235455D01*
X121403165Y-75235455D01*
X121300787Y-75011414D01*
X121226006Y-74932079D01*
X121169972Y-74990526D01*
X121122923Y-75177842D01*
X121100077Y-75278497D01*
X120967226Y-75656391D01*
X120763875Y-76086518D01*
X120519571Y-76510656D01*
X120263862Y-76870582D01*
X120212934Y-76933180D01*
X120053895Y-77137757D01*
X119992443Y-77252201D01*
X119748787Y-77252201D01*
X120073121Y-76851946D01*
X120261300Y-76597165D01*
X120528472Y-76163678D01*
X120764471Y-75702684D01*
X120943306Y-75266507D01*
X121038988Y-74907471D01*
X121075019Y-74721806D01*
X121137833Y-74598030D01*
X121226006Y-74586834D01*
X121236116Y-74585550D01*
X121251713Y-74588366D01*
X121420232Y-74551663D01*
X121617949Y-74435326D01*
X121658316Y-74401547D01*
X121787493Y-74229411D01*
X121818660Y-74011126D01*
X121801212Y-73935333D01*
X122265276Y-73935333D01*
X122856305Y-73935333D01*
X122891635Y-73935333D01*
X123447333Y-73935333D01*
X123447333Y-73305330D01*
X123447107Y-73258971D01*
X123433712Y-72954834D01*
X123403740Y-72727482D01*
X123362910Y-72623150D01*
X123351710Y-72617368D01*
X123198198Y-72585963D01*
X122958873Y-72570627D01*
X122697323Y-72571443D01*
X122477134Y-72588493D01*
X122361895Y-72621858D01*
X122357877Y-72627318D01*
X122327653Y-72753336D01*
X122301539Y-72995636D01*
X122284805Y-73307364D01*
X122265276Y-73935333D01*
X121801212Y-73935333D01*
X121750886Y-73716719D01*
X121583243Y-73316219D01*
X121502749Y-73155815D01*
X121374072Y-72976459D01*
X121244612Y-72930184D01*
X121084055Y-72997642D01*
X121067860Y-73006309D01*
X120980505Y-72992549D01*
X120876430Y-72862507D01*
X120736694Y-72594179D01*
X120587980Y-72326551D01*
X120347853Y-71971130D01*
X120094305Y-71655958D01*
X120094153Y-71655790D01*
X119873756Y-71389902D01*
X119694435Y-71134045D01*
X119595000Y-70943588D01*
X119564673Y-70874896D01*
X119385267Y-70644162D01*
X119107402Y-70413640D01*
X118832847Y-70249251D01*
X118285618Y-70050402D01*
X117670664Y-69986361D01*
X116966101Y-70053448D01*
X116902205Y-70121656D01*
X116860139Y-70292814D01*
X116885667Y-70414254D01*
X116909545Y-70527844D01*
X117107290Y-70770235D01*
X117435569Y-70983589D01*
X117874101Y-71155034D01*
X118402607Y-71271700D01*
X118604592Y-71311013D01*
X118750235Y-71380177D01*
X118790667Y-71487497D01*
X118782995Y-71543025D01*
X118723105Y-71599578D01*
X118581292Y-71607057D01*
X118330982Y-71565007D01*
X117945601Y-71472971D01*
X117914322Y-71465317D01*
X117682165Y-71441702D01*
X117537135Y-71511912D01*
X117489060Y-71573923D01*
X117523026Y-71632895D01*
X117700254Y-71681017D01*
X118002257Y-71745632D01*
X118356588Y-71841208D01*
X118542992Y-71925244D01*
X118560977Y-71997556D01*
X118554852Y-72003050D01*
X118395316Y-72036810D01*
X118105707Y-71996627D01*
X117717742Y-71966394D01*
X117256597Y-72014205D01*
X116797274Y-72127859D01*
X116412276Y-72294601D01*
X116325687Y-72355932D01*
X116111775Y-72573999D01*
X115933438Y-72835764D01*
X115800260Y-73205391D01*
X115795217Y-73624449D01*
X115939149Y-74010999D01*
X116221580Y-74338861D01*
X116632034Y-74581852D01*
X116820193Y-74667663D01*
X116961373Y-74775179D01*
X116970333Y-74825018D01*
X116981647Y-74887950D01*
X116972534Y-74965079D01*
X117013060Y-74993424D01*
X117030455Y-74992431D01*
X117088045Y-75084111D01*
X117138093Y-75280685D01*
X117193858Y-75610757D01*
X117820203Y-75642386D01*
X117855609Y-75644317D01*
X118169387Y-75674062D01*
X118414915Y-75718626D01*
X118541666Y-75769133D01*
X118571141Y-75818424D01*
X118600302Y-76041212D01*
X118577147Y-76421126D01*
X118551988Y-76623900D01*
X118487254Y-76880034D01*
X118366000Y-77021377D01*
X118150947Y-77080146D01*
X117804815Y-77088558D01*
X117444231Y-77045400D01*
X117166931Y-76904087D01*
X116971210Y-76646361D01*
X116905573Y-76500795D01*
X116850967Y-76305602D01*
X116858443Y-76185822D01*
X116931393Y-76181097D01*
X116934260Y-76182808D01*
X116982044Y-76161005D01*
X116967995Y-76023217D01*
X116904967Y-75804040D01*
X116805815Y-75538066D01*
X116789796Y-75501667D01*
X116928000Y-75501667D01*
X116970333Y-75544000D01*
X117012667Y-75501667D01*
X116970333Y-75459333D01*
X116928000Y-75501667D01*
X116789796Y-75501667D01*
X116683394Y-75259890D01*
X116550559Y-75004108D01*
X116420164Y-74805312D01*
X116222928Y-74614667D01*
X115982430Y-74454241D01*
X115868058Y-74390200D01*
X115583517Y-74141310D01*
X115425065Y-73810125D01*
X115376215Y-73367075D01*
X115381219Y-73218700D01*
X115428364Y-72873992D01*
X115513001Y-72614401D01*
X115546977Y-72555903D01*
X115715272Y-72335301D01*
X115934788Y-72103982D01*
X116155599Y-71911416D01*
X116327777Y-71807074D01*
X116352906Y-71783369D01*
X116366251Y-71638120D01*
X116338169Y-71477837D01*
X116635084Y-71477837D01*
X116641135Y-71586271D01*
X116707219Y-71649333D01*
X116717453Y-71636641D01*
X116730444Y-71526058D01*
X116721533Y-71472317D01*
X116658508Y-71447241D01*
X116635084Y-71477837D01*
X116338169Y-71477837D01*
X116325185Y-71403728D01*
X116310055Y-71353000D01*
X116504667Y-71353000D01*
X116547000Y-71395333D01*
X116589333Y-71353000D01*
X116843333Y-71353000D01*
X116885667Y-71395333D01*
X116928000Y-71353000D01*
X116885667Y-71310667D01*
X116843333Y-71353000D01*
X116589333Y-71353000D01*
X116547000Y-71310667D01*
X116504667Y-71353000D01*
X116310055Y-71353000D01*
X116242107Y-71125190D01*
X116129415Y-70847503D01*
X115999506Y-70615663D01*
X115978549Y-70586557D01*
X115828417Y-70421667D01*
X116504667Y-70421667D01*
X116547000Y-70464000D01*
X116589333Y-70421667D01*
X116547000Y-70379333D01*
X116504667Y-70421667D01*
X115828417Y-70421667D01*
X115779726Y-70368190D01*
X115640609Y-70252333D01*
X116674000Y-70252333D01*
X116716333Y-70294667D01*
X116758667Y-70252333D01*
X116716333Y-70210000D01*
X116674000Y-70252333D01*
X115640609Y-70252333D01*
X115535445Y-70164752D01*
X115297056Y-70014577D01*
X115115907Y-69956000D01*
X115081992Y-69953292D01*
X114946825Y-69893936D01*
X114840467Y-69828945D01*
X114641514Y-69756822D01*
X114419569Y-69702480D01*
X114234984Y-69680239D01*
X114148111Y-69704419D01*
X114121111Y-69741585D01*
X113988709Y-69786667D01*
X113911068Y-69809484D01*
X113749105Y-69924253D01*
X113604137Y-70080714D01*
X113541333Y-70216285D01*
X113524205Y-70251134D01*
X113417012Y-70393055D01*
X113233265Y-70610581D01*
X112998349Y-70873007D01*
X112940829Y-70936738D01*
X112413849Y-71651274D01*
X112043189Y-72427240D01*
X111831113Y-73256123D01*
X111779881Y-74129407D01*
X111891757Y-75038578D01*
X111977651Y-75417038D01*
X112096687Y-75824873D01*
X112245070Y-76181207D01*
X112442463Y-76518587D01*
X112708531Y-76869562D01*
X113062940Y-77266680D01*
X113525353Y-77742490D01*
X113840055Y-78057084D01*
X114119339Y-78332218D01*
X114329015Y-78534206D01*
X114452656Y-78647237D01*
X114473835Y-78655500D01*
X114450415Y-78620274D01*
X114436685Y-78549667D01*
X115065333Y-78549667D01*
X115107667Y-78592000D01*
X115150000Y-78549667D01*
X115488667Y-78549667D01*
X115531000Y-78592000D01*
X115573333Y-78549667D01*
X115531000Y-78507333D01*
X115488667Y-78549667D01*
X115150000Y-78549667D01*
X115107667Y-78507333D01*
X115065333Y-78549667D01*
X114436685Y-78549667D01*
X114432652Y-78528927D01*
X114538283Y-78487615D01*
X114637003Y-78486364D01*
X114754889Y-78484871D01*
X114789255Y-78484436D01*
X114828453Y-78479701D01*
X114850384Y-78417355D01*
X114860905Y-78380333D01*
X115150000Y-78380333D01*
X115192333Y-78422667D01*
X115234667Y-78380333D01*
X115192333Y-78338000D01*
X115150000Y-78380333D01*
X114860905Y-78380333D01*
X114868930Y-78352095D01*
X114933299Y-78295667D01*
X115404000Y-78295667D01*
X115446333Y-78338000D01*
X115488667Y-78295667D01*
X115446333Y-78253333D01*
X115404000Y-78295667D01*
X114933299Y-78295667D01*
X114982352Y-78252665D01*
X115107667Y-78184933D01*
X115133226Y-78171118D01*
X115192333Y-78161265D01*
X115255833Y-78150679D01*
X115264364Y-78152546D01*
X115301152Y-78105166D01*
X115313205Y-78051092D01*
X115317794Y-78041667D01*
X115404000Y-78041667D01*
X115446333Y-78084000D01*
X115488667Y-78041667D01*
X115446333Y-77999333D01*
X115404000Y-78041667D01*
X115317794Y-78041667D01*
X115394199Y-77884729D01*
X115446333Y-77797621D01*
X115502964Y-77703000D01*
X116335333Y-77703000D01*
X116377667Y-77745333D01*
X116420000Y-77703000D01*
X116391314Y-77674314D01*
X116698269Y-77674314D01*
X116708248Y-77732251D01*
X116734384Y-77769863D01*
X116805997Y-77830000D01*
X116817833Y-77829176D01*
X116836478Y-77780165D01*
X116745585Y-77694915D01*
X116698269Y-77674314D01*
X116391314Y-77674314D01*
X116377667Y-77660667D01*
X116335333Y-77703000D01*
X115502964Y-77703000D01*
X115528300Y-77660667D01*
X115531000Y-77656158D01*
X115604340Y-77533667D01*
X116335333Y-77533667D01*
X116377667Y-77576000D01*
X116420000Y-77533667D01*
X116377667Y-77491333D01*
X116335333Y-77533667D01*
X115604340Y-77533667D01*
X115614059Y-77517435D01*
X115740678Y-77260999D01*
X115803308Y-77068000D01*
X115828160Y-76874152D01*
X115834886Y-76769965D01*
X116014756Y-76769965D01*
X116024889Y-76870444D01*
X116050355Y-76883690D01*
X116081333Y-76814000D01*
X116075223Y-76769178D01*
X116024889Y-76757555D01*
X116014756Y-76769965D01*
X115834886Y-76769965D01*
X115851172Y-76517667D01*
X115996667Y-76517667D01*
X116024889Y-76545889D01*
X116039000Y-76560000D01*
X116081333Y-76517667D01*
X116039000Y-76475333D01*
X115996667Y-76517667D01*
X115851172Y-76517667D01*
X115856081Y-76441629D01*
X115825188Y-76089810D01*
X115732332Y-75760713D01*
X115730570Y-75755667D01*
X115827333Y-75755667D01*
X115869667Y-75798000D01*
X115912000Y-75755667D01*
X115869667Y-75713333D01*
X115827333Y-75755667D01*
X115730570Y-75755667D01*
X115675474Y-75597869D01*
X115618680Y-75400219D01*
X115610403Y-75309374D01*
X115619688Y-75305171D01*
X115710873Y-75356383D01*
X115850654Y-75491728D01*
X115869667Y-75513960D01*
X115999474Y-75665742D01*
X116039000Y-75721613D01*
X116117775Y-75832963D01*
X116166000Y-75947924D01*
X116166030Y-75953928D01*
X116191953Y-76027728D01*
X116291922Y-75968228D01*
X116378199Y-75919635D01*
X116539421Y-75910376D01*
X116603374Y-75960697D01*
X116593043Y-76068696D01*
X116498166Y-76276417D01*
X116423684Y-76429426D01*
X116349677Y-76651201D01*
X116362934Y-76838958D01*
X116377667Y-76873036D01*
X116460024Y-77063533D01*
X116641360Y-77293404D01*
X116698269Y-77328541D01*
X116979853Y-77502398D01*
X117420798Y-77624054D01*
X117934933Y-77646799D01*
X118254375Y-77642608D01*
X118540985Y-77690490D01*
X118699544Y-77805952D01*
X118748470Y-77996917D01*
X118776779Y-78056543D01*
X118934164Y-78177355D01*
X119199061Y-78304514D01*
X119649516Y-78484083D01*
X119118405Y-78544171D01*
X118865378Y-78579592D01*
X118597784Y-78633180D01*
X118434980Y-78685775D01*
X118329255Y-78790659D01*
X118280555Y-79000294D01*
X118325595Y-79241525D01*
X118452160Y-79461510D01*
X118648035Y-79607409D01*
X118833000Y-79681933D01*
X118648547Y-79687300D01*
X118457014Y-79646136D01*
X118265277Y-79462176D01*
X118150879Y-79146591D01*
X118135610Y-79042028D01*
X118164546Y-78768490D01*
X118326157Y-78580598D01*
X118636320Y-78455757D01*
X118779038Y-78412897D01*
X118898780Y-78349835D01*
X118883477Y-78304354D01*
X118754594Y-78282882D01*
X118533592Y-78291844D01*
X118241935Y-78337667D01*
X118107839Y-78366900D01*
X117900200Y-78428372D01*
X117813827Y-78495947D01*
X117816021Y-78588915D01*
X117822299Y-78611242D01*
X117818403Y-78696471D01*
X117742950Y-78759616D01*
X117571550Y-78808294D01*
X117279808Y-78850125D01*
X116843333Y-78892728D01*
X116488363Y-78907981D01*
X115984136Y-78886158D01*
X115513160Y-78821665D01*
X115142207Y-78721234D01*
X115107791Y-78711578D01*
X115007501Y-78757311D01*
X114927372Y-78947907D01*
X114824081Y-79161305D01*
X114679320Y-79228124D01*
X114510283Y-79135966D01*
X114423357Y-79015333D01*
X114599667Y-79015333D01*
X114617044Y-79040671D01*
X114689330Y-79100000D01*
X114697780Y-79097799D01*
X114726667Y-79015333D01*
X114723221Y-78992127D01*
X114637003Y-78930667D01*
X114606379Y-78937314D01*
X114599667Y-79015333D01*
X114423357Y-79015333D01*
X114330313Y-78886211D01*
X114299197Y-78835809D01*
X114208859Y-78717298D01*
X114744756Y-78717298D01*
X114754889Y-78817778D01*
X114780355Y-78831023D01*
X114811333Y-78761333D01*
X114805223Y-78716511D01*
X114754889Y-78704889D01*
X114744756Y-78717298D01*
X114208859Y-78717298D01*
X114135484Y-78621041D01*
X113886166Y-78332201D01*
X113579205Y-78000848D01*
X113242565Y-77658544D01*
X113152512Y-77569387D01*
X112730495Y-77133603D01*
X112413657Y-76760237D01*
X112179817Y-76411752D01*
X112006793Y-76050608D01*
X111872406Y-75639270D01*
X111754473Y-75140201D01*
X111650753Y-74511823D01*
X111625551Y-73813066D01*
X111714797Y-73125625D01*
X111922405Y-72385271D01*
X111972941Y-72239181D01*
X112114512Y-71870652D01*
X112265514Y-71563567D01*
X112453848Y-71272957D01*
X112707414Y-70953856D01*
X113054113Y-70561296D01*
X113142166Y-70463152D01*
X113346243Y-70227091D01*
X113488140Y-70050170D01*
X113541333Y-69964860D01*
X113592684Y-69897856D01*
X113746951Y-69757884D01*
X113869521Y-69659667D01*
X116335333Y-69659667D01*
X116377667Y-69702000D01*
X116420000Y-69659667D01*
X116377667Y-69617333D01*
X116335333Y-69659667D01*
X113869521Y-69659667D01*
X113968173Y-69580616D01*
X113976552Y-69575000D01*
X114557333Y-69575000D01*
X114599667Y-69617333D01*
X114642000Y-69575000D01*
X114599667Y-69532667D01*
X114557333Y-69575000D01*
X113976552Y-69575000D01*
X114102881Y-69490333D01*
X114388000Y-69490333D01*
X114430333Y-69532667D01*
X114472667Y-69490333D01*
X114430333Y-69448000D01*
X114388000Y-69490333D01*
X114102881Y-69490333D01*
X114208154Y-69419778D01*
X114839555Y-69419778D01*
X114851965Y-69429911D01*
X114952444Y-69419778D01*
X114965690Y-69394311D01*
X114896000Y-69363333D01*
X114851178Y-69369443D01*
X114839555Y-69419778D01*
X114208154Y-69419778D01*
X114283832Y-69369058D01*
X114430333Y-69299931D01*
X114599667Y-69220030D01*
X114744548Y-69151667D01*
X115319333Y-69151667D01*
X115361667Y-69194000D01*
X115404000Y-69151667D01*
X116081333Y-69151667D01*
X116123667Y-69194000D01*
X116166000Y-69151667D01*
X116123667Y-69109333D01*
X116081333Y-69151667D01*
X115404000Y-69151667D01*
X115361667Y-69109333D01*
X115319333Y-69151667D01*
X114744548Y-69151667D01*
X114896000Y-69080203D01*
X114923981Y-69067000D01*
X115742667Y-69067000D01*
X115785000Y-69109333D01*
X115827333Y-69067000D01*
X115785000Y-69024667D01*
X115742667Y-69067000D01*
X114923981Y-69067000D01*
X114949999Y-69054723D01*
X115361667Y-68936318D01*
X115705142Y-68837527D01*
X115785000Y-68826583D01*
X116123667Y-68780172D01*
X116377667Y-68745363D01*
X116511212Y-68727062D01*
X116547000Y-68727318D01*
G37*
%TO.C,SW10*%
D12*
X113950000Y-125600000D02*
X114550000Y-125600000D01*
X114250000Y-125300000D02*
X113950000Y-125600000D01*
X114550000Y-125600000D02*
X114250000Y-125300000D01*
X115650000Y-127400000D02*
X115650000Y-115600000D01*
X119750000Y-115600000D02*
X115650000Y-115600000D01*
X119750000Y-127400000D02*
X115650000Y-127400000D01*
X121250000Y-121500000D02*
X122250000Y-121500000D01*
X121750000Y-122000000D02*
X121750000Y-121000000D01*
X123750000Y-127400000D02*
X127850000Y-127400000D01*
X127850000Y-115600000D02*
X123750000Y-115600000D01*
X127850000Y-118000000D02*
X127850000Y-115600000D01*
X127850000Y-122800000D02*
X127850000Y-120200000D01*
X127850000Y-127400000D02*
X127850000Y-125000000D01*
X124750000Y-121500000D02*
G75*
G02*
X118750000Y-121500000I-3000000J0D01*
G01*
X118750000Y-121500000D02*
G75*
G02*
X124750000Y-121500000I3000000J0D01*
G01*
%TO.C,SW9*%
X134485000Y-63180000D02*
X134485000Y-77150000D01*
X134485000Y-77150000D02*
X148455000Y-77150000D01*
X148455000Y-63180000D02*
X134485000Y-63180000D01*
X148455000Y-77150000D02*
X148455000Y-63180000D01*
%TO.C,SW1*%
X172905000Y-101590000D02*
X172905000Y-115560000D01*
X172905000Y-115560000D02*
X186875000Y-115560000D01*
X186875000Y-101590000D02*
X172905000Y-101590000D01*
X186875000Y-115560000D02*
X186875000Y-101590000D01*
D13*
%TO.C,G\u002A\u002A\u002A*%
G36*
X145311967Y-123228477D02*
G01*
X145452080Y-123297021D01*
X145487684Y-123327647D01*
X145509483Y-123375513D01*
X145505434Y-123455383D01*
X145477704Y-123592198D01*
X145424539Y-123829763D01*
X145247520Y-123740782D01*
X145187144Y-123709047D01*
X145016293Y-123593508D01*
X144929368Y-123480983D01*
X144925873Y-123370487D01*
X145005308Y-123261031D01*
X145037896Y-123238178D01*
X145163459Y-123208021D01*
X145311967Y-123228477D01*
G37*
G36*
X145502928Y-122500529D02*
G01*
X145652766Y-122514443D01*
X145729699Y-122555652D01*
X145743283Y-122635761D01*
X145703079Y-122766374D01*
X145681413Y-122815992D01*
X145629524Y-122906233D01*
X145588484Y-122941999D01*
X145573729Y-122938816D01*
X145499142Y-122900319D01*
X145400155Y-122832161D01*
X145345098Y-122786764D01*
X145279481Y-122701979D01*
X145269159Y-122609911D01*
X145275017Y-122570778D01*
X145299672Y-122522043D01*
X145361362Y-122502560D01*
X145483831Y-122500196D01*
X145502928Y-122500529D01*
G37*
G36*
X156565679Y-122173431D02*
G01*
X156653756Y-122277362D01*
X156780758Y-122452161D01*
X156863335Y-122573100D01*
X156949047Y-122705823D01*
X157003845Y-122799906D01*
X157018498Y-122840279D01*
X157005777Y-122847110D01*
X156929666Y-122870066D01*
X156813264Y-122895989D01*
X156762623Y-122905248D01*
X156649873Y-122921096D01*
X156585167Y-122923120D01*
X156566472Y-122892473D01*
X156542982Y-122796876D01*
X156520928Y-122659017D01*
X156502893Y-122502055D01*
X156491461Y-122349151D01*
X156489215Y-122223467D01*
X156498737Y-122148164D01*
X156513857Y-122137492D01*
X156565679Y-122173431D01*
G37*
G36*
X162417639Y-123310693D02*
G01*
X162483013Y-123529950D01*
X162548493Y-123756890D01*
X162590524Y-123907260D01*
X162609944Y-123976736D01*
X162663228Y-124174711D01*
X162704208Y-124336037D01*
X162728748Y-124445938D01*
X162732711Y-124489637D01*
X162700481Y-124489103D01*
X162604823Y-124479884D01*
X162469501Y-124463613D01*
X162317278Y-124446154D01*
X162016807Y-124424775D01*
X161702792Y-124420589D01*
X161369245Y-124434704D01*
X161010181Y-124468228D01*
X160619610Y-124522269D01*
X160191546Y-124597935D01*
X159720001Y-124696334D01*
X159198987Y-124818574D01*
X158622518Y-124965762D01*
X158419134Y-125020997D01*
X157984605Y-125139006D01*
X157279262Y-125339415D01*
X156500501Y-125568096D01*
X156303259Y-125626488D01*
X155662111Y-125811614D01*
X155086017Y-125969819D01*
X154564121Y-126103811D01*
X154085569Y-126216297D01*
X153639504Y-126309986D01*
X153215073Y-126387584D01*
X153111795Y-126404486D01*
X152771894Y-126454602D01*
X152392899Y-126503905D01*
X151999310Y-126549652D01*
X151615631Y-126589102D01*
X151266360Y-126619513D01*
X150976001Y-126638144D01*
X150938223Y-126639872D01*
X150541999Y-126653382D01*
X150162161Y-126658352D01*
X149815686Y-126654931D01*
X149519551Y-126643265D01*
X149290732Y-126623503D01*
X149103917Y-126596692D01*
X148501095Y-126468844D01*
X147860791Y-126274580D01*
X147190523Y-126016696D01*
X146497809Y-125697989D01*
X145790167Y-125321256D01*
X145729203Y-125286279D01*
X145380117Y-125075730D01*
X145155691Y-124932179D01*
X147589334Y-124932179D01*
X147594934Y-124969368D01*
X147648722Y-125044775D01*
X147765406Y-125115138D01*
X147952170Y-125184164D01*
X148216199Y-125255557D01*
X148451649Y-125307781D01*
X148696218Y-125345955D01*
X148870086Y-125349724D01*
X148976900Y-125319392D01*
X148998249Y-125283075D01*
X149001470Y-125271299D01*
X149442755Y-125271299D01*
X149463741Y-125393944D01*
X149543256Y-125507169D01*
X149694058Y-125594390D01*
X149818230Y-125632861D01*
X150039175Y-125653313D01*
X150255336Y-125623768D01*
X150433461Y-125546382D01*
X150534178Y-125459097D01*
X150670856Y-125263119D01*
X150774436Y-125009986D01*
X150840975Y-124713957D01*
X150866528Y-124389296D01*
X150847154Y-124050265D01*
X150821237Y-123882529D01*
X150749586Y-123614043D01*
X150645067Y-123412828D01*
X150502151Y-123269798D01*
X150365598Y-123201145D01*
X152015613Y-123201145D01*
X152070080Y-123350229D01*
X152182931Y-123536966D01*
X152352784Y-123756212D01*
X152404613Y-123817562D01*
X152511085Y-123947008D01*
X152573040Y-124034075D01*
X152598275Y-124094733D01*
X152594584Y-124144955D01*
X152569766Y-124200712D01*
X152527985Y-124292831D01*
X152492366Y-124389296D01*
X152461570Y-124472698D01*
X152396950Y-124679741D01*
X152341573Y-124887527D01*
X152302885Y-125069624D01*
X152288334Y-125199598D01*
X152289396Y-125233097D01*
X152311828Y-125369807D01*
X152354235Y-125472580D01*
X152422404Y-125535974D01*
X152557810Y-125566666D01*
X152638225Y-125562637D01*
X152726199Y-125537397D01*
X152793038Y-125478035D01*
X152846894Y-125372110D01*
X152895919Y-125207181D01*
X152948265Y-124970807D01*
X152951970Y-124952763D01*
X153002564Y-124707483D01*
X153040158Y-124532501D01*
X153068645Y-124415950D01*
X153091917Y-124345960D01*
X153113867Y-124310662D01*
X153138389Y-124298187D01*
X153169374Y-124296666D01*
X153206834Y-124309020D01*
X153263664Y-124382384D01*
X153323843Y-124530184D01*
X153412927Y-124729783D01*
X153545514Y-124925692D01*
X153700561Y-125083836D01*
X153863410Y-125189507D01*
X154019400Y-125227999D01*
X154088528Y-125214878D01*
X154150519Y-125145291D01*
X154157665Y-125020997D01*
X154110081Y-124847853D01*
X154007878Y-124631718D01*
X153893850Y-124412715D01*
X153774565Y-124137245D01*
X153688084Y-123860582D01*
X153626186Y-123555032D01*
X153580646Y-123192901D01*
X153574720Y-123135544D01*
X153549425Y-122920405D01*
X153523015Y-122735133D01*
X153498287Y-122597889D01*
X153478041Y-122526837D01*
X153464929Y-122505179D01*
X153449284Y-122492681D01*
X153969224Y-122492681D01*
X153972486Y-122570385D01*
X154017616Y-122700252D01*
X154106236Y-122762767D01*
X154227456Y-122753203D01*
X154370388Y-122666833D01*
X154441849Y-122608899D01*
X154516461Y-122569552D01*
X154583471Y-122583812D01*
X154675862Y-122649842D01*
X154775345Y-122751318D01*
X154899799Y-122950728D01*
X155003717Y-123201754D01*
X155081082Y-123485576D01*
X155125874Y-123783378D01*
X155132077Y-124076340D01*
X155123176Y-124141184D01*
X155051088Y-124289058D01*
X154920702Y-124387749D01*
X154747081Y-124423666D01*
X154691400Y-124425363D01*
X154588495Y-124449894D01*
X154529891Y-124512275D01*
X154528257Y-124515376D01*
X154501088Y-124649954D01*
X154550742Y-124780809D01*
X154670720Y-124890487D01*
X154675138Y-124893151D01*
X154867043Y-124961891D01*
X155072587Y-124959220D01*
X155272762Y-124891489D01*
X155448561Y-124765051D01*
X155580980Y-124586258D01*
X155672353Y-124348393D01*
X155727501Y-124022355D01*
X155725077Y-123663806D01*
X155665384Y-123288510D01*
X155548726Y-122912229D01*
X155545640Y-122904351D01*
X155391676Y-122572470D01*
X155219967Y-122320051D01*
X155157182Y-122262725D01*
X156043178Y-122262725D01*
X156053862Y-122586407D01*
X156084819Y-122930910D01*
X156135994Y-123280666D01*
X156155633Y-123389781D01*
X156217390Y-123699000D01*
X156277122Y-123938192D01*
X156305738Y-124022355D01*
X156338391Y-124118393D01*
X156404759Y-124250638D01*
X156479786Y-124345964D01*
X156494875Y-124360112D01*
X156609904Y-124431053D01*
X156739038Y-124467134D01*
X156854358Y-124463930D01*
X156927945Y-124417014D01*
X156939870Y-124391356D01*
X156952784Y-124263377D01*
X156926190Y-124080140D01*
X156861758Y-123855803D01*
X156822225Y-123736387D01*
X156793205Y-123637883D01*
X156786141Y-123596831D01*
X156818618Y-123590200D01*
X156914912Y-123577679D01*
X157050834Y-123563073D01*
X157304834Y-123537925D01*
X157431834Y-123737379D01*
X157478292Y-123802701D01*
X157597502Y-123931988D01*
X157716381Y-124021190D01*
X157754389Y-124041290D01*
X157840517Y-124078938D01*
X157893858Y-124076029D01*
X157945146Y-124034330D01*
X157979501Y-123991071D01*
X158006353Y-123907260D01*
X157996348Y-123796019D01*
X157946629Y-123646819D01*
X157854339Y-123449131D01*
X157716619Y-123192425D01*
X157591004Y-122965076D01*
X157442970Y-122693796D01*
X157299406Y-122427742D01*
X157178893Y-122201166D01*
X157097795Y-122048033D01*
X156973659Y-121821063D01*
X156873941Y-121653407D01*
X156790602Y-121534129D01*
X156715605Y-121452297D01*
X156640911Y-121396975D01*
X156558483Y-121357231D01*
X156490199Y-121337757D01*
X157814819Y-121337757D01*
X157828028Y-121446575D01*
X157860678Y-121603039D01*
X157914848Y-121823983D01*
X157915044Y-121824758D01*
X157985924Y-122092614D01*
X158066244Y-122376936D01*
X158151524Y-122663688D01*
X158237284Y-122938835D01*
X158319041Y-123188344D01*
X158392316Y-123398179D01*
X158452627Y-123554304D01*
X158495493Y-123642686D01*
X158573094Y-123730425D01*
X158684852Y-123811996D01*
X158796869Y-123857928D01*
X158929159Y-123863444D01*
X159033940Y-123795916D01*
X159037774Y-123791612D01*
X159078653Y-123728910D01*
X159097869Y-123648036D01*
X159095153Y-123533145D01*
X159070241Y-123368388D01*
X159022864Y-123137921D01*
X158941726Y-122766631D01*
X159118114Y-122691402D01*
X159176609Y-122666993D01*
X159336766Y-122605130D01*
X159479194Y-122556496D01*
X159583787Y-122527620D01*
X159630439Y-122525030D01*
X159638297Y-122537288D01*
X159679913Y-122608746D01*
X159747765Y-122728269D01*
X159831955Y-122878499D01*
X159846420Y-122904339D01*
X159944435Y-123068866D01*
X160026947Y-123178922D01*
X160111482Y-123254473D01*
X160215569Y-123315485D01*
X160343284Y-123372641D01*
X160429034Y-123387880D01*
X160500076Y-123365827D01*
X160531099Y-123347169D01*
X160607632Y-123266966D01*
X160642885Y-123151591D01*
X160636870Y-122991351D01*
X160589597Y-122776551D01*
X160501078Y-122497499D01*
X160492843Y-122473282D01*
X160437592Y-122294223D01*
X160371684Y-122059701D01*
X160301128Y-121792923D01*
X160231928Y-121517100D01*
X160170090Y-121255439D01*
X160121620Y-121031150D01*
X160118654Y-121016728D01*
X160057523Y-120820294D01*
X159969409Y-120700428D01*
X159847904Y-120651797D01*
X159686599Y-120669065D01*
X159677163Y-120671736D01*
X159548943Y-120753982D01*
X159456439Y-120911260D01*
X159400434Y-121141579D01*
X159381711Y-121442952D01*
X159381918Y-121827738D01*
X159146039Y-121919202D01*
X159039053Y-121959069D01*
X158927997Y-121996296D01*
X158868692Y-122010666D01*
X158846276Y-121990181D01*
X158793259Y-121906651D01*
X158722212Y-121773643D01*
X158642183Y-121607273D01*
X158627608Y-121575818D01*
X158489774Y-121313199D01*
X158358301Y-121131052D01*
X158229387Y-121026172D01*
X158099229Y-120995350D01*
X157964024Y-121035381D01*
X157897700Y-121097088D01*
X157837474Y-121197949D01*
X157818968Y-121259756D01*
X157814819Y-121337757D01*
X156490199Y-121337757D01*
X156427290Y-121319816D01*
X156311812Y-121335233D01*
X156217531Y-121419521D01*
X156129669Y-121580370D01*
X156082868Y-121740107D01*
X156052828Y-121975435D01*
X156043178Y-122262725D01*
X155157182Y-122262725D01*
X155026067Y-122143010D01*
X154805528Y-122037264D01*
X154553905Y-121998729D01*
X154505121Y-121998993D01*
X154289405Y-122040026D01*
X154121909Y-122141286D01*
X154012045Y-122294821D01*
X153969224Y-122492681D01*
X153449284Y-122492681D01*
X153371617Y-122430639D01*
X153252956Y-122421339D01*
X153129490Y-122474548D01*
X153072765Y-122534039D01*
X153021758Y-122587533D01*
X152988514Y-122657220D01*
X152952978Y-122841067D01*
X152951241Y-122999740D01*
X152950231Y-123091947D01*
X152980641Y-123402583D01*
X153012376Y-123630334D01*
X152745605Y-123399212D01*
X152731936Y-123387380D01*
X152551081Y-123234335D01*
X152416887Y-123130436D01*
X152315613Y-123066989D01*
X152233515Y-123035297D01*
X152156852Y-123026666D01*
X152087359Y-123036517D01*
X152020912Y-123094859D01*
X152015613Y-123201145D01*
X150365598Y-123201145D01*
X150315311Y-123175863D01*
X150313250Y-123175160D01*
X150128199Y-123150269D01*
X149952416Y-123192069D01*
X149804200Y-123288682D01*
X149785303Y-123314447D01*
X149701850Y-123428229D01*
X149663667Y-123598834D01*
X149668686Y-123686123D01*
X149698346Y-123735451D01*
X149770990Y-123746333D01*
X149868744Y-123728822D01*
X149984391Y-123676827D01*
X150027863Y-123653049D01*
X150150674Y-123639197D01*
X150263026Y-123707103D01*
X150360528Y-123854689D01*
X150377036Y-123893444D01*
X150422092Y-124093226D01*
X150424843Y-124322393D01*
X150389924Y-124558574D01*
X150321972Y-124779395D01*
X150225622Y-124962484D01*
X150105509Y-125085467D01*
X150066728Y-125108927D01*
X149996093Y-125133008D01*
X149906125Y-125129642D01*
X149766011Y-125100162D01*
X149756869Y-125097987D01*
X149596549Y-125070615D01*
X149499497Y-125085749D01*
X149452602Y-125150330D01*
X149442755Y-125271299D01*
X149001470Y-125271299D01*
X149029362Y-125169312D01*
X149061815Y-124990906D01*
X149093268Y-124759124D01*
X149114660Y-124581047D01*
X149149362Y-124299306D01*
X149184460Y-124021137D01*
X149214917Y-123786811D01*
X149231365Y-123650611D01*
X149248468Y-123464298D01*
X149255911Y-123314447D01*
X149252131Y-123224674D01*
X149241911Y-123187263D01*
X149179480Y-123084454D01*
X149090647Y-123019457D01*
X149001075Y-123013823D01*
X148927885Y-123081732D01*
X148857674Y-123226442D01*
X148794116Y-123438773D01*
X148739306Y-123710132D01*
X148695338Y-124031923D01*
X148664307Y-124395555D01*
X148661412Y-124440527D01*
X148645036Y-124641422D01*
X148626079Y-124772910D01*
X148602035Y-124847901D01*
X148570396Y-124879308D01*
X148551040Y-124882721D01*
X148455082Y-124879132D01*
X148309011Y-124860580D01*
X148135924Y-124829702D01*
X148021295Y-124808317D01*
X147820741Y-124785475D01*
X147687039Y-124797541D01*
X147612475Y-124845960D01*
X147589334Y-124932179D01*
X145155691Y-124932179D01*
X144986469Y-124823938D01*
X144564801Y-124542497D01*
X144131656Y-124242999D01*
X143703578Y-123937037D01*
X143297109Y-123636204D01*
X143048327Y-123444300D01*
X144583667Y-123444300D01*
X144584185Y-123466740D01*
X144634155Y-123660560D01*
X144761813Y-123836089D01*
X144961642Y-123987635D01*
X145228124Y-124109502D01*
X145252358Y-124117564D01*
X145408268Y-124154608D01*
X145552461Y-124169666D01*
X145706275Y-124169666D01*
X145800410Y-123820416D01*
X145811063Y-123781664D01*
X146285304Y-123781664D01*
X146285430Y-124091985D01*
X146327939Y-124353095D01*
X146411763Y-124556379D01*
X146535839Y-124693223D01*
X146550259Y-124702328D01*
X146680876Y-124744919D01*
X146853116Y-124759517D01*
X147033679Y-124745635D01*
X147189266Y-124702787D01*
X147202866Y-124696661D01*
X147343964Y-124602797D01*
X147464230Y-124457193D01*
X147570845Y-124248874D01*
X147670995Y-123966865D01*
X147679965Y-123937672D01*
X147777782Y-123606847D01*
X147845670Y-123345870D01*
X147884253Y-123146312D01*
X147894158Y-122999740D01*
X147876010Y-122897725D01*
X147830435Y-122831835D01*
X147758059Y-122793639D01*
X147682563Y-122786898D01*
X147589715Y-122841730D01*
X147510014Y-122974536D01*
X147440927Y-123188471D01*
X147355504Y-123521173D01*
X147279930Y-123800178D01*
X147216000Y-124013030D01*
X147160222Y-124168197D01*
X147109101Y-124274143D01*
X147059144Y-124339337D01*
X147006858Y-124372245D01*
X146948749Y-124381333D01*
X146873594Y-124349297D01*
X146799182Y-124270779D01*
X146797602Y-124268358D01*
X146766554Y-124211259D01*
X146749836Y-124145716D01*
X146746762Y-124052874D01*
X146756648Y-123913875D01*
X146778808Y-123709862D01*
X146794558Y-123583151D01*
X146825199Y-123371296D01*
X146857138Y-123184481D01*
X146885566Y-123052315D01*
X146911168Y-122930961D01*
X146916924Y-122759414D01*
X146876526Y-122643411D01*
X146793357Y-122589980D01*
X146670801Y-122606151D01*
X146654971Y-122612936D01*
X146571248Y-122682135D01*
X146496979Y-122809206D01*
X146428009Y-123003062D01*
X146360186Y-123272618D01*
X146328624Y-123430744D01*
X146285304Y-123781664D01*
X145811063Y-123781664D01*
X145830965Y-123709271D01*
X145894959Y-123483883D01*
X145967105Y-123236370D01*
X146036853Y-123003192D01*
X146060084Y-122925394D01*
X146121932Y-122693353D01*
X146150128Y-122534039D01*
X146145368Y-122443872D01*
X146106621Y-122391449D01*
X146004744Y-122309960D01*
X145865137Y-122228122D01*
X145856233Y-122223641D01*
X145580207Y-122101536D01*
X145357153Y-122040589D01*
X145181676Y-122040779D01*
X145048380Y-122102085D01*
X144951867Y-122224484D01*
X144912839Y-122324212D01*
X144896877Y-122517831D01*
X144944118Y-122754001D01*
X144945043Y-122757156D01*
X144941436Y-122833417D01*
X144867067Y-122888212D01*
X144843885Y-122901367D01*
X144752373Y-122995598D01*
X144668574Y-123136973D01*
X144607376Y-123296279D01*
X144583667Y-123444300D01*
X143048327Y-123444300D01*
X142928791Y-123352093D01*
X142615167Y-123096296D01*
X142422545Y-122932390D01*
X142127492Y-122677701D01*
X141879318Y-122458559D01*
X141681838Y-122278471D01*
X141538867Y-122140948D01*
X141454220Y-122049498D01*
X141431710Y-122007631D01*
X141447571Y-122001298D01*
X141536561Y-121990505D01*
X141693885Y-121981408D01*
X141908906Y-121974413D01*
X142170989Y-121969920D01*
X142469499Y-121968333D01*
X142665996Y-121967836D01*
X142929230Y-121965469D01*
X143154130Y-121961421D01*
X143329114Y-121955990D01*
X143442599Y-121949476D01*
X143483001Y-121942178D01*
X143476001Y-121924069D01*
X143436282Y-121840292D01*
X143366193Y-121698763D01*
X143271155Y-121510282D01*
X143156589Y-121285647D01*
X143027917Y-121035658D01*
X142948225Y-120880029D01*
X142830456Y-120644026D01*
X142732185Y-120439528D01*
X142658439Y-120277366D01*
X142614244Y-120168374D01*
X142604625Y-120123382D01*
X142634715Y-120120435D01*
X142721382Y-120148852D01*
X142837458Y-120207430D01*
X142890773Y-120237036D01*
X143033736Y-120312481D01*
X143224099Y-120409949D01*
X143443481Y-120520073D01*
X143673501Y-120633486D01*
X144236567Y-120893709D01*
X145165776Y-121260710D01*
X146101276Y-121554745D01*
X147037926Y-121775290D01*
X147970587Y-121921819D01*
X148894119Y-121993804D01*
X149803383Y-121990722D01*
X150693239Y-121912045D01*
X151558547Y-121757248D01*
X152394167Y-121525804D01*
X152542266Y-121474408D01*
X152806759Y-121374933D01*
X153103074Y-121256579D01*
X153404752Y-121130001D01*
X153685334Y-121005855D01*
X154430891Y-120677709D01*
X155234040Y-120356727D01*
X155989398Y-120092611D01*
X156703364Y-119883713D01*
X157382340Y-119728386D01*
X158032726Y-119624982D01*
X158660924Y-119571852D01*
X159273334Y-119567350D01*
X159529725Y-119577249D01*
X159805821Y-119595113D01*
X160039503Y-119622086D01*
X160254625Y-119661912D01*
X160475043Y-119718333D01*
X160724611Y-119795094D01*
X161054055Y-119901858D01*
X161184305Y-120183679D01*
X161197763Y-120212850D01*
X161485241Y-120860358D01*
X161774103Y-121554352D01*
X162050218Y-122259882D01*
X162299457Y-122941999D01*
X162303759Y-122954334D01*
X162356509Y-123113895D01*
X162368218Y-123151591D01*
X162417639Y-123310693D01*
G37*
%TD*%
%LPC*%
D14*
%TO.C,D8*%
X152500000Y-70930000D03*
D15*
X152500000Y-78550000D03*
%TD*%
D14*
%TO.C,D1*%
X171660000Y-109320000D03*
D15*
X171660000Y-116940000D03*
%TD*%
D14*
%TO.C,D5*%
X152500000Y-90150000D03*
D15*
X152500000Y-97770000D03*
%TD*%
D14*
%TO.C,D4*%
X171690000Y-90120000D03*
D15*
X171690000Y-97740000D03*
%TD*%
D14*
%TO.C,D7*%
X171690000Y-70930000D03*
D15*
X171690000Y-78550000D03*
%TD*%
D14*
%TO.C,D3*%
X133220000Y-109180000D03*
D15*
X133220000Y-116800000D03*
%TD*%
D14*
%TO.C,D6*%
X133280000Y-90000000D03*
D15*
X133280000Y-97620000D03*
%TD*%
D16*
%TO.C,A1*%
X115385000Y-62010000D03*
D17*
X115685000Y-65040000D03*
X120535000Y-65040000D03*
D16*
X120835000Y-62010000D03*
D18*
X109220000Y-61880000D03*
D15*
X109220000Y-64420000D03*
D19*
X109220000Y-66960000D03*
D15*
X109220000Y-69500000D03*
X109220000Y-72040000D03*
X109220000Y-74580000D03*
X109220000Y-77120000D03*
D19*
X109220000Y-79660000D03*
D15*
X109220000Y-82200000D03*
X109220000Y-84740000D03*
X109220000Y-87280000D03*
X109220000Y-89820000D03*
D19*
X109220000Y-92360000D03*
D15*
X109220000Y-94900000D03*
X109220000Y-97440000D03*
X109220000Y-99980000D03*
X109220000Y-102520000D03*
D19*
X109220000Y-105060000D03*
D15*
X109220000Y-107600000D03*
X109220000Y-110140000D03*
X127000000Y-110140000D03*
X127000000Y-107600000D03*
D20*
X127000000Y-105060000D03*
D15*
X127000000Y-102520000D03*
X127000000Y-99980000D03*
X127000000Y-97440000D03*
X127000000Y-94900000D03*
D20*
X127000000Y-92360000D03*
D15*
X127000000Y-89820000D03*
X127000000Y-87280000D03*
X127000000Y-84740000D03*
X127000000Y-82200000D03*
D20*
X127000000Y-79660000D03*
D15*
X127000000Y-77120000D03*
X127000000Y-74580000D03*
X127000000Y-72040000D03*
X127000000Y-69500000D03*
D20*
X127000000Y-66960000D03*
D15*
X127000000Y-64420000D03*
X127000000Y-61880000D03*
%TD*%
D14*
%TO.C,D2*%
X152470000Y-109370000D03*
D15*
X152470000Y-116990000D03*
%TD*%
D14*
%TO.C,D9*%
X133280000Y-70870000D03*
D15*
X133280000Y-78490000D03*
%TD*%
D21*
%TO.C,SW5*%
X160680000Y-94435000D03*
D22*
X160680000Y-89355000D03*
D21*
X160680000Y-84275000D03*
D16*
X165760000Y-86815000D03*
X163220000Y-93165000D03*
%TD*%
D21*
%TO.C,SW4*%
X179880000Y-94445000D03*
D22*
X179880000Y-89365000D03*
D21*
X179880000Y-84285000D03*
D16*
X184960000Y-86825000D03*
X182420000Y-93175000D03*
%TD*%
D21*
%TO.C,SW2*%
X160690000Y-113645000D03*
D22*
X160690000Y-108565000D03*
D21*
X160690000Y-103485000D03*
D16*
X165770000Y-106025000D03*
X163230000Y-112375000D03*
%TD*%
D21*
%TO.C,SW7*%
X179870000Y-75240000D03*
D22*
X179870000Y-70160000D03*
D21*
X179870000Y-65080000D03*
D16*
X184950000Y-67620000D03*
X182410000Y-73970000D03*
%TD*%
D21*
%TO.C,SW3*%
X141490000Y-113635000D03*
D22*
X141490000Y-108555000D03*
D21*
X141490000Y-103475000D03*
D16*
X146570000Y-106015000D03*
X144030000Y-112365000D03*
%TD*%
D21*
%TO.C,SW6*%
X141490000Y-94435000D03*
D22*
X141490000Y-89355000D03*
D21*
X141490000Y-84275000D03*
D16*
X146570000Y-86815000D03*
X144030000Y-93165000D03*
%TD*%
D21*
%TO.C,SW8*%
X160670000Y-75235000D03*
D22*
X160670000Y-70155000D03*
D21*
X160670000Y-65075000D03*
D16*
X165750000Y-67615000D03*
X163210000Y-73965000D03*
%TD*%
D23*
%TO.C,SW10*%
X114250000Y-124000000D03*
D24*
X114250000Y-119000000D03*
X114250000Y-121500000D03*
D25*
X121750000Y-115900000D03*
X121750000Y-127100000D03*
D24*
X128750000Y-119000000D03*
X128750000Y-124000000D03*
%TD*%
D21*
%TO.C,SW9*%
X141470000Y-75245000D03*
D22*
X141470000Y-70165000D03*
D21*
X141470000Y-65085000D03*
D16*
X146550000Y-67625000D03*
X144010000Y-73975000D03*
%TD*%
D21*
%TO.C,SW1*%
X179890000Y-113655000D03*
D22*
X179890000Y-108575000D03*
D21*
X179890000Y-103495000D03*
D16*
X184970000Y-106035000D03*
X182430000Y-112385000D03*
%TD*%
%LPD*%
M02*
