M48
; DRILL file KiCad 10.0.0 date 2026-04-25T12:13:24
; FORMAT={-:-/ absolute / metric / decimal}
; #@! TF.CreationDate,2026-04-25T12:13:24+05:30
; #@! TF.GenerationSoftware,Kicad,Pcbnew,10.0.0
; #@! TF.FileFunction,Plated,1,2,PTH
FMAT,2
METRIC
; #@! TA.AperFunction,Plated,PTH,ViaDrill
T1C0.300
; #@! TA.AperFunction,Plated,PTH,ComponentDrill
T2C0.800
; #@! TA.AperFunction,Plated,PTH,ComponentDrill
T3C1.000
; #@! TA.AperFunction,Plated,PTH,ComponentDrill
T4C1.500
%
G90
G05
T1
X130.0Y-96.5
X130.0Y-100.0
X141.0Y-100.0
X148.0Y-96.5
X149.0Y-100.0
X170.0Y-100.0
T2
X133.22Y-109.18
X133.22Y-116.8
X133.28Y-70.87
X133.28Y-78.49
X133.28Y-90.0
X133.28Y-97.62
X152.47Y-109.37
X152.47Y-116.99
X152.5Y-70.93
X152.5Y-78.55
X152.5Y-90.15
X152.5Y-97.77
X171.66Y-109.32
X171.66Y-116.94
X171.69Y-70.93
X171.69Y-78.55
X171.69Y-90.12
X171.69Y-97.74
T3
X109.22Y-61.88
X109.22Y-64.42
X109.22Y-66.96
X109.22Y-69.5
X109.22Y-72.04
X109.22Y-74.58
X109.22Y-77.12
X109.22Y-79.66
X109.22Y-82.2
X109.22Y-84.74
X109.22Y-87.28
X109.22Y-89.82
X109.22Y-92.36
X109.22Y-94.9
X109.22Y-97.44
X109.22Y-99.98
X109.22Y-102.52
X109.22Y-105.06
X109.22Y-107.6
X109.22Y-110.14
X114.25Y-119.0
X114.25Y-121.5
X114.25Y-124.0
X127.0Y-61.88
X127.0Y-64.42
X127.0Y-66.96
X127.0Y-69.5
X127.0Y-72.04
X127.0Y-74.58
X127.0Y-77.12
X127.0Y-79.66
X127.0Y-82.2
X127.0Y-84.74
X127.0Y-87.28
X127.0Y-89.82
X127.0Y-92.36
X127.0Y-94.9
X127.0Y-97.44
X127.0Y-99.98
X127.0Y-102.52
X127.0Y-105.06
X127.0Y-107.6
X127.0Y-110.14
X128.75Y-119.0
X128.75Y-124.0
T4
X144.01Y-73.975
X144.03Y-93.165
X144.03Y-112.365
X146.55Y-67.625
X146.57Y-86.815
X146.57Y-106.015
X163.21Y-73.965
X163.22Y-93.165
X163.23Y-112.375
X165.75Y-67.615
X165.76Y-86.815
X165.77Y-106.025
X182.41Y-73.97
X182.42Y-93.175
X182.43Y-112.385
X184.95Y-67.62
X184.96Y-86.825
X184.97Y-106.035
T4
X121.1Y-115.9G85X122.4Y-115.9
G05
X121.1Y-127.1G85X122.4Y-127.1
G05
M30
