%TF.GenerationSoftware,KiCad,Pcbnew,10.0.0*%
%TF.CreationDate,2026-04-17T23:25:56+05:30*%
%TF.ProjectId,HackpadKicad,4861636b-7061-4644-9b69-6361642e6b69,rev?*%
%TF.SameCoordinates,Original*%
%TF.FileFunction,Soldermask,Top*%
%TF.FilePolarity,Negative*%
%FSLAX46Y46*%
G04 Gerber Fmt 4.6, Leading zero omitted, Abs format (unit mm)*
G04 Created by KiCad (PCBNEW 10.0.0) date 2026-04-17 23:25:56*
%MOMM*%
%LPD*%
G01*
G04 APERTURE LIST*
G04 Aperture macros list*
%AMRoundRect*
0 Rectangle with rounded corners*
0 $1 Rounding radius*
0 $2 $3 $4 $5 $6 $7 $8 $9 X,Y pos of 4 corners*
0 Add a 4 corners polygon primitive as box body*
4,1,4,$2,$3,$4,$5,$6,$7,$8,$9,$2,$3,0*
0 Add four circle primitives for the rounded corners*
1,1,$1+$1,$2,$3*
1,1,$1+$1,$4,$5*
1,1,$1+$1,$6,$7*
1,1,$1+$1,$8,$9*
0 Add four rect primitives between the rounded corners*
20,1,$1+$1,$2,$3,$4,$5,0*
20,1,$1+$1,$4,$5,$6,$7,0*
20,1,$1+$1,$6,$7,$8,$9,0*
20,1,$1+$1,$8,$9,$2,$3,0*%
%AMFreePoly0*
4,1,37,0.800000,0.796148,0.878414,0.796148,1.032228,0.765552,1.177117,0.705537,1.307515,0.618408,1.418408,0.507515,1.505537,0.377117,1.565552,0.232228,1.596148,0.078414,1.596148,-0.078414,1.565552,-0.232228,1.505537,-0.377117,1.418408,-0.507515,1.307515,-0.618408,1.177117,-0.705537,1.032228,-0.765552,0.878414,-0.796148,0.800000,-0.796148,0.800000,-0.800000,-1.400000,-0.800000,
-1.403843,-0.796157,-1.439018,-0.796157,-1.511114,-0.766294,-1.566294,-0.711114,-1.596157,-0.639018,-1.596157,-0.603843,-1.600000,-0.600000,-1.600000,0.600000,-1.596157,0.603843,-1.596157,0.639018,-1.566294,0.711114,-1.511114,0.766294,-1.439018,0.796157,-1.403843,0.796157,-1.400000,0.800000,0.800000,0.800000,0.800000,0.796148,0.800000,0.796148,$1*%
%AMFreePoly1*
4,1,37,1.403843,0.796157,1.439018,0.796157,1.511114,0.766294,1.566294,0.711114,1.596157,0.639018,1.596157,0.603843,1.600000,0.600000,1.600000,-0.600000,1.596157,-0.603843,1.596157,-0.639018,1.566294,-0.711114,1.511114,-0.766294,1.439018,-0.796157,1.403843,-0.796157,1.400000,-0.800000,-0.800000,-0.800000,-0.800000,-0.796148,-0.878414,-0.796148,-1.032228,-0.765552,-1.177117,-0.705537,
-1.307515,-0.618408,-1.418408,-0.507515,-1.505537,-0.377117,-1.565552,-0.232228,-1.596148,-0.078414,-1.596148,0.078414,-1.565552,0.232228,-1.505537,0.377117,-1.418408,0.507515,-1.307515,0.618408,-1.177117,0.705537,-1.032228,0.765552,-0.878414,0.796148,-0.800000,0.796148,-0.800000,0.800000,1.400000,0.800000,1.403843,0.796157,1.403843,0.796157,$1*%
%AMFreePoly2*
4,1,37,0.603843,0.796157,0.639018,0.796157,0.711114,0.766294,0.766294,0.711114,0.796157,0.639018,0.796157,0.603843,0.800000,0.600000,0.800000,-0.600000,0.796157,-0.603843,0.796157,-0.639018,0.766294,-0.711114,0.711114,-0.766294,0.639018,-0.796157,0.603843,-0.796157,0.600000,-0.800000,0.000000,-0.800000,0.000000,-0.796148,-0.078414,-0.796148,-0.232228,-0.765552,-0.377117,-0.705537,
-0.507515,-0.618408,-0.618408,-0.507515,-0.705537,-0.377117,-0.765552,-0.232228,-0.796148,-0.078414,-0.796148,0.078414,-0.765552,0.232228,-0.705537,0.377117,-0.618408,0.507515,-0.507515,0.618408,-0.377117,0.705537,-0.232228,0.765552,-0.078414,0.796148,0.000000,0.796148,0.000000,0.800000,0.600000,0.800000,0.603843,0.796157,0.603843,0.796157,$1*%
%AMFreePoly3*
4,1,37,0.000000,0.796148,0.078414,0.796148,0.232228,0.765552,0.377117,0.705537,0.507515,0.618408,0.618408,0.507515,0.705537,0.377117,0.765552,0.232228,0.796148,0.078414,0.796148,-0.078414,0.765552,-0.232228,0.705537,-0.377117,0.618408,-0.507515,0.507515,-0.618408,0.377117,-0.705537,0.232228,-0.765552,0.078414,-0.796148,0.000000,-0.796148,0.000000,-0.800000,-0.600000,-0.800000,
-0.603843,-0.796157,-0.639018,-0.796157,-0.711114,-0.766294,-0.766294,-0.711114,-0.796157,-0.639018,-0.796157,-0.603843,-0.800000,-0.600000,-0.800000,0.600000,-0.796157,0.603843,-0.796157,0.639018,-0.766294,0.711114,-0.711114,0.766294,-0.639018,0.796157,-0.603843,0.796157,-0.600000,0.800000,0.000000,0.800000,0.000000,0.796148,0.000000,0.796148,$1*%
G04 Aperture macros list end*
%ADD10RoundRect,0.250000X-0.550000X0.550000X-0.550000X-0.550000X0.550000X-0.550000X0.550000X0.550000X0*%
%ADD11C,1.600000*%
%ADD12C,2.200000*%
%ADD13C,1.850000*%
%ADD14FreePoly0,0.000000*%
%ADD15RoundRect,0.200000X-0.600000X-0.600000X0.600000X-0.600000X0.600000X0.600000X-0.600000X0.600000X0*%
%ADD16RoundRect,0.800000X-0.800000X-0.000010X0.800000X-0.000010X0.800000X0.000010X-0.800000X0.000010X0*%
%ADD17FreePoly1,0.000000*%
%ADD18FreePoly2,0.000000*%
%ADD19FreePoly3,0.000000*%
%ADD20C,1.700000*%
%ADD21C,4.000000*%
%ADD22R,2.000000X2.000000*%
%ADD23C,2.000000*%
%ADD24R,3.200000X2.000000*%
G04 APERTURE END LIST*
D10*
%TO.C,D8*%
X152500000Y-70930000D03*
D11*
X152500000Y-78550000D03*
%TD*%
D10*
%TO.C,D1*%
X171660000Y-109320000D03*
D11*
X171660000Y-116940000D03*
%TD*%
D10*
%TO.C,D5*%
X152500000Y-90150000D03*
D11*
X152500000Y-97770000D03*
%TD*%
D10*
%TO.C,D4*%
X171690000Y-90120000D03*
D11*
X171690000Y-97740000D03*
%TD*%
D10*
%TO.C,D7*%
X171690000Y-70930000D03*
D11*
X171690000Y-78550000D03*
%TD*%
D10*
%TO.C,D3*%
X133220000Y-109180000D03*
D11*
X133220000Y-116800000D03*
%TD*%
D10*
%TO.C,D6*%
X133280000Y-90000000D03*
D11*
X133280000Y-97620000D03*
%TD*%
D12*
%TO.C,A1*%
X115385000Y-62010000D03*
D13*
X115685000Y-65040000D03*
X120535000Y-65040000D03*
D12*
X120835000Y-62010000D03*
D14*
X108420000Y-61880000D03*
D15*
X109220000Y-61880000D03*
D16*
X108420000Y-64420000D03*
D11*
X109220000Y-64420000D03*
D17*
X108420000Y-66960000D03*
D18*
X109220000Y-66960000D03*
D16*
X108420000Y-69500000D03*
D11*
X109220000Y-69500000D03*
D16*
X108420000Y-72040000D03*
D11*
X109220000Y-72040000D03*
D16*
X108420000Y-74580000D03*
D11*
X109220000Y-74580000D03*
D16*
X108420000Y-77120000D03*
D11*
X109220000Y-77120000D03*
D17*
X108420000Y-79660000D03*
D18*
X109220000Y-79660000D03*
D16*
X108420000Y-82200000D03*
D11*
X109220000Y-82200000D03*
D16*
X108420000Y-84740000D03*
D11*
X109220000Y-84740000D03*
D16*
X108420000Y-87280000D03*
D11*
X109220000Y-87280000D03*
D16*
X108420000Y-89820000D03*
D11*
X109220000Y-89820000D03*
D17*
X108420000Y-92360000D03*
D18*
X109220000Y-92360000D03*
D16*
X108420000Y-94900000D03*
D11*
X109220000Y-94900000D03*
D16*
X108420000Y-97440000D03*
D11*
X109220000Y-97440000D03*
D16*
X108420000Y-99980000D03*
D11*
X109220000Y-99980000D03*
D16*
X108420000Y-102520000D03*
D11*
X109220000Y-102520000D03*
D17*
X108420000Y-105060000D03*
D18*
X109220000Y-105060000D03*
D16*
X108420000Y-107600000D03*
D11*
X109220000Y-107600000D03*
D16*
X108420000Y-110140000D03*
D11*
X109220000Y-110140000D03*
X127000000Y-110140000D03*
D16*
X127800000Y-110140000D03*
D11*
X127000000Y-107600000D03*
D16*
X127800000Y-107600000D03*
D19*
X127000000Y-105060000D03*
D14*
X127800000Y-105060000D03*
D11*
X127000000Y-102520000D03*
D16*
X127800000Y-102520000D03*
D11*
X127000000Y-99980000D03*
D16*
X127800000Y-99980000D03*
D11*
X127000000Y-97440000D03*
D16*
X127800000Y-97440000D03*
D11*
X127000000Y-94900000D03*
D16*
X127800000Y-94900000D03*
D19*
X127000000Y-92360000D03*
D14*
X127800000Y-92360000D03*
D11*
X127000000Y-89820000D03*
D16*
X127800000Y-89820000D03*
D11*
X127000000Y-87280000D03*
D16*
X127800000Y-87280000D03*
D11*
X127000000Y-84740000D03*
D16*
X127800000Y-84740000D03*
D11*
X127000000Y-82200000D03*
D16*
X127800000Y-82200000D03*
D19*
X127000000Y-79660000D03*
D14*
X127800000Y-79660000D03*
D11*
X127000000Y-77120000D03*
D16*
X127800000Y-77120000D03*
D11*
X127000000Y-74580000D03*
D16*
X127800000Y-74580000D03*
D11*
X127000000Y-72040000D03*
D16*
X127800000Y-72040000D03*
D11*
X127000000Y-69500000D03*
D16*
X127800000Y-69500000D03*
D19*
X127000000Y-66960000D03*
D14*
X127800000Y-66960000D03*
D11*
X127000000Y-64420000D03*
D16*
X127800000Y-64420000D03*
D11*
X127000000Y-61880000D03*
D16*
X127800000Y-61880000D03*
%TD*%
D10*
%TO.C,D2*%
X152470000Y-109370000D03*
D11*
X152470000Y-116990000D03*
%TD*%
D10*
%TO.C,D9*%
X133280000Y-70870000D03*
D11*
X133280000Y-78490000D03*
%TD*%
D20*
%TO.C,SW5*%
X160680000Y-94435000D03*
D21*
X160680000Y-89355000D03*
D20*
X160680000Y-84275000D03*
D12*
X165760000Y-86815000D03*
X163220000Y-93165000D03*
%TD*%
D20*
%TO.C,SW4*%
X179880000Y-94445000D03*
D21*
X179880000Y-89365000D03*
D20*
X179880000Y-84285000D03*
D12*
X184960000Y-86825000D03*
X182420000Y-93175000D03*
%TD*%
D20*
%TO.C,SW2*%
X160690000Y-113645000D03*
D21*
X160690000Y-108565000D03*
D20*
X160690000Y-103485000D03*
D12*
X165770000Y-106025000D03*
X163230000Y-112375000D03*
%TD*%
D20*
%TO.C,SW7*%
X179870000Y-75240000D03*
D21*
X179870000Y-70160000D03*
D20*
X179870000Y-65080000D03*
D12*
X184950000Y-67620000D03*
X182410000Y-73970000D03*
%TD*%
D20*
%TO.C,SW3*%
X141490000Y-113635000D03*
D21*
X141490000Y-108555000D03*
D20*
X141490000Y-103475000D03*
D12*
X146570000Y-106015000D03*
X144030000Y-112365000D03*
%TD*%
D20*
%TO.C,SW6*%
X141490000Y-94435000D03*
D21*
X141490000Y-89355000D03*
D20*
X141490000Y-84275000D03*
D12*
X146570000Y-86815000D03*
X144030000Y-93165000D03*
%TD*%
D20*
%TO.C,SW8*%
X160670000Y-75235000D03*
D21*
X160670000Y-70155000D03*
D20*
X160670000Y-65075000D03*
D12*
X165750000Y-67615000D03*
X163210000Y-73965000D03*
%TD*%
D22*
%TO.C,SW10*%
X114250000Y-124000000D03*
D23*
X114250000Y-119000000D03*
X114250000Y-121500000D03*
D24*
X121750000Y-115900000D03*
X121750000Y-127100000D03*
D23*
X128750000Y-119000000D03*
X128750000Y-124000000D03*
%TD*%
D20*
%TO.C,SW9*%
X141470000Y-75245000D03*
D21*
X141470000Y-70165000D03*
D20*
X141470000Y-65085000D03*
D12*
X146550000Y-67625000D03*
X144010000Y-73975000D03*
%TD*%
D20*
%TO.C,SW1*%
X179890000Y-113655000D03*
D21*
X179890000Y-108575000D03*
D20*
X179890000Y-103495000D03*
D12*
X184970000Y-106035000D03*
X182430000Y-112385000D03*
%TD*%
M02*
